%TF.GenerationSoftware,KiCad,Pcbnew,5.1.6-c6e7f7d~87~ubuntu20.04.1*%
%TF.CreationDate,2020-07-24T19:51:26+01:00*%
%TF.ProjectId,ETAG_GEN3,45544147-5f47-4454-9e33-2e6b69636164,rev?*%
%TF.SameCoordinates,Original*%
%TF.FileFunction,Soldermask,Bot*%
%TF.FilePolarity,Negative*%
%FSLAX46Y46*%
G04 Gerber Fmt 4.6, Leading zero omitted, Abs format (unit mm)*
G04 Created by KiCad (PCBNEW 5.1.6-c6e7f7d~87~ubuntu20.04.1) date 2020-07-24 19:51:26*
%MOMM*%
%LPD*%
G01*
G04 APERTURE LIST*
%ADD10C,4.064000*%
%ADD11C,3.300000*%
%ADD12C,1.651600*%
%ADD13O,1.524000X2.235200*%
%ADD14C,1.117600*%
%ADD15R,1.117600X1.117600*%
%ADD16C,1.700000*%
%ADD17C,1.200000*%
%ADD18C,1.000000*%
%ADD19C,3.911600*%
%ADD20C,2.032000*%
%ADD21C,1.371600*%
%ADD22O,1.422400X2.082800*%
%ADD23O,2.082800X1.422400*%
G04 APERTURE END LIST*
D10*
X161455100Y-87923600D02*
G75*
G03*
X161455100Y-87923600I-2794000J0D01*
G01*
D11*
%TO.C,@HOLE0*%
X180251100Y-96113600D03*
%TD*%
%TO.C,@HOLE1*%
X180251100Y-124053600D03*
%TD*%
%TO.C,@HOLE2*%
X129451100Y-80873600D03*
%TD*%
%TO.C,@HOLE3*%
X128181100Y-129133600D03*
%TD*%
D12*
%TO.C,ICSP6*%
X180378100Y-106273600D03*
X177838100Y-106273600D03*
X180378100Y-103733600D03*
X177838100Y-103733600D03*
X180378100Y-101193600D03*
X177838100Y-101193600D03*
%TD*%
D13*
%TO.C,HDR_IOL1*%
X159931100Y-80873600D03*
X162471100Y-80873600D03*
X165011100Y-80873600D03*
X167551100Y-80873600D03*
X170091100Y-80873600D03*
X172631100Y-80873600D03*
X175171100Y-80873600D03*
X177711100Y-80873600D03*
%TD*%
%TO.C,HDR_IOH1*%
X133007100Y-80873600D03*
X135547100Y-80873600D03*
X138087100Y-80873600D03*
X140627100Y-80873600D03*
X143167100Y-80873600D03*
X145707100Y-80873600D03*
X148247100Y-80873600D03*
X150787100Y-80873600D03*
X153327100Y-80873600D03*
X155867100Y-80873600D03*
%TD*%
%TO.C,HDR_AD1*%
X177711100Y-129133600D03*
X175171100Y-129133600D03*
X172631100Y-129133600D03*
X170091100Y-129133600D03*
X167551100Y-129133600D03*
X165011100Y-129133600D03*
%TD*%
%TO.C,HDR_POWER1*%
X159931100Y-129133600D03*
X157391100Y-129133600D03*
X154851100Y-129133600D03*
X152311100Y-129133600D03*
X149771100Y-129133600D03*
X147231100Y-129133600D03*
X144691100Y-129133600D03*
X142151100Y-129133600D03*
%TD*%
D14*
%TO.C,ICSP10*%
X179743100Y-116213600D03*
X178473100Y-116213600D03*
X179743100Y-114943600D03*
X178473100Y-114943600D03*
X179743100Y-113673600D03*
X178473100Y-113673600D03*
X179743100Y-112403600D03*
X178473100Y-112403600D03*
X179743100Y-111133600D03*
D15*
X178473100Y-111133600D03*
%TD*%
D16*
%TO.C,SD1*%
X137919100Y-91027600D03*
D17*
X137919100Y-112127600D03*
G36*
G01*
X137668300Y-89773320D02*
X137668300Y-87881880D01*
G75*
G02*
X137773380Y-87776800I105080J0D01*
G01*
X140464820Y-87776800D01*
G75*
G02*
X140569900Y-87881880I0J-105080D01*
G01*
X140569900Y-89773320D01*
G75*
G02*
X140464820Y-89878400I-105080J0D01*
G01*
X137773380Y-89878400D01*
G75*
G02*
X137668300Y-89773320I0J105080D01*
G01*
G37*
G36*
G01*
X139368300Y-111870227D02*
X139368300Y-111184973D01*
G75*
G02*
X139426473Y-111126800I58173J0D01*
G01*
X142411727Y-111126800D01*
G75*
G02*
X142469900Y-111184973I0J-58173D01*
G01*
X142469900Y-111870227D01*
G75*
G02*
X142411727Y-111928400I-58173J0D01*
G01*
X139426473Y-111928400D01*
G75*
G02*
X139368300Y-111870227I0J58173D01*
G01*
G37*
G36*
G01*
X139368300Y-91713320D02*
X139368300Y-90541880D01*
G75*
G02*
X139433380Y-90476800I65080J0D01*
G01*
X142404820Y-90476800D01*
G75*
G02*
X142469900Y-90541880I0J-65080D01*
G01*
X142469900Y-91713320D01*
G75*
G02*
X142404820Y-91778400I-65080J0D01*
G01*
X139433380Y-91778400D01*
G75*
G02*
X139368300Y-91713320I0J65080D01*
G01*
G37*
G36*
G01*
X139368300Y-99213320D02*
X139368300Y-98041880D01*
G75*
G02*
X139433380Y-97976800I65080J0D01*
G01*
X142404820Y-97976800D01*
G75*
G02*
X142469900Y-98041880I0J-65080D01*
G01*
X142469900Y-99213320D01*
G75*
G02*
X142404820Y-99278400I-65080J0D01*
G01*
X139433380Y-99278400D01*
G75*
G02*
X139368300Y-99213320I0J65080D01*
G01*
G37*
G36*
G01*
X139368300Y-94213320D02*
X139368300Y-93041880D01*
G75*
G02*
X139433380Y-92976800I65080J0D01*
G01*
X142404820Y-92976800D01*
G75*
G02*
X142469900Y-93041880I0J-65080D01*
G01*
X142469900Y-94213320D01*
G75*
G02*
X142404820Y-94278400I-65080J0D01*
G01*
X139433380Y-94278400D01*
G75*
G02*
X139368300Y-94213320I0J65080D01*
G01*
G37*
G36*
G01*
X139368300Y-101713320D02*
X139368300Y-100541880D01*
G75*
G02*
X139433380Y-100476800I65080J0D01*
G01*
X142404820Y-100476800D01*
G75*
G02*
X142469900Y-100541880I0J-65080D01*
G01*
X142469900Y-101713320D01*
G75*
G02*
X142404820Y-101778400I-65080J0D01*
G01*
X139433380Y-101778400D01*
G75*
G02*
X139368300Y-101713320I0J65080D01*
G01*
G37*
G36*
G01*
X139368300Y-96713320D02*
X139368300Y-95541880D01*
G75*
G02*
X139433380Y-95476800I65080J0D01*
G01*
X142404820Y-95476800D01*
G75*
G02*
X142469900Y-95541880I0J-65080D01*
G01*
X142469900Y-96713320D01*
G75*
G02*
X142404820Y-96778400I-65080J0D01*
G01*
X139433380Y-96778400D01*
G75*
G02*
X139368300Y-96713320I0J65080D01*
G01*
G37*
G36*
G01*
X139368300Y-104213320D02*
X139368300Y-103041880D01*
G75*
G02*
X139433380Y-102976800I65080J0D01*
G01*
X142404820Y-102976800D01*
G75*
G02*
X142469900Y-103041880I0J-65080D01*
G01*
X142469900Y-104213320D01*
G75*
G02*
X142404820Y-104278400I-65080J0D01*
G01*
X139433380Y-104278400D01*
G75*
G02*
X139368300Y-104213320I0J65080D01*
G01*
G37*
G36*
G01*
X139368300Y-106713320D02*
X139368300Y-105541880D01*
G75*
G02*
X139433380Y-105476800I65080J0D01*
G01*
X142404820Y-105476800D01*
G75*
G02*
X142469900Y-105541880I0J-65080D01*
G01*
X142469900Y-106713320D01*
G75*
G02*
X142404820Y-106778400I-65080J0D01*
G01*
X139433380Y-106778400D01*
G75*
G02*
X139368300Y-106713320I0J65080D01*
G01*
G37*
G36*
G01*
X139368300Y-109213320D02*
X139368300Y-108041880D01*
G75*
G02*
X139433380Y-107976800I65080J0D01*
G01*
X142404820Y-107976800D01*
G75*
G02*
X142469900Y-108041880I0J-65080D01*
G01*
X142469900Y-109213320D01*
G75*
G02*
X142404820Y-109278400I-65080J0D01*
G01*
X139433380Y-109278400D01*
G75*
G02*
X139368300Y-109213320I0J65080D01*
G01*
G37*
G36*
G01*
X139368300Y-110570227D02*
X139368300Y-109884973D01*
G75*
G02*
X139426473Y-109826800I58173J0D01*
G01*
X142411727Y-109826800D01*
G75*
G02*
X142469900Y-109884973I0J-58173D01*
G01*
X142469900Y-110570227D01*
G75*
G02*
X142411727Y-110628400I-58173J0D01*
G01*
X139426473Y-110628400D01*
G75*
G02*
X139368300Y-110570227I0J58173D01*
G01*
G37*
G36*
G01*
X139368300Y-113070227D02*
X139368300Y-112384973D01*
G75*
G02*
X139426473Y-112326800I58173J0D01*
G01*
X142411727Y-112326800D01*
G75*
G02*
X142469900Y-112384973I0J-58173D01*
G01*
X142469900Y-113070227D01*
G75*
G02*
X142411727Y-113128400I-58173J0D01*
G01*
X139426473Y-113128400D01*
G75*
G02*
X139368300Y-113070227I0J58173D01*
G01*
G37*
G36*
G01*
X137568300Y-115373320D02*
X137568300Y-113481880D01*
G75*
G02*
X137673380Y-113376800I105080J0D01*
G01*
X140364820Y-113376800D01*
G75*
G02*
X140469900Y-113481880I0J-105080D01*
G01*
X140469900Y-115373320D01*
G75*
G02*
X140364820Y-115478400I-105080J0D01*
G01*
X137673380Y-115478400D01*
G75*
G02*
X137568300Y-115373320I0J105080D01*
G01*
G37*
G36*
G01*
X115498300Y-87373320D02*
X115498300Y-85481880D01*
G75*
G02*
X115603380Y-85376800I105080J0D01*
G01*
X118294820Y-85376800D01*
G75*
G02*
X118399900Y-85481880I0J-105080D01*
G01*
X118399900Y-87373320D01*
G75*
G02*
X118294820Y-87478400I-105080J0D01*
G01*
X115603380Y-87478400D01*
G75*
G02*
X115498300Y-87373320I0J105080D01*
G01*
G37*
G36*
G01*
X115498300Y-115273320D02*
X115498300Y-113381880D01*
G75*
G02*
X115603380Y-113276800I105080J0D01*
G01*
X118294820Y-113276800D01*
G75*
G02*
X118399900Y-113381880I0J-105080D01*
G01*
X118399900Y-115273320D01*
G75*
G02*
X118294820Y-115378400I-105080J0D01*
G01*
X115603380Y-115378400D01*
G75*
G02*
X115498300Y-115273320I0J105080D01*
G01*
G37*
%TD*%
D18*
%TO.C,USB1*%
X120515100Y-110035600D03*
X120515100Y-105635600D03*
%TD*%
%TO.C,BAT1*%
G36*
G01*
X156630300Y-90151320D02*
X156630300Y-86495880D01*
G75*
G02*
X156833380Y-86292800I203080J0D01*
G01*
X160488820Y-86292800D01*
G75*
G02*
X160691900Y-86495880I0J-203080D01*
G01*
X160691900Y-90151320D01*
G75*
G02*
X160488820Y-90354400I-203080J0D01*
G01*
X156833380Y-90354400D01*
G75*
G02*
X156630300Y-90151320I0J203080D01*
G01*
G37*
G36*
G01*
X163760300Y-89974320D02*
X163760300Y-86672880D01*
G75*
G02*
X163910380Y-86522800I150080J0D01*
G01*
X166611820Y-86522800D01*
G75*
G02*
X166761900Y-86672880I0J-150080D01*
G01*
X166761900Y-89974320D01*
G75*
G02*
X166611820Y-90124400I-150080J0D01*
G01*
X163910380Y-90124400D01*
G75*
G02*
X163760300Y-89974320I0J150080D01*
G01*
G37*
G36*
G01*
X150560300Y-89974320D02*
X150560300Y-86672880D01*
G75*
G02*
X150710380Y-86522800I150080J0D01*
G01*
X153411820Y-86522800D01*
G75*
G02*
X153561900Y-86672880I0J-150080D01*
G01*
X153561900Y-89974320D01*
G75*
G02*
X153411820Y-90124400I-150080J0D01*
G01*
X150710380Y-90124400D01*
G75*
G02*
X150560300Y-89974320I0J150080D01*
G01*
G37*
%TD*%
D19*
%TO.C,SW1*%
X132875100Y-123926600D03*
X116375100Y-123926600D03*
D20*
X128625100Y-125176600D03*
X128625100Y-122676600D03*
X124625100Y-125176600D03*
X124625100Y-122676600D03*
X120625100Y-125176600D03*
X120625100Y-122676600D03*
%TD*%
D21*
%TO.C,CE2*%
X151711100Y-95089600D03*
X151711100Y-93057600D03*
%TD*%
D22*
%TO.C,JPA1*%
X125981100Y-81173600D03*
X123441100Y-81173600D03*
%TD*%
D21*
%TO.C,CE1*%
X128395100Y-85873600D03*
X130427100Y-85873600D03*
%TD*%
D22*
%TO.C,JPB1*%
X120901100Y-81173600D03*
X118361100Y-81173600D03*
%TD*%
D23*
%TO.C,JP_PWR1*%
X119611100Y-115703600D03*
X119611100Y-118243600D03*
%TD*%
D21*
%TO.C,CE3*%
X144911100Y-102157600D03*
X144911100Y-104189600D03*
%TD*%
M02*
