%TF.GenerationSoftware,KiCad,Pcbnew,5.1.6-c6e7f7d~87~ubuntu20.04.1*%
%TF.CreationDate,2020-07-24T19:51:26+01:00*%
%TF.ProjectId,ETAG_GEN3,45544147-5f47-4454-9e33-2e6b69636164,rev?*%
%TF.SameCoordinates,Original*%
%TF.FileFunction,OtherDrawing,Comment*%
%FSLAX46Y46*%
G04 Gerber Fmt 4.6, Leading zero omitted, Abs format (unit mm)*
G04 Created by KiCad (PCBNEW 5.1.6-c6e7f7d~87~ubuntu20.04.1) date 2020-07-24 19:51:26*
%MOMM*%
%LPD*%
G01*
G04 APERTURE LIST*
%ADD10C,0.002032*%
%ADD11C,4.064000*%
%ADD12C,0.050000*%
%ADD13C,2.184400*%
%ADD14C,0.127000*%
%ADD15C,0.050800*%
%ADD16C,1.270000*%
%ADD17C,0.100000*%
%ADD18C,0.199800*%
%ADD19C,0.080000*%
G04 APERTURE END LIST*
D10*
X114218166Y-131735950D02*
X114218166Y-131711820D01*
X114223911Y-131711820D01*
X114227358Y-131712970D01*
X114229656Y-131715268D01*
X114230805Y-131717566D01*
X114231954Y-131722162D01*
X114231954Y-131725609D01*
X114230805Y-131730205D01*
X114229656Y-131732503D01*
X114227358Y-131734801D01*
X114223911Y-131735950D01*
X114218166Y-131735950D01*
X114242296Y-131733652D02*
X114243445Y-131734801D01*
X114242296Y-131735950D01*
X114241146Y-131734801D01*
X114242296Y-131733652D01*
X114242296Y-131735950D01*
X114242296Y-131721013D02*
X114243445Y-131722162D01*
X114242296Y-131723311D01*
X114241146Y-131722162D01*
X114242296Y-131721013D01*
X114242296Y-131723311D01*
X114271022Y-131710671D02*
X114250339Y-131741696D01*
X114277916Y-131734801D02*
X114281363Y-131735950D01*
X114287108Y-131735950D01*
X114289406Y-131734801D01*
X114290556Y-131733652D01*
X114291705Y-131731354D01*
X114291705Y-131729056D01*
X114290556Y-131726758D01*
X114289406Y-131725609D01*
X114287108Y-131724460D01*
X114282512Y-131723311D01*
X114280214Y-131722162D01*
X114279065Y-131721013D01*
X114277916Y-131718715D01*
X114277916Y-131716417D01*
X114279065Y-131714119D01*
X114280214Y-131712970D01*
X114282512Y-131711820D01*
X114288257Y-131711820D01*
X114291705Y-131712970D01*
X114302046Y-131735950D02*
X114302046Y-131719864D01*
X114302046Y-131722162D02*
X114303195Y-131721013D01*
X114305493Y-131719864D01*
X114308940Y-131719864D01*
X114311238Y-131721013D01*
X114312387Y-131723311D01*
X114312387Y-131735950D01*
X114312387Y-131723311D02*
X114313536Y-131721013D01*
X114315835Y-131719864D01*
X114319282Y-131719864D01*
X114321580Y-131721013D01*
X114322729Y-131723311D01*
X114322729Y-131735950D01*
X114344561Y-131735950D02*
X114344561Y-131723311D01*
X114343412Y-131721013D01*
X114341114Y-131719864D01*
X114336517Y-131719864D01*
X114334219Y-131721013D01*
X114344561Y-131734801D02*
X114342263Y-131735950D01*
X114336517Y-131735950D01*
X114334219Y-131734801D01*
X114333070Y-131732503D01*
X114333070Y-131730205D01*
X114334219Y-131727907D01*
X114336517Y-131726758D01*
X114342263Y-131726758D01*
X114344561Y-131725609D01*
X114356051Y-131735950D02*
X114356051Y-131719864D01*
X114356051Y-131724460D02*
X114357200Y-131722162D01*
X114358349Y-131721013D01*
X114360647Y-131719864D01*
X114362946Y-131719864D01*
X114367542Y-131719864D02*
X114376734Y-131719864D01*
X114370989Y-131711820D02*
X114370989Y-131732503D01*
X114372138Y-131734801D01*
X114374436Y-131735950D01*
X114376734Y-131735950D01*
X114384777Y-131735950D02*
X114384777Y-131711820D01*
X114393970Y-131711820D01*
X114396268Y-131712970D01*
X114397417Y-131714119D01*
X114398566Y-131716417D01*
X114398566Y-131719864D01*
X114397417Y-131722162D01*
X114396268Y-131723311D01*
X114393970Y-131724460D01*
X114384777Y-131724460D01*
X114408907Y-131735950D02*
X114408907Y-131719864D01*
X114408907Y-131724460D02*
X114410056Y-131722162D01*
X114411206Y-131721013D01*
X114413504Y-131719864D01*
X114415802Y-131719864D01*
X114427292Y-131735950D02*
X114424994Y-131734801D01*
X114423845Y-131733652D01*
X114422696Y-131731354D01*
X114422696Y-131724460D01*
X114423845Y-131722162D01*
X114424994Y-131721013D01*
X114427292Y-131719864D01*
X114430739Y-131719864D01*
X114433037Y-131721013D01*
X114434186Y-131722162D01*
X114435336Y-131724460D01*
X114435336Y-131731354D01*
X114434186Y-131733652D01*
X114433037Y-131734801D01*
X114430739Y-131735950D01*
X114427292Y-131735950D01*
X114445677Y-131719864D02*
X114445677Y-131740547D01*
X114444528Y-131742845D01*
X114442230Y-131743994D01*
X114441081Y-131743994D01*
X114445677Y-131711820D02*
X114444528Y-131712970D01*
X114445677Y-131714119D01*
X114446826Y-131712970D01*
X114445677Y-131711820D01*
X114445677Y-131714119D01*
X114466360Y-131734801D02*
X114464062Y-131735950D01*
X114459466Y-131735950D01*
X114457167Y-131734801D01*
X114456018Y-131732503D01*
X114456018Y-131723311D01*
X114457167Y-131721013D01*
X114459466Y-131719864D01*
X114464062Y-131719864D01*
X114466360Y-131721013D01*
X114467509Y-131723311D01*
X114467509Y-131725609D01*
X114456018Y-131727907D01*
X114488192Y-131734801D02*
X114485894Y-131735950D01*
X114481297Y-131735950D01*
X114478999Y-131734801D01*
X114477850Y-131733652D01*
X114476701Y-131731354D01*
X114476701Y-131724460D01*
X114477850Y-131722162D01*
X114478999Y-131721013D01*
X114481297Y-131719864D01*
X114485894Y-131719864D01*
X114488192Y-131721013D01*
X114495086Y-131719864D02*
X114504278Y-131719864D01*
X114498533Y-131711820D02*
X114498533Y-131732503D01*
X114499682Y-131734801D01*
X114501980Y-131735950D01*
X114504278Y-131735950D01*
X114511173Y-131734801D02*
X114513471Y-131735950D01*
X114518067Y-131735950D01*
X114520365Y-131734801D01*
X114521514Y-131732503D01*
X114521514Y-131731354D01*
X114520365Y-131729056D01*
X114518067Y-131727907D01*
X114514620Y-131727907D01*
X114512322Y-131726758D01*
X114511173Y-131724460D01*
X114511173Y-131723311D01*
X114512322Y-131721013D01*
X114514620Y-131719864D01*
X114518067Y-131719864D01*
X114520365Y-131721013D01*
X114549091Y-131710671D02*
X114528408Y-131741696D01*
X114555986Y-131734801D02*
X114559433Y-131735950D01*
X114565178Y-131735950D01*
X114567476Y-131734801D01*
X114568625Y-131733652D01*
X114569774Y-131731354D01*
X114569774Y-131729056D01*
X114568625Y-131726758D01*
X114567476Y-131725609D01*
X114565178Y-131724460D01*
X114560582Y-131723311D01*
X114558284Y-131722162D01*
X114557135Y-131721013D01*
X114555986Y-131718715D01*
X114555986Y-131716417D01*
X114557135Y-131714119D01*
X114558284Y-131712970D01*
X114560582Y-131711820D01*
X114566327Y-131711820D01*
X114569774Y-131712970D01*
X114580116Y-131719864D02*
X114580116Y-131735950D01*
X114580116Y-131722162D02*
X114581265Y-131721013D01*
X114583563Y-131719864D01*
X114587010Y-131719864D01*
X114589308Y-131721013D01*
X114590457Y-131723311D01*
X114590457Y-131735950D01*
X114612289Y-131734801D02*
X114609991Y-131735950D01*
X114605395Y-131735950D01*
X114603096Y-131734801D01*
X114601947Y-131733652D01*
X114600798Y-131731354D01*
X114600798Y-131724460D01*
X114601947Y-131722162D01*
X114603096Y-131721013D01*
X114605395Y-131719864D01*
X114609991Y-131719864D01*
X114612289Y-131721013D01*
X114639866Y-131710671D02*
X114619183Y-131741696D01*
X114658251Y-131735950D02*
X114658251Y-131723311D01*
X114657102Y-131721013D01*
X114654804Y-131719864D01*
X114650207Y-131719864D01*
X114647909Y-131721013D01*
X114658251Y-131734801D02*
X114655953Y-131735950D01*
X114650207Y-131735950D01*
X114647909Y-131734801D01*
X114646760Y-131732503D01*
X114646760Y-131730205D01*
X114647909Y-131727907D01*
X114650207Y-131726758D01*
X114655953Y-131726758D01*
X114658251Y-131725609D01*
X114680083Y-131719864D02*
X114680083Y-131735950D01*
X114674337Y-131710671D02*
X114668592Y-131727907D01*
X114683530Y-131727907D01*
X114686977Y-131738249D02*
X114705362Y-131738249D01*
X114711107Y-131735950D02*
X114711107Y-131711820D01*
X114711107Y-131721013D02*
X114713405Y-131719864D01*
X114718001Y-131719864D01*
X114720299Y-131721013D01*
X114721448Y-131722162D01*
X114722597Y-131724460D01*
X114722597Y-131731354D01*
X114721448Y-131733652D01*
X114720299Y-131734801D01*
X114718001Y-131735950D01*
X114713405Y-131735950D01*
X114711107Y-131734801D01*
X114732939Y-131719864D02*
X114732939Y-131735950D01*
X114732939Y-131722162D02*
X114734088Y-131721013D01*
X114736386Y-131719864D01*
X114739833Y-131719864D01*
X114742131Y-131721013D01*
X114743280Y-131723311D01*
X114743280Y-131735950D01*
X114749026Y-131738249D02*
X114767410Y-131738249D01*
X114776603Y-131735950D02*
X114774305Y-131734801D01*
X114773156Y-131732503D01*
X114773156Y-131711820D01*
X114789242Y-131735950D02*
X114786944Y-131734801D01*
X114785795Y-131733652D01*
X114784646Y-131731354D01*
X114784646Y-131724460D01*
X114785795Y-131722162D01*
X114786944Y-131721013D01*
X114789242Y-131719864D01*
X114792689Y-131719864D01*
X114794987Y-131721013D01*
X114796136Y-131722162D01*
X114797286Y-131724460D01*
X114797286Y-131731354D01*
X114796136Y-131733652D01*
X114794987Y-131734801D01*
X114792689Y-131735950D01*
X114789242Y-131735950D01*
X114817968Y-131719864D02*
X114817968Y-131739398D01*
X114816819Y-131741696D01*
X114815670Y-131742845D01*
X114813372Y-131743994D01*
X114809925Y-131743994D01*
X114807627Y-131742845D01*
X114817968Y-131734801D02*
X114815670Y-131735950D01*
X114811074Y-131735950D01*
X114808776Y-131734801D01*
X114807627Y-131733652D01*
X114806478Y-131731354D01*
X114806478Y-131724460D01*
X114807627Y-131722162D01*
X114808776Y-131721013D01*
X114811074Y-131719864D01*
X114815670Y-131719864D01*
X114817968Y-131721013D01*
X114832906Y-131735950D02*
X114830608Y-131734801D01*
X114829459Y-131733652D01*
X114828310Y-131731354D01*
X114828310Y-131724460D01*
X114829459Y-131722162D01*
X114830608Y-131721013D01*
X114832906Y-131719864D01*
X114836353Y-131719864D01*
X114838651Y-131721013D01*
X114839800Y-131722162D01*
X114840949Y-131724460D01*
X114840949Y-131731354D01*
X114839800Y-131733652D01*
X114838651Y-131734801D01*
X114836353Y-131735950D01*
X114832906Y-131735950D01*
X114850142Y-131714119D02*
X114851291Y-131712970D01*
X114853589Y-131711820D01*
X114859334Y-131711820D01*
X114861632Y-131712970D01*
X114862781Y-131714119D01*
X114863930Y-131716417D01*
X114863930Y-131718715D01*
X114862781Y-131722162D01*
X114848993Y-131735950D01*
X114863930Y-131735950D01*
X114874272Y-131733652D02*
X114875421Y-131734801D01*
X114874272Y-131735950D01*
X114873123Y-131734801D01*
X114874272Y-131733652D01*
X114874272Y-131735950D01*
X114885762Y-131735950D02*
X114885762Y-131711820D01*
X114885762Y-131721013D02*
X114888060Y-131719864D01*
X114892656Y-131719864D01*
X114894955Y-131721013D01*
X114896104Y-131722162D01*
X114897253Y-131724460D01*
X114897253Y-131731354D01*
X114896104Y-131733652D01*
X114894955Y-131734801D01*
X114892656Y-131735950D01*
X114888060Y-131735950D01*
X114885762Y-131734801D01*
X114907594Y-131735950D02*
X114907594Y-131719864D01*
X114907594Y-131722162D02*
X114908743Y-131721013D01*
X114911041Y-131719864D01*
X114914488Y-131719864D01*
X114916786Y-131721013D01*
X114917936Y-131723311D01*
X114917936Y-131735950D01*
X114917936Y-131723311D02*
X114919085Y-131721013D01*
X114921383Y-131719864D01*
X114924830Y-131719864D01*
X114927128Y-131721013D01*
X114928277Y-131723311D01*
X114928277Y-131735950D01*
X114939767Y-131719864D02*
X114939767Y-131743994D01*
X114939767Y-131721013D02*
X114942066Y-131719864D01*
X114946662Y-131719864D01*
X114948960Y-131721013D01*
X114950109Y-131722162D01*
X114951258Y-131724460D01*
X114951258Y-131731354D01*
X114950109Y-131733652D01*
X114948960Y-131734801D01*
X114946662Y-131735950D01*
X114942066Y-131735950D01*
X114939767Y-131734801D01*
D11*
X161455100Y-87923600D02*
G75*
G03*
X161455100Y-87923600I-2794000J0D01*
G01*
D12*
%TO.C,ICSP6*%
X176458100Y-99803600D02*
X181768100Y-99803600D01*
X176458100Y-107663600D02*
X176458100Y-99803600D01*
X181768100Y-107663600D02*
X176458100Y-107663600D01*
X181768100Y-99803600D02*
X181768100Y-107663600D01*
%TO.C,HDR_IOL1*%
X179091100Y-79303600D02*
X179091100Y-82503600D01*
X158551100Y-79273600D02*
X179091100Y-79303600D01*
X158551100Y-82473600D02*
X158551100Y-79273600D01*
X179091100Y-82503600D02*
X158551100Y-82473600D01*
%TO.C,HDR_IOH1*%
X157237100Y-79273600D02*
X157237100Y-82473600D01*
X131637100Y-79273600D02*
X157237100Y-79273600D01*
X131637100Y-82473600D02*
X131637100Y-79273600D01*
X157237100Y-82473600D02*
X131637100Y-82473600D01*
%TO.C,HDR_AD1*%
X163631100Y-130733600D02*
X163631100Y-127533600D01*
X179091100Y-130733600D02*
X163631100Y-130733600D01*
X179091100Y-127533600D02*
X179091100Y-130733600D01*
X163631100Y-127533600D02*
X179091100Y-127533600D01*
D13*
%TO.C,FD1*%
X116510100Y-83542600D02*
G75*
G03*
X116510100Y-83542600I-200000J0D01*
G01*
%TO.C,FD2*%
X116716100Y-129547600D02*
G75*
G03*
X116716100Y-129547600I-200000J0D01*
G01*
%TO.C,FD3*%
X178333100Y-86482600D02*
G75*
G03*
X178333100Y-86482600I-200000J0D01*
G01*
D14*
%TO.C,RESET1*%
X151524100Y-117064600D02*
X141134100Y-117064600D01*
X151524100Y-118834600D02*
X151524100Y-117064600D01*
X149484100Y-118834600D02*
X151524100Y-118834600D01*
X149484100Y-121574600D02*
X149484100Y-118834600D01*
X151514100Y-121574600D02*
X149484100Y-121574600D01*
X151514100Y-123354600D02*
X151514100Y-121574600D01*
X141134100Y-123354600D02*
X151514100Y-123354600D01*
X141134100Y-117064600D02*
X141134100Y-123354600D01*
D12*
%TO.C,HDR_POWER1*%
X140771100Y-130703600D02*
X140771100Y-127503600D01*
X161311100Y-130733600D02*
X140771100Y-130703600D01*
X161311100Y-127533600D02*
X161311100Y-130733600D01*
X140771100Y-127503600D02*
X161311100Y-127533600D01*
D15*
%TO.C,D1*%
X135154100Y-121495000D02*
X135154100Y-119412200D01*
X140234100Y-121495000D02*
X135154100Y-121495000D01*
X140234100Y-119412200D02*
X140234100Y-121495000D01*
X135154100Y-119412200D02*
X140234100Y-119412200D01*
D16*
%TO.C,MCU1*%
X163816100Y-100081800D02*
G75*
G03*
X163816100Y-100081800I-635000J0D01*
G01*
D15*
%TO.C,C11*%
X160896700Y-110744200D02*
X162262700Y-110744200D01*
X160896700Y-113690200D02*
X160896700Y-110744200D01*
X162262700Y-113690200D02*
X160896700Y-113690200D01*
X162262700Y-110744200D02*
X162262700Y-113690200D01*
%TO.C,C5*%
X157962400Y-105096000D02*
X156596400Y-105096000D01*
X157962400Y-102150000D02*
X157962400Y-105096000D01*
X156596400Y-102150000D02*
X157962400Y-102150000D01*
X156596400Y-105096000D02*
X156596400Y-102150000D01*
%TO.C,C6*%
X172928300Y-103452800D02*
X172928300Y-104818800D01*
X169982300Y-103452800D02*
X172928300Y-103452800D01*
X169982300Y-104818800D02*
X169982300Y-103452800D01*
X172928300Y-104818800D02*
X169982300Y-104818800D01*
%TO.C,Y4*%
X166431100Y-107766600D02*
X166431100Y-105696600D01*
X171211100Y-107766600D02*
X166431100Y-107766600D01*
X171211100Y-105696600D02*
X171211100Y-107766600D01*
X166431100Y-105696600D02*
X171211100Y-105696600D01*
D17*
G36*
X167821100Y-107636600D02*
G01*
X169821100Y-107636600D01*
X169821100Y-105836600D01*
X167821100Y-105836600D01*
X167821100Y-107636600D01*
G37*
G36*
X167821100Y-107636600D02*
G01*
X169821100Y-107636600D01*
X169821100Y-105836600D01*
X167821100Y-105836600D01*
X167821100Y-107636600D01*
G37*
G36*
X167821100Y-107636600D02*
G01*
X169821100Y-107636600D01*
X169821100Y-105836600D01*
X167821100Y-105836600D01*
X167821100Y-107636600D01*
G37*
D15*
%TO.C,C9*%
X168945100Y-107931600D02*
X168945100Y-109297600D01*
X165999100Y-107931600D02*
X168945100Y-107931600D01*
X165999100Y-109297600D02*
X165999100Y-107931600D01*
X168945100Y-109297600D02*
X165999100Y-109297600D01*
%TO.C,C10*%
X168797100Y-109297600D02*
X168797100Y-107931600D01*
X171743100Y-109297600D02*
X168797100Y-109297600D01*
X171743100Y-107931600D02*
X171743100Y-109297600D01*
X168797100Y-107931600D02*
X171743100Y-107931600D01*
%TO.C,LED1*%
X135713750Y-113280650D02*
X139282450Y-113280650D01*
X135713750Y-114760200D02*
X135713750Y-113280650D01*
X139282450Y-114760200D02*
X135713750Y-114760200D01*
X139282450Y-113280650D02*
X139282450Y-114760200D01*
%TO.C,RP_SCL1*%
X155595100Y-96637600D02*
X155595100Y-98003600D01*
X152649100Y-96637600D02*
X155595100Y-96637600D01*
X152649100Y-98003600D02*
X152649100Y-96637600D01*
X155595100Y-98003600D02*
X152649100Y-98003600D01*
%TO.C,RP_SDA1*%
X154870100Y-99709600D02*
X154870100Y-101075600D01*
X151924100Y-99709600D02*
X154870100Y-99709600D01*
X151924100Y-101075600D02*
X151924100Y-99709600D01*
X154870100Y-101075600D02*
X151924100Y-101075600D01*
%TO.C,C7*%
X126803300Y-106645200D02*
X126803300Y-105279200D01*
X129749300Y-106645200D02*
X126803300Y-106645200D01*
X129749300Y-105279200D02*
X129749300Y-106645200D01*
X126803300Y-105279200D02*
X129749300Y-105279200D01*
%TO.C,C1*%
X162520500Y-110717800D02*
X163886500Y-110717800D01*
X162520500Y-113663800D02*
X162520500Y-110717800D01*
X163886500Y-113663800D02*
X162520500Y-113663800D01*
X163886500Y-110717800D02*
X163886500Y-113663800D01*
%TO.C,R4*%
X139096100Y-117481600D02*
X139096100Y-118847600D01*
X136150100Y-117481600D02*
X139096100Y-117481600D01*
X136150100Y-118847600D02*
X136150100Y-117481600D01*
X139096100Y-118847600D02*
X136150100Y-118847600D01*
%TO.C,C2*%
X162812100Y-94260600D02*
X162812100Y-92894600D01*
X165758100Y-94260600D02*
X162812100Y-94260600D01*
X165758100Y-92894600D02*
X165758100Y-94260600D01*
X162812100Y-92894600D02*
X165758100Y-92894600D01*
%TO.C,C3*%
X163419100Y-89401600D02*
X163419100Y-88035600D01*
X166365100Y-89401600D02*
X163419100Y-89401600D01*
X166365100Y-88035600D02*
X166365100Y-89401600D01*
X163419100Y-88035600D02*
X166365100Y-88035600D01*
%TO.C,CREF1*%
X162044100Y-87565600D02*
X162044100Y-85885600D01*
X166924100Y-87565600D02*
X162044100Y-87565600D01*
X166924100Y-85885600D02*
X166924100Y-87565600D01*
X162044100Y-85885600D02*
X166924100Y-85885600D01*
%TO.C,R2*%
X155854100Y-110189600D02*
X157220100Y-110189600D01*
X155854100Y-113135600D02*
X155854100Y-110189600D01*
X157220100Y-113135600D02*
X155854100Y-113135600D01*
X157220100Y-110189600D02*
X157220100Y-113135600D01*
%TO.C,C8*%
X157978100Y-110189600D02*
X159344100Y-110189600D01*
X157978100Y-113135600D02*
X157978100Y-110189600D01*
X159344100Y-113135600D02*
X157978100Y-113135600D01*
X159344100Y-110189600D02*
X159344100Y-113135600D01*
D12*
%TO.C,ICSP10*%
X177758100Y-111213600D02*
X177508100Y-111213600D01*
X177748100Y-116933600D02*
X177758100Y-111213600D01*
X180458100Y-116933600D02*
X177748100Y-116933600D01*
X180468100Y-110413600D02*
X180458100Y-116933600D01*
X178558100Y-110413600D02*
X180468100Y-110413600D01*
X178558100Y-110173600D02*
X178558100Y-110413600D01*
X177508100Y-110173600D02*
X178558100Y-110173600D01*
X177508100Y-111213600D02*
X177508100Y-110173600D01*
D15*
%TO.C,R1*%
X139724100Y-114711600D02*
X139724100Y-113345600D01*
X142670100Y-114711600D02*
X139724100Y-114711600D01*
X142670100Y-113345600D02*
X142670100Y-114711600D01*
X139724100Y-113345600D02*
X142670100Y-113345600D01*
%TO.C,RP_INT1*%
X155072100Y-89428600D02*
X155072100Y-90794600D01*
X152126100Y-89428600D02*
X155072100Y-89428600D01*
X152126100Y-90794600D02*
X152126100Y-89428600D01*
X155072100Y-90794600D02*
X152126100Y-90794600D01*
%TO.C,VDIV2*%
X163931100Y-124897600D02*
X163931100Y-126263600D01*
X160985100Y-124897600D02*
X163931100Y-124897600D01*
X160985100Y-126263600D02*
X160985100Y-124897600D01*
X163931100Y-126263600D02*
X160985100Y-126263600D01*
%TO.C,VDIV1*%
X161018100Y-127754600D02*
X161018100Y-126388600D01*
X163964100Y-127754600D02*
X161018100Y-127754600D01*
X163964100Y-126388600D02*
X163964100Y-127754600D01*
X161018100Y-126388600D02*
X163964100Y-126388600D01*
%TO.C,C5V1*%
X157084100Y-115690600D02*
X157084100Y-117656600D01*
X153138100Y-117656600D02*
X153138100Y-115690600D01*
X157084100Y-117656600D02*
X153138100Y-117656600D01*
X153138100Y-115690600D02*
X157084100Y-115690600D01*
%TO.C,C3.3V1*%
X158438100Y-117656600D02*
X158438100Y-115690600D01*
X162384100Y-115690600D02*
X162384100Y-117656600D01*
X158438100Y-115690600D02*
X162384100Y-115690600D01*
X162384100Y-117656600D02*
X158438100Y-117656600D01*
D18*
%TO.C,RFA1*%
X147411100Y-96068600D02*
X139611100Y-96068600D01*
X139611100Y-85278600D02*
X147411100Y-85278600D01*
X139611100Y-96068600D02*
X139611100Y-85278600D01*
X147411100Y-85278600D02*
X147411100Y-96068600D01*
D15*
%TO.C,CFCAPA1*%
X144038100Y-85356600D02*
X144038100Y-83990600D01*
X146984100Y-85356600D02*
X144038100Y-85356600D01*
X146984100Y-83990600D02*
X146984100Y-85356600D01*
X144038100Y-83990600D02*
X146984100Y-83990600D01*
%TO.C,CDC2*%
X147528100Y-87100600D02*
X148894100Y-87100600D01*
X147528100Y-90046600D02*
X147528100Y-87100600D01*
X148894100Y-90046600D02*
X147528100Y-90046600D01*
X148894100Y-87100600D02*
X148894100Y-90046600D01*
%TO.C,CDECA1*%
X147528100Y-93300600D02*
X148894100Y-93300600D01*
X147528100Y-96246600D02*
X147528100Y-93300600D01*
X148894100Y-96246600D02*
X147528100Y-96246600D01*
X148894100Y-93300600D02*
X148894100Y-96246600D01*
%TO.C,CAGNDA1*%
X148894100Y-93146600D02*
X147528100Y-93146600D01*
X148894100Y-90200600D02*
X148894100Y-93146600D01*
X147528100Y-90200600D02*
X148894100Y-90200600D01*
X147528100Y-93146600D02*
X147528100Y-90200600D01*
%TO.C,CRES1A1*%
X139184100Y-93890600D02*
X139184100Y-95256600D01*
X136238100Y-93890600D02*
X139184100Y-93890600D01*
X136238100Y-95256600D02*
X136238100Y-93890600D01*
X139184100Y-95256600D02*
X136238100Y-95256600D01*
%TO.C,CDIV1A1*%
X136238100Y-98256600D02*
X136238100Y-96890600D01*
X139184100Y-98256600D02*
X136238100Y-98256600D01*
X139184100Y-96890600D02*
X139184100Y-98256600D01*
X136238100Y-96890600D02*
X139184100Y-96890600D01*
%TO.C,CDIV2A1*%
X139238100Y-98256600D02*
X139238100Y-96890600D01*
X142184100Y-98256600D02*
X139238100Y-98256600D01*
X142184100Y-96890600D02*
X142184100Y-98256600D01*
X139238100Y-96890600D02*
X142184100Y-96890600D01*
%TO.C,RAA1*%
X139594100Y-86946600D02*
X137628100Y-86946600D01*
X137628100Y-83000600D02*
X139594100Y-83000600D01*
X137628100Y-86946600D02*
X137628100Y-83000600D01*
X139594100Y-83000600D02*
X139594100Y-86946600D01*
%TO.C,CBLKA1*%
X150394100Y-94046600D02*
X149028100Y-94046600D01*
X150394100Y-91100600D02*
X150394100Y-94046600D01*
X149028100Y-91100600D02*
X150394100Y-91100600D01*
X149028100Y-94046600D02*
X149028100Y-91100600D01*
D18*
%TO.C,RFB1*%
X129511100Y-99768600D02*
X121711100Y-99768600D01*
X121711100Y-88978600D02*
X129511100Y-88978600D01*
X121711100Y-99768600D02*
X121711100Y-88978600D01*
X129511100Y-88978600D02*
X129511100Y-99768600D01*
D15*
%TO.C,CFCAPB1*%
X129728100Y-90800600D02*
X131094100Y-90800600D01*
X129728100Y-93746600D02*
X129728100Y-90800600D01*
X131094100Y-93746600D02*
X129728100Y-93746600D01*
X131094100Y-90800600D02*
X131094100Y-93746600D01*
%TO.C,CDCB1*%
X131328100Y-90800600D02*
X132694100Y-90800600D01*
X131328100Y-93746600D02*
X131328100Y-90800600D01*
X132694100Y-93746600D02*
X131328100Y-93746600D01*
X132694100Y-90800600D02*
X132694100Y-93746600D01*
%TO.C,CDECB1*%
X130128100Y-97500600D02*
X131494100Y-97500600D01*
X130128100Y-100446600D02*
X130128100Y-97500600D01*
X131494100Y-100446600D02*
X130128100Y-100446600D01*
X131494100Y-97500600D02*
X131494100Y-100446600D01*
%TO.C,CAGNDB1*%
X131094100Y-97346600D02*
X129728100Y-97346600D01*
X131094100Y-94400600D02*
X131094100Y-97346600D01*
X129728100Y-94400600D02*
X131094100Y-94400600D01*
X129728100Y-97346600D02*
X129728100Y-94400600D01*
%TO.C,CRES1B1*%
X121084100Y-96990600D02*
X121084100Y-98356600D01*
X118138100Y-96990600D02*
X121084100Y-96990600D01*
X118138100Y-98356600D02*
X118138100Y-96990600D01*
X121084100Y-98356600D02*
X118138100Y-98356600D01*
%TO.C,CDIV1B1*%
X118138100Y-101356600D02*
X118138100Y-99990600D01*
X121084100Y-101356600D02*
X118138100Y-101356600D01*
X121084100Y-99990600D02*
X121084100Y-101356600D01*
X118138100Y-99990600D02*
X121084100Y-99990600D01*
%TO.C,CDIV2B1*%
X121238100Y-101356600D02*
X121238100Y-99990600D01*
X124184100Y-101356600D02*
X121238100Y-101356600D01*
X124184100Y-99990600D02*
X124184100Y-101356600D01*
X121238100Y-99990600D02*
X124184100Y-99990600D01*
%TO.C,RAB1*%
X119628100Y-87900600D02*
X121594100Y-87900600D01*
X119628100Y-91846600D02*
X119628100Y-87900600D01*
X121594100Y-91846600D02*
X119628100Y-91846600D01*
X121594100Y-87900600D02*
X121594100Y-91846600D01*
%TO.C,CBLKB1*%
X133294100Y-98746600D02*
X131928100Y-98746600D01*
X133294100Y-95800600D02*
X133294100Y-98746600D01*
X131928100Y-95800600D02*
X133294100Y-95800600D01*
X131928100Y-98746600D02*
X131928100Y-95800600D01*
%TO.C,CXB1*%
X119928100Y-91600600D02*
X121294100Y-91600600D01*
X119928100Y-94546600D02*
X119928100Y-91600600D01*
X121294100Y-94546600D02*
X119928100Y-94546600D01*
X121294100Y-91600600D02*
X121294100Y-94546600D01*
%TO.C,CRES2B1*%
X121084100Y-98490600D02*
X121084100Y-99856600D01*
X118138100Y-98490600D02*
X121084100Y-98490600D01*
X118138100Y-99856600D02*
X118138100Y-98490600D01*
X121084100Y-99856600D02*
X118138100Y-99856600D01*
%TO.C,CRES2A1*%
X139184100Y-95390600D02*
X139184100Y-96756600D01*
X136238100Y-95390600D02*
X139184100Y-95390600D01*
X136238100Y-96756600D02*
X136238100Y-95390600D01*
X139184100Y-96756600D02*
X136238100Y-96756600D01*
%TO.C,Z5*%
X127303100Y-109875100D02*
X127303100Y-108509100D01*
X130249100Y-109875100D02*
X127303100Y-109875100D01*
X130249100Y-108509100D02*
X130249100Y-109875100D01*
X127303100Y-108509100D02*
X130249100Y-108509100D01*
%TO.C,Z6*%
X130183100Y-106674600D02*
X130183100Y-105308600D01*
X133129100Y-106674600D02*
X130183100Y-106674600D01*
X133129100Y-105308600D02*
X133129100Y-106674600D01*
X130183100Y-105308600D02*
X133129100Y-105308600D01*
%TO.C,CXA1*%
X137928100Y-87200600D02*
X139294100Y-87200600D01*
X137928100Y-90146600D02*
X137928100Y-87200600D01*
X139294100Y-90146600D02*
X137928100Y-90146600D01*
X139294100Y-87200600D02*
X139294100Y-90146600D01*
%TO.C,R3*%
X153721100Y-110138600D02*
X155087100Y-110138600D01*
X153721100Y-113084600D02*
X153721100Y-110138600D01*
X155087100Y-113084600D02*
X153721100Y-113084600D01*
X155087100Y-110138600D02*
X155087100Y-113084600D01*
%TD*%
%TO.C,TP1*%
D19*
X160389290Y-108335028D02*
X161113100Y-108606457D01*
X160389290Y-108877885D01*
X161429766Y-108018361D02*
X161972623Y-108018361D01*
X161701195Y-108968361D02*
X161701195Y-108018361D01*
X162289290Y-108968361D02*
X162289290Y-108018361D01*
X162651195Y-108018361D01*
X162741671Y-108063600D01*
X162786909Y-108108838D01*
X162832147Y-108199314D01*
X162832147Y-108335028D01*
X162786909Y-108425504D01*
X162741671Y-108470742D01*
X162651195Y-108515980D01*
X162289290Y-108515980D01*
X163013100Y-109058838D02*
X163736909Y-109058838D01*
X163917861Y-108923123D02*
X164053576Y-108968361D01*
X164279766Y-108968361D01*
X164370242Y-108923123D01*
X164415480Y-108877885D01*
X164460719Y-108787409D01*
X164460719Y-108696933D01*
X164415480Y-108606457D01*
X164370242Y-108561219D01*
X164279766Y-108515980D01*
X164098814Y-108470742D01*
X164008338Y-108425504D01*
X163963100Y-108380266D01*
X163917861Y-108289790D01*
X163917861Y-108199314D01*
X163963100Y-108108838D01*
X164008338Y-108063600D01*
X164098814Y-108018361D01*
X164325004Y-108018361D01*
X164460719Y-108063600D01*
X164867861Y-108968361D02*
X164867861Y-108018361D01*
X165817861Y-108063600D02*
X165727385Y-108018361D01*
X165591671Y-108018361D01*
X165455957Y-108063600D01*
X165365480Y-108154076D01*
X165320242Y-108244552D01*
X165275004Y-108425504D01*
X165275004Y-108561219D01*
X165320242Y-108742171D01*
X165365480Y-108832647D01*
X165455957Y-108923123D01*
X165591671Y-108968361D01*
X165682147Y-108968361D01*
X165817861Y-108923123D01*
X165863100Y-108877885D01*
X165863100Y-108561219D01*
X165682147Y-108561219D01*
X166270242Y-108968361D02*
X166270242Y-108018361D01*
X166813100Y-108968361D01*
X166813100Y-108018361D01*
X167220242Y-108696933D02*
X167672623Y-108696933D01*
X167129766Y-108968361D02*
X167446433Y-108018361D01*
X167763100Y-108968361D01*
X168532147Y-108968361D02*
X168079766Y-108968361D01*
X168079766Y-108018361D01*
X168622623Y-109058838D02*
X169346433Y-109058838D01*
X169572623Y-108968361D02*
X169572623Y-108018361D01*
X170115480Y-108968361D01*
X170115480Y-108018361D01*
X170522623Y-108696933D02*
X170975004Y-108696933D01*
X170432147Y-108968361D02*
X170748814Y-108018361D01*
X171065480Y-108968361D01*
X171382147Y-108968361D02*
X171382147Y-108018361D01*
X171698814Y-108696933D01*
X172015480Y-108018361D01*
X172015480Y-108968361D01*
X172467861Y-108470742D02*
X172784528Y-108470742D01*
X172920242Y-108968361D02*
X172467861Y-108968361D01*
X172467861Y-108018361D01*
X172920242Y-108018361D01*
%TO.C,TP2*%
X158189290Y-108335028D02*
X158913100Y-108606457D01*
X158189290Y-108877885D01*
X159229766Y-108018361D02*
X159772623Y-108018361D01*
X159501195Y-108968361D02*
X159501195Y-108018361D01*
X160089290Y-108968361D02*
X160089290Y-108018361D01*
X160451195Y-108018361D01*
X160541671Y-108063600D01*
X160586909Y-108108838D01*
X160632147Y-108199314D01*
X160632147Y-108335028D01*
X160586909Y-108425504D01*
X160541671Y-108470742D01*
X160451195Y-108515980D01*
X160089290Y-108515980D01*
X160813100Y-109058838D02*
X161536909Y-109058838D01*
X161717861Y-108923123D02*
X161853576Y-108968361D01*
X162079766Y-108968361D01*
X162170242Y-108923123D01*
X162215480Y-108877885D01*
X162260719Y-108787409D01*
X162260719Y-108696933D01*
X162215480Y-108606457D01*
X162170242Y-108561219D01*
X162079766Y-108515980D01*
X161898814Y-108470742D01*
X161808338Y-108425504D01*
X161763100Y-108380266D01*
X161717861Y-108289790D01*
X161717861Y-108199314D01*
X161763100Y-108108838D01*
X161808338Y-108063600D01*
X161898814Y-108018361D01*
X162125004Y-108018361D01*
X162260719Y-108063600D01*
X162667861Y-108968361D02*
X162667861Y-108018361D01*
X163617861Y-108063600D02*
X163527385Y-108018361D01*
X163391671Y-108018361D01*
X163255957Y-108063600D01*
X163165480Y-108154076D01*
X163120242Y-108244552D01*
X163075004Y-108425504D01*
X163075004Y-108561219D01*
X163120242Y-108742171D01*
X163165480Y-108832647D01*
X163255957Y-108923123D01*
X163391671Y-108968361D01*
X163482147Y-108968361D01*
X163617861Y-108923123D01*
X163663100Y-108877885D01*
X163663100Y-108561219D01*
X163482147Y-108561219D01*
X164070242Y-108968361D02*
X164070242Y-108018361D01*
X164613100Y-108968361D01*
X164613100Y-108018361D01*
X165020242Y-108696933D02*
X165472623Y-108696933D01*
X164929766Y-108968361D02*
X165246433Y-108018361D01*
X165563100Y-108968361D01*
X166332147Y-108968361D02*
X165879766Y-108968361D01*
X165879766Y-108018361D01*
X166422623Y-109058838D02*
X167146433Y-109058838D01*
X167372623Y-108968361D02*
X167372623Y-108018361D01*
X167915480Y-108968361D01*
X167915480Y-108018361D01*
X168322623Y-108696933D02*
X168775004Y-108696933D01*
X168232147Y-108968361D02*
X168548814Y-108018361D01*
X168865480Y-108968361D01*
X169182147Y-108968361D02*
X169182147Y-108018361D01*
X169498814Y-108696933D01*
X169815480Y-108018361D01*
X169815480Y-108968361D01*
X170267861Y-108470742D02*
X170584528Y-108470742D01*
X170720242Y-108968361D02*
X170267861Y-108968361D01*
X170267861Y-108018361D01*
X170720242Y-108018361D01*
%TD*%
M02*
