%TF.GenerationSoftware,KiCad,Pcbnew,5.1.6-c6e7f7d~87~ubuntu20.04.1*%
%TF.CreationDate,2020-07-24T19:51:26+01:00*%
%TF.ProjectId,ETAG_GEN3,45544147-5f47-4454-9e33-2e6b69636164,rev?*%
%TF.SameCoordinates,Original*%
%TF.FileFunction,Other,Fab,Top*%
%FSLAX46Y46*%
G04 Gerber Fmt 4.6, Leading zero omitted, Abs format (unit mm)*
G04 Created by KiCad (PCBNEW 5.1.6-c6e7f7d~87~ubuntu20.04.1) date 2020-07-24 19:51:26*
%MOMM*%
%LPD*%
G01*
G04 APERTURE LIST*
%ADD10C,0.100000*%
%ADD11C,0.152400*%
%ADD12C,0.101600*%
%ADD13C,0.127000*%
%ADD14C,0.203200*%
%ADD15C,0.050000*%
%ADD16C,0.254000*%
%ADD17C,0.061772*%
%ADD18C,0.046329*%
%ADD19C,0.077216*%
%ADD20C,0.057912*%
%ADD21C,0.032512*%
G04 APERTURE END LIST*
D10*
%TO.C,ICSP6*%
G36*
X177584100Y-106019600D02*
G01*
X177584100Y-106527600D01*
X178092100Y-106527600D01*
X178092100Y-106019600D01*
X177584100Y-106019600D01*
G37*
G36*
X180124100Y-106019600D02*
G01*
X180124100Y-106527600D01*
X180632100Y-106527600D01*
X180632100Y-106019600D01*
X180124100Y-106019600D01*
G37*
G36*
X177584100Y-103479600D02*
G01*
X177584100Y-103987600D01*
X178092100Y-103987600D01*
X178092100Y-103479600D01*
X177584100Y-103479600D01*
G37*
G36*
X180124100Y-103479600D02*
G01*
X180124100Y-103987600D01*
X180632100Y-103987600D01*
X180632100Y-103479600D01*
X180124100Y-103479600D01*
G37*
G36*
X180124100Y-100939600D02*
G01*
X180124100Y-101447600D01*
X180632100Y-101447600D01*
X180632100Y-100939600D01*
X180124100Y-100939600D01*
G37*
G36*
X177584100Y-100939600D02*
G01*
X177584100Y-101447600D01*
X178092100Y-101447600D01*
X178092100Y-100939600D01*
X177584100Y-100939600D01*
G37*
%TO.C,HDR_IOL1*%
G36*
X160185100Y-80619600D02*
G01*
X159677100Y-80619600D01*
X159677100Y-81127600D01*
X160185100Y-81127600D01*
X160185100Y-80619600D01*
G37*
G36*
X177965100Y-80619600D02*
G01*
X177457100Y-80619600D01*
X177457100Y-81127600D01*
X177965100Y-81127600D01*
X177965100Y-80619600D01*
G37*
G36*
X175425100Y-80619600D02*
G01*
X174917100Y-80619600D01*
X174917100Y-81127600D01*
X175425100Y-81127600D01*
X175425100Y-80619600D01*
G37*
G36*
X172885100Y-80619600D02*
G01*
X172377100Y-80619600D01*
X172377100Y-81127600D01*
X172885100Y-81127600D01*
X172885100Y-80619600D01*
G37*
G36*
X170345100Y-80619600D02*
G01*
X169837100Y-80619600D01*
X169837100Y-81127600D01*
X170345100Y-81127600D01*
X170345100Y-80619600D01*
G37*
G36*
X167805100Y-80619600D02*
G01*
X167297100Y-80619600D01*
X167297100Y-81127600D01*
X167805100Y-81127600D01*
X167805100Y-80619600D01*
G37*
G36*
X165265100Y-80619600D02*
G01*
X164757100Y-80619600D01*
X164757100Y-81127600D01*
X165265100Y-81127600D01*
X165265100Y-80619600D01*
G37*
G36*
X162725100Y-80619600D02*
G01*
X162217100Y-80619600D01*
X162217100Y-81127600D01*
X162725100Y-81127600D01*
X162725100Y-80619600D01*
G37*
%TO.C,HDR_IOH1*%
G36*
X133261100Y-80619600D02*
G01*
X132753100Y-80619600D01*
X132753100Y-81127600D01*
X133261100Y-81127600D01*
X133261100Y-80619600D01*
G37*
G36*
X156121100Y-80619600D02*
G01*
X155613100Y-80619600D01*
X155613100Y-81127600D01*
X156121100Y-81127600D01*
X156121100Y-80619600D01*
G37*
G36*
X153581100Y-80619600D02*
G01*
X153073100Y-80619600D01*
X153073100Y-81127600D01*
X153581100Y-81127600D01*
X153581100Y-80619600D01*
G37*
G36*
X151041100Y-80619600D02*
G01*
X150533100Y-80619600D01*
X150533100Y-81127600D01*
X151041100Y-81127600D01*
X151041100Y-80619600D01*
G37*
G36*
X148501100Y-80619600D02*
G01*
X147993100Y-80619600D01*
X147993100Y-81127600D01*
X148501100Y-81127600D01*
X148501100Y-80619600D01*
G37*
G36*
X145961100Y-80619600D02*
G01*
X145453100Y-80619600D01*
X145453100Y-81127600D01*
X145961100Y-81127600D01*
X145961100Y-80619600D01*
G37*
G36*
X143421100Y-80619600D02*
G01*
X142913100Y-80619600D01*
X142913100Y-81127600D01*
X143421100Y-81127600D01*
X143421100Y-80619600D01*
G37*
G36*
X140881100Y-80619600D02*
G01*
X140373100Y-80619600D01*
X140373100Y-81127600D01*
X140881100Y-81127600D01*
X140881100Y-80619600D01*
G37*
G36*
X138341100Y-80619600D02*
G01*
X137833100Y-80619600D01*
X137833100Y-81127600D01*
X138341100Y-81127600D01*
X138341100Y-80619600D01*
G37*
G36*
X135801100Y-80619600D02*
G01*
X135293100Y-80619600D01*
X135293100Y-81127600D01*
X135801100Y-81127600D01*
X135801100Y-80619600D01*
G37*
%TO.C,HDR_AD1*%
G36*
X164757100Y-129387600D02*
G01*
X165265100Y-129387600D01*
X165265100Y-128879600D01*
X164757100Y-128879600D01*
X164757100Y-129387600D01*
G37*
G36*
X167297100Y-129387600D02*
G01*
X167805100Y-129387600D01*
X167805100Y-128879600D01*
X167297100Y-128879600D01*
X167297100Y-129387600D01*
G37*
G36*
X169837100Y-129387600D02*
G01*
X170345100Y-129387600D01*
X170345100Y-128879600D01*
X169837100Y-128879600D01*
X169837100Y-129387600D01*
G37*
G36*
X172377100Y-129387600D02*
G01*
X172885100Y-129387600D01*
X172885100Y-128879600D01*
X172377100Y-128879600D01*
X172377100Y-129387600D01*
G37*
G36*
X174917100Y-129387600D02*
G01*
X175425100Y-129387600D01*
X175425100Y-128879600D01*
X174917100Y-128879600D01*
X174917100Y-129387600D01*
G37*
G36*
X177457100Y-129387600D02*
G01*
X177965100Y-129387600D01*
X177965100Y-128879600D01*
X177457100Y-128879600D01*
X177457100Y-129387600D01*
G37*
%TO.C,HDR_POWER1*%
G36*
X159677100Y-129387600D02*
G01*
X160185100Y-129387600D01*
X160185100Y-128879600D01*
X159677100Y-128879600D01*
X159677100Y-129387600D01*
G37*
G36*
X141897100Y-129387600D02*
G01*
X142405100Y-129387600D01*
X142405100Y-128879600D01*
X141897100Y-128879600D01*
X141897100Y-129387600D01*
G37*
G36*
X144437100Y-129387600D02*
G01*
X144945100Y-129387600D01*
X144945100Y-128879600D01*
X144437100Y-128879600D01*
X144437100Y-129387600D01*
G37*
G36*
X146977100Y-129387600D02*
G01*
X147485100Y-129387600D01*
X147485100Y-128879600D01*
X146977100Y-128879600D01*
X146977100Y-129387600D01*
G37*
G36*
X149517100Y-129387600D02*
G01*
X150025100Y-129387600D01*
X150025100Y-128879600D01*
X149517100Y-128879600D01*
X149517100Y-129387600D01*
G37*
G36*
X152057100Y-129387600D02*
G01*
X152565100Y-129387600D01*
X152565100Y-128879600D01*
X152057100Y-128879600D01*
X152057100Y-129387600D01*
G37*
G36*
X154597100Y-129387600D02*
G01*
X155105100Y-129387600D01*
X155105100Y-128879600D01*
X154597100Y-128879600D01*
X154597100Y-129387600D01*
G37*
G36*
X157137100Y-129387600D02*
G01*
X157645100Y-129387600D01*
X157645100Y-128879600D01*
X157137100Y-128879600D01*
X157137100Y-129387600D01*
G37*
%TO.C,D1*%
G36*
X138989500Y-121317200D02*
G01*
X139548300Y-121317200D01*
X139548300Y-119590000D01*
X138989500Y-119590000D01*
X138989500Y-121317200D01*
G37*
G36*
X135839900Y-121317200D02*
G01*
X136398700Y-121317200D01*
X136398700Y-119590000D01*
X135839900Y-119590000D01*
X135839900Y-121317200D01*
G37*
D11*
X139014900Y-121241000D02*
X136373300Y-121241000D01*
X139014900Y-119666200D02*
X136373300Y-119666200D01*
D10*
%TO.C,MCU1*%
G36*
X160581100Y-103581800D02*
G01*
X160281100Y-103581800D01*
X160281100Y-104331800D01*
X160581100Y-104331800D01*
X160581100Y-103581800D01*
G37*
G36*
X161081100Y-103581800D02*
G01*
X160781100Y-103581800D01*
X160781100Y-104331800D01*
X161081100Y-104331800D01*
X161081100Y-103581800D01*
G37*
G36*
X161581100Y-103581800D02*
G01*
X161281100Y-103581800D01*
X161281100Y-104331800D01*
X161581100Y-104331800D01*
X161581100Y-103581800D01*
G37*
G36*
X162081100Y-103581800D02*
G01*
X161781100Y-103581800D01*
X161781100Y-104331800D01*
X162081100Y-104331800D01*
X162081100Y-103581800D01*
G37*
G36*
X162581100Y-103581800D02*
G01*
X162281100Y-103581800D01*
X162281100Y-104331800D01*
X162581100Y-104331800D01*
X162581100Y-103581800D01*
G37*
G36*
X163081100Y-103581800D02*
G01*
X162781100Y-103581800D01*
X162781100Y-104331800D01*
X163081100Y-104331800D01*
X163081100Y-103581800D01*
G37*
G36*
X163581100Y-103581800D02*
G01*
X163281100Y-103581800D01*
X163281100Y-104331800D01*
X163581100Y-104331800D01*
X163581100Y-103581800D01*
G37*
G36*
X164081100Y-103581800D02*
G01*
X163781100Y-103581800D01*
X163781100Y-104331800D01*
X164081100Y-104331800D01*
X164081100Y-103581800D01*
G37*
G36*
X164581100Y-103581800D02*
G01*
X164281100Y-103581800D01*
X164281100Y-104331800D01*
X164581100Y-104331800D01*
X164581100Y-103581800D01*
G37*
G36*
X165081100Y-103581800D02*
G01*
X164781100Y-103581800D01*
X164781100Y-104331800D01*
X165081100Y-104331800D01*
X165081100Y-103581800D01*
G37*
G36*
X165581100Y-103581800D02*
G01*
X165281100Y-103581800D01*
X165281100Y-104331800D01*
X165581100Y-104331800D01*
X165581100Y-103581800D01*
G37*
G36*
X166081100Y-103581800D02*
G01*
X165781100Y-103581800D01*
X165781100Y-104331800D01*
X166081100Y-104331800D01*
X166081100Y-103581800D01*
G37*
G36*
X159681100Y-102681800D02*
G01*
X158931100Y-102681800D01*
X158931100Y-102981800D01*
X159681100Y-102981800D01*
X159681100Y-102681800D01*
G37*
G36*
X159681100Y-102181800D02*
G01*
X158931100Y-102181800D01*
X158931100Y-102481800D01*
X159681100Y-102481800D01*
X159681100Y-102181800D01*
G37*
G36*
X159681100Y-101681800D02*
G01*
X158931100Y-101681800D01*
X158931100Y-101981800D01*
X159681100Y-101981800D01*
X159681100Y-101681800D01*
G37*
G36*
X159681100Y-101181800D02*
G01*
X158931100Y-101181800D01*
X158931100Y-101481800D01*
X159681100Y-101481800D01*
X159681100Y-101181800D01*
G37*
G36*
X159681100Y-100681800D02*
G01*
X158931100Y-100681800D01*
X158931100Y-100981800D01*
X159681100Y-100981800D01*
X159681100Y-100681800D01*
G37*
G36*
X159681100Y-100181800D02*
G01*
X158931100Y-100181800D01*
X158931100Y-100481800D01*
X159681100Y-100481800D01*
X159681100Y-100181800D01*
G37*
G36*
X159681100Y-99681800D02*
G01*
X158931100Y-99681800D01*
X158931100Y-99981800D01*
X159681100Y-99981800D01*
X159681100Y-99681800D01*
G37*
G36*
X159681100Y-99181800D02*
G01*
X158931100Y-99181800D01*
X158931100Y-99481800D01*
X159681100Y-99481800D01*
X159681100Y-99181800D01*
G37*
G36*
X159681100Y-98681800D02*
G01*
X158931100Y-98681800D01*
X158931100Y-98981800D01*
X159681100Y-98981800D01*
X159681100Y-98681800D01*
G37*
G36*
X159681100Y-97681800D02*
G01*
X158931100Y-97681800D01*
X158931100Y-97981800D01*
X159681100Y-97981800D01*
X159681100Y-97681800D01*
G37*
G36*
X159681100Y-97181800D02*
G01*
X158931100Y-97181800D01*
X158931100Y-97481800D01*
X159681100Y-97481800D01*
X159681100Y-97181800D01*
G37*
G36*
X159681100Y-98181800D02*
G01*
X158931100Y-98181800D01*
X158931100Y-98481800D01*
X159681100Y-98481800D01*
X159681100Y-98181800D01*
G37*
G36*
X160581100Y-95831800D02*
G01*
X160281100Y-95831800D01*
X160281100Y-96581800D01*
X160581100Y-96581800D01*
X160581100Y-95831800D01*
G37*
G36*
X161081100Y-95831800D02*
G01*
X160781100Y-95831800D01*
X160781100Y-96581800D01*
X161081100Y-96581800D01*
X161081100Y-95831800D01*
G37*
G36*
X161581100Y-95831800D02*
G01*
X161281100Y-95831800D01*
X161281100Y-96581800D01*
X161581100Y-96581800D01*
X161581100Y-95831800D01*
G37*
G36*
X162081100Y-95831800D02*
G01*
X161781100Y-95831800D01*
X161781100Y-96581800D01*
X162081100Y-96581800D01*
X162081100Y-95831800D01*
G37*
G36*
X162581100Y-95831800D02*
G01*
X162281100Y-95831800D01*
X162281100Y-96581800D01*
X162581100Y-96581800D01*
X162581100Y-95831800D01*
G37*
G36*
X163581100Y-95831800D02*
G01*
X163281100Y-95831800D01*
X163281100Y-96581800D01*
X163581100Y-96581800D01*
X163581100Y-95831800D01*
G37*
G36*
X163081100Y-95831800D02*
G01*
X162781100Y-95831800D01*
X162781100Y-96581800D01*
X163081100Y-96581800D01*
X163081100Y-95831800D01*
G37*
G36*
X164081100Y-95831800D02*
G01*
X163781100Y-95831800D01*
X163781100Y-96581800D01*
X164081100Y-96581800D01*
X164081100Y-95831800D01*
G37*
G36*
X164581100Y-95831800D02*
G01*
X164281100Y-95831800D01*
X164281100Y-96581800D01*
X164581100Y-96581800D01*
X164581100Y-95831800D01*
G37*
G36*
X165081100Y-95831800D02*
G01*
X164781100Y-95831800D01*
X164781100Y-96581800D01*
X165081100Y-96581800D01*
X165081100Y-95831800D01*
G37*
G36*
X165581100Y-95831800D02*
G01*
X165281100Y-95831800D01*
X165281100Y-96581800D01*
X165581100Y-96581800D01*
X165581100Y-95831800D01*
G37*
G36*
X166081100Y-95831800D02*
G01*
X165781100Y-95831800D01*
X165781100Y-96581800D01*
X166081100Y-96581800D01*
X166081100Y-95831800D01*
G37*
G36*
X167431100Y-97181800D02*
G01*
X166681100Y-97181800D01*
X166681100Y-97481800D01*
X167431100Y-97481800D01*
X167431100Y-97181800D01*
G37*
G36*
X167431100Y-97181800D02*
G01*
X166681100Y-97181800D01*
X166681100Y-97481800D01*
X167431100Y-97481800D01*
X167431100Y-97181800D01*
G37*
G36*
X167431100Y-97681800D02*
G01*
X166681100Y-97681800D01*
X166681100Y-97981800D01*
X167431100Y-97981800D01*
X167431100Y-97681800D01*
G37*
G36*
X167431100Y-98181800D02*
G01*
X166681100Y-98181800D01*
X166681100Y-98481800D01*
X167431100Y-98481800D01*
X167431100Y-98181800D01*
G37*
G36*
X167431100Y-98681800D02*
G01*
X166681100Y-98681800D01*
X166681100Y-98981800D01*
X167431100Y-98981800D01*
X167431100Y-98681800D01*
G37*
G36*
X167431100Y-99181800D02*
G01*
X166681100Y-99181800D01*
X166681100Y-99481800D01*
X167431100Y-99481800D01*
X167431100Y-99181800D01*
G37*
G36*
X167431100Y-99681800D02*
G01*
X166681100Y-99681800D01*
X166681100Y-99981800D01*
X167431100Y-99981800D01*
X167431100Y-99681800D01*
G37*
G36*
X167431100Y-100181800D02*
G01*
X166681100Y-100181800D01*
X166681100Y-100481800D01*
X167431100Y-100481800D01*
X167431100Y-100181800D01*
G37*
G36*
X167431100Y-100681800D02*
G01*
X166681100Y-100681800D01*
X166681100Y-100981800D01*
X167431100Y-100981800D01*
X167431100Y-100681800D01*
G37*
G36*
X167431100Y-101181800D02*
G01*
X166681100Y-101181800D01*
X166681100Y-101481800D01*
X167431100Y-101481800D01*
X167431100Y-101181800D01*
G37*
G36*
X167431100Y-101681800D02*
G01*
X166681100Y-101681800D01*
X166681100Y-101981800D01*
X167431100Y-101981800D01*
X167431100Y-101681800D01*
G37*
G36*
X167431100Y-102181800D02*
G01*
X166681100Y-102181800D01*
X166681100Y-102481800D01*
X167431100Y-102481800D01*
X167431100Y-102181800D01*
G37*
G36*
X167431100Y-102681800D02*
G01*
X166681100Y-102681800D01*
X166681100Y-102981800D01*
X167431100Y-102981800D01*
X167431100Y-102681800D01*
G37*
%TO.C,C11*%
G36*
X161109800Y-112547400D02*
G01*
X161109800Y-113047500D01*
X162059800Y-113047500D01*
X162059800Y-112547400D01*
X161109800Y-112547400D01*
G37*
G36*
X161109800Y-111379000D02*
G01*
X161109800Y-111879100D01*
X162059800Y-111879100D01*
X162059800Y-111379000D01*
X161109800Y-111379000D01*
G37*
D12*
X161160700Y-111861200D02*
X161160700Y-112573200D01*
X162011700Y-111861200D02*
X162011700Y-112573200D01*
D10*
%TO.C,C5*%
G36*
X157749300Y-103292800D02*
G01*
X157749300Y-102792700D01*
X156799300Y-102792700D01*
X156799300Y-103292800D01*
X157749300Y-103292800D01*
G37*
G36*
X157749300Y-104461200D02*
G01*
X157749300Y-103961100D01*
X156799300Y-103961100D01*
X156799300Y-104461200D01*
X157749300Y-104461200D01*
G37*
D12*
X157698400Y-103979000D02*
X157698400Y-103267000D01*
X156847400Y-103979000D02*
X156847400Y-103267000D01*
D10*
%TO.C,C6*%
G36*
X171125100Y-103665900D02*
G01*
X170625000Y-103665900D01*
X170625000Y-104615900D01*
X171125100Y-104615900D01*
X171125100Y-103665900D01*
G37*
G36*
X172293500Y-103665900D02*
G01*
X171793400Y-103665900D01*
X171793400Y-104615900D01*
X172293500Y-104615900D01*
X172293500Y-103665900D01*
G37*
D12*
X171811300Y-103716800D02*
X171099300Y-103716800D01*
X171811300Y-104567800D02*
X171099300Y-104567800D01*
D10*
%TO.C,C9*%
G36*
X167141900Y-108144700D02*
G01*
X166641800Y-108144700D01*
X166641800Y-109094700D01*
X167141900Y-109094700D01*
X167141900Y-108144700D01*
G37*
G36*
X168310300Y-108144700D02*
G01*
X167810200Y-108144700D01*
X167810200Y-109094700D01*
X168310300Y-109094700D01*
X168310300Y-108144700D01*
G37*
D12*
X167828100Y-108195600D02*
X167116100Y-108195600D01*
X167828100Y-109046600D02*
X167116100Y-109046600D01*
D10*
%TO.C,C10*%
G36*
X170600300Y-109084500D02*
G01*
X171100400Y-109084500D01*
X171100400Y-108134500D01*
X170600300Y-108134500D01*
X170600300Y-109084500D01*
G37*
G36*
X169431900Y-109084500D02*
G01*
X169932000Y-109084500D01*
X169932000Y-108134500D01*
X169431900Y-108134500D01*
X169431900Y-109084500D01*
G37*
D12*
X169914100Y-109033600D02*
X170626100Y-109033600D01*
X169914100Y-108182600D02*
X170626100Y-108182600D01*
D10*
%TO.C,LED1*%
G36*
X138423100Y-113398600D02*
G01*
X138423100Y-113723600D01*
X138498100Y-113723600D01*
X138498100Y-113398600D01*
X138423100Y-113398600D01*
G37*
G36*
X137998100Y-113423600D02*
G01*
X137998100Y-113723600D01*
X138298100Y-113723600D01*
X138298100Y-113423600D01*
X137998100Y-113423600D01*
G37*
G36*
X136823100Y-113823600D02*
G01*
X136823100Y-114223600D01*
X136998100Y-114223600D01*
X136998100Y-113823600D01*
X136823100Y-113823600D01*
G37*
G36*
X136748100Y-113698600D02*
G01*
X136748100Y-113848600D01*
X136998100Y-113848600D01*
X136998100Y-113698600D01*
X136748100Y-113698600D01*
G37*
G36*
X136748100Y-114198600D02*
G01*
X136748100Y-114348600D01*
X136998100Y-114348600D01*
X136998100Y-114198600D01*
X136748100Y-114198600D01*
G37*
G36*
X136498100Y-113398600D02*
G01*
X136498100Y-113723600D01*
X136998100Y-113723600D01*
X136998100Y-113398600D01*
X136498100Y-113398600D01*
G37*
G36*
X136498100Y-114323600D02*
G01*
X136498100Y-114648600D01*
X136998100Y-114648600D01*
X136998100Y-114323600D01*
X136498100Y-114323600D01*
G37*
G36*
X137998100Y-113823600D02*
G01*
X137998100Y-114223600D01*
X138173100Y-114223600D01*
X138173100Y-113823600D01*
X137998100Y-113823600D01*
G37*
G36*
X137998100Y-114198600D02*
G01*
X137998100Y-114348600D01*
X138248100Y-114348600D01*
X138248100Y-114198600D01*
X137998100Y-114198600D01*
G37*
G36*
X137998100Y-113698600D02*
G01*
X137998100Y-113848600D01*
X138248100Y-113848600D01*
X138248100Y-113698600D01*
X137998100Y-113698600D01*
G37*
G36*
X137998100Y-114323600D02*
G01*
X137998100Y-114648600D01*
X138498100Y-114648600D01*
X138498100Y-114323600D01*
X137998100Y-114323600D01*
G37*
D12*
X136998100Y-113448600D02*
X138423100Y-113448600D01*
X138023100Y-114598600D02*
X136973100Y-114598600D01*
X136573102Y-114373600D02*
G75*
G03*
X136573100Y-113673600I-54201J350000D01*
G01*
X138423098Y-114373600D02*
G75*
G02*
X138423100Y-113673600I54201J350000D01*
G01*
X138451100Y-113573600D02*
G75*
G03*
X138451100Y-113573600I-103000J0D01*
G01*
D10*
%TO.C,RP_SCL1*%
G36*
X153791900Y-96850700D02*
G01*
X153291800Y-96850700D01*
X153291800Y-97800700D01*
X153791900Y-97800700D01*
X153791900Y-96850700D01*
G37*
G36*
X154960300Y-96850700D02*
G01*
X154460200Y-96850700D01*
X154460200Y-97800700D01*
X154960300Y-97800700D01*
X154960300Y-96850700D01*
G37*
D12*
X154478100Y-96901600D02*
X153766100Y-96901600D01*
X154478100Y-97752600D02*
X153766100Y-97752600D01*
D10*
%TO.C,RP_SDA1*%
G36*
X153066900Y-99922700D02*
G01*
X152566800Y-99922700D01*
X152566800Y-100872700D01*
X153066900Y-100872700D01*
X153066900Y-99922700D01*
G37*
G36*
X154235300Y-99922700D02*
G01*
X153735200Y-99922700D01*
X153735200Y-100872700D01*
X154235300Y-100872700D01*
X154235300Y-99922700D01*
G37*
D12*
X153753100Y-99973600D02*
X153041100Y-99973600D01*
X153753100Y-100824600D02*
X153041100Y-100824600D01*
D10*
%TO.C,C7*%
G36*
X128606500Y-106432100D02*
G01*
X129106600Y-106432100D01*
X129106600Y-105482100D01*
X128606500Y-105482100D01*
X128606500Y-106432100D01*
G37*
G36*
X127438100Y-106432100D02*
G01*
X127938200Y-106432100D01*
X127938200Y-105482100D01*
X127438100Y-105482100D01*
X127438100Y-106432100D01*
G37*
D12*
X127920300Y-106381200D02*
X128632300Y-106381200D01*
X127920300Y-105530200D02*
X128632300Y-105530200D01*
D10*
%TO.C,C1*%
G36*
X162733600Y-112521000D02*
G01*
X162733600Y-113021100D01*
X163683600Y-113021100D01*
X163683600Y-112521000D01*
X162733600Y-112521000D01*
G37*
G36*
X162733600Y-111352600D02*
G01*
X162733600Y-111852700D01*
X163683600Y-111852700D01*
X163683600Y-111352600D01*
X162733600Y-111352600D01*
G37*
D12*
X162784500Y-111834800D02*
X162784500Y-112546800D01*
X163635500Y-111834800D02*
X163635500Y-112546800D01*
D10*
%TO.C,R4*%
G36*
X137292900Y-117694700D02*
G01*
X136792800Y-117694700D01*
X136792800Y-118644700D01*
X137292900Y-118644700D01*
X137292900Y-117694700D01*
G37*
G36*
X138461300Y-117694700D02*
G01*
X137961200Y-117694700D01*
X137961200Y-118644700D01*
X138461300Y-118644700D01*
X138461300Y-117694700D01*
G37*
D12*
X137979100Y-117745600D02*
X137267100Y-117745600D01*
X137979100Y-118596600D02*
X137267100Y-118596600D01*
D10*
%TO.C,C2*%
G36*
X164615300Y-94047500D02*
G01*
X165115400Y-94047500D01*
X165115400Y-93097500D01*
X164615300Y-93097500D01*
X164615300Y-94047500D01*
G37*
G36*
X163446900Y-94047500D02*
G01*
X163947000Y-94047500D01*
X163947000Y-93097500D01*
X163446900Y-93097500D01*
X163446900Y-94047500D01*
G37*
D12*
X163929100Y-93996600D02*
X164641100Y-93996600D01*
X163929100Y-93145600D02*
X164641100Y-93145600D01*
D10*
%TO.C,C3*%
G36*
X165222300Y-89188500D02*
G01*
X165722400Y-89188500D01*
X165722400Y-88238500D01*
X165222300Y-88238500D01*
X165222300Y-89188500D01*
G37*
G36*
X164053900Y-89188500D02*
G01*
X164554000Y-89188500D01*
X164554000Y-88238500D01*
X164053900Y-88238500D01*
X164053900Y-89188500D01*
G37*
D12*
X164536100Y-89137600D02*
X165248100Y-89137600D01*
X164536100Y-88286600D02*
X165248100Y-88286600D01*
D10*
%TO.C,CREF1*%
G36*
X163034100Y-87485600D02*
G01*
X163684100Y-87485600D01*
X163684100Y-85985600D01*
X163034100Y-85985600D01*
X163034100Y-87485600D01*
G37*
G36*
X166084100Y-86135600D02*
G01*
X165884100Y-86135600D01*
X165884100Y-87335600D01*
X166084100Y-87335600D01*
X166084100Y-86135600D01*
G37*
G36*
X162884100Y-87335600D02*
G01*
X163084100Y-87335600D01*
X163084100Y-86135600D01*
X162884100Y-86135600D01*
X162884100Y-87335600D01*
G37*
D12*
X163034100Y-87485600D02*
X163034100Y-85985600D01*
X165934100Y-87485600D02*
X163034100Y-87485600D01*
X165934100Y-85985600D02*
X165934100Y-87485600D01*
X163034100Y-85985600D02*
X165934100Y-85985600D01*
D10*
%TO.C,R2*%
G36*
X156067200Y-111992800D02*
G01*
X156067200Y-112492900D01*
X157017200Y-112492900D01*
X157017200Y-111992800D01*
X156067200Y-111992800D01*
G37*
G36*
X156067200Y-110824400D02*
G01*
X156067200Y-111324500D01*
X157017200Y-111324500D01*
X157017200Y-110824400D01*
X156067200Y-110824400D01*
G37*
D12*
X156118100Y-111306600D02*
X156118100Y-112018600D01*
X156969100Y-111306600D02*
X156969100Y-112018600D01*
D10*
%TO.C,C8*%
G36*
X158191200Y-111992800D02*
G01*
X158191200Y-112492900D01*
X159141200Y-112492900D01*
X159141200Y-111992800D01*
X158191200Y-111992800D01*
G37*
G36*
X158191200Y-110824400D02*
G01*
X158191200Y-111324500D01*
X159141200Y-111324500D01*
X159141200Y-110824400D01*
X158191200Y-110824400D01*
G37*
D12*
X158242100Y-111306600D02*
X158242100Y-112018600D01*
X159093100Y-111306600D02*
X159093100Y-112018600D01*
D13*
%TO.C,ICSP10*%
X178473100Y-111006600D02*
X178473100Y-111260600D01*
X178600100Y-111006600D02*
X178473100Y-111006600D01*
X178600100Y-111260600D02*
X178600100Y-111006600D01*
X178473100Y-111260600D02*
X178600100Y-111260600D01*
X178346100Y-111260600D02*
X178473100Y-111260600D01*
X178346100Y-111006600D02*
X178346100Y-111260600D01*
X178727100Y-110879600D02*
X178219100Y-110879600D01*
X178727100Y-111387600D02*
X178727100Y-110879600D01*
X178219100Y-111387600D02*
X178727100Y-111387600D01*
X178219100Y-110879600D02*
X178219100Y-111387600D01*
X178092100Y-111514600D02*
X178092100Y-110752600D01*
X178854100Y-111514600D02*
X178092100Y-111514600D01*
X178854100Y-110752600D02*
X178854100Y-111514600D01*
X178092100Y-110752600D02*
X178854100Y-110752600D01*
X177838100Y-116848600D02*
X177838100Y-110498600D01*
X180378100Y-116848600D02*
X177838100Y-116848600D01*
X180378100Y-110498600D02*
X180378100Y-116848600D01*
X177838100Y-110498600D02*
X180378100Y-110498600D01*
D10*
%TO.C,R1*%
G36*
X141527300Y-114498500D02*
G01*
X142027400Y-114498500D01*
X142027400Y-113548500D01*
X141527300Y-113548500D01*
X141527300Y-114498500D01*
G37*
G36*
X140358900Y-114498500D02*
G01*
X140859000Y-114498500D01*
X140859000Y-113548500D01*
X140358900Y-113548500D01*
X140358900Y-114498500D01*
G37*
D12*
X140841100Y-114447600D02*
X141553100Y-114447600D01*
X140841100Y-113596600D02*
X141553100Y-113596600D01*
D10*
%TO.C,RP_INT1*%
G36*
X153268900Y-89641700D02*
G01*
X152768800Y-89641700D01*
X152768800Y-90591700D01*
X153268900Y-90591700D01*
X153268900Y-89641700D01*
G37*
G36*
X154437300Y-89641700D02*
G01*
X153937200Y-89641700D01*
X153937200Y-90591700D01*
X154437300Y-90591700D01*
X154437300Y-89641700D01*
G37*
D12*
X153955100Y-89692600D02*
X153243100Y-89692600D01*
X153955100Y-90543600D02*
X153243100Y-90543600D01*
D14*
%TO.C,USB1*%
X114615100Y-104035600D02*
X116015100Y-104035600D01*
X114615100Y-111635600D02*
X116015100Y-111635600D01*
X114615100Y-104035600D02*
X114615100Y-111635600D01*
D10*
%TO.C,VDIV2*%
G36*
X162127900Y-125110700D02*
G01*
X161627800Y-125110700D01*
X161627800Y-126060700D01*
X162127900Y-126060700D01*
X162127900Y-125110700D01*
G37*
G36*
X163296300Y-125110700D02*
G01*
X162796200Y-125110700D01*
X162796200Y-126060700D01*
X163296300Y-126060700D01*
X163296300Y-125110700D01*
G37*
D12*
X162814100Y-125161600D02*
X162102100Y-125161600D01*
X162814100Y-126012600D02*
X162102100Y-126012600D01*
D10*
%TO.C,VDIV1*%
G36*
X162821300Y-127541500D02*
G01*
X163321400Y-127541500D01*
X163321400Y-126591500D01*
X162821300Y-126591500D01*
X162821300Y-127541500D01*
G37*
G36*
X161652900Y-127541500D02*
G01*
X162153000Y-127541500D01*
X162153000Y-126591500D01*
X161652900Y-126591500D01*
X161652900Y-127541500D01*
G37*
D12*
X162135100Y-127490600D02*
X162847100Y-127490600D01*
X162135100Y-126639600D02*
X162847100Y-126639600D01*
D10*
%TO.C,T_SD1*%
G36*
X148486700Y-102842000D02*
G01*
X148943900Y-102842000D01*
X148943900Y-102257800D01*
X148486700Y-102257800D01*
X148486700Y-102842000D01*
G37*
G36*
X150366300Y-102842000D02*
G01*
X150823500Y-102842000D01*
X150823500Y-102257800D01*
X150366300Y-102257800D01*
X150366300Y-102842000D01*
G37*
G36*
X149426500Y-100835400D02*
G01*
X149883700Y-100835400D01*
X149883700Y-100251200D01*
X149426500Y-100251200D01*
X149426500Y-100835400D01*
G37*
D11*
X148232700Y-100886200D02*
X151077500Y-100886200D01*
X148232700Y-102207000D02*
X148232700Y-100886200D01*
X151077500Y-102207000D02*
X148232700Y-102207000D01*
X151077500Y-100886200D02*
X151077500Y-102207000D01*
D10*
%TO.C,MEM1*%
G36*
X175755300Y-89009400D02*
G01*
X176110900Y-89009400D01*
X176110900Y-87993400D01*
X175755300Y-87993400D01*
X175755300Y-89009400D01*
G37*
G36*
X174485300Y-89009400D02*
G01*
X174840900Y-89009400D01*
X174840900Y-87993400D01*
X174485300Y-87993400D01*
X174485300Y-89009400D01*
G37*
G36*
X173215300Y-89009400D02*
G01*
X173570900Y-89009400D01*
X173570900Y-87993400D01*
X173215300Y-87993400D01*
X173215300Y-89009400D01*
G37*
G36*
X171945300Y-89009400D02*
G01*
X172300900Y-89009400D01*
X172300900Y-87993400D01*
X171945300Y-87993400D01*
X171945300Y-89009400D01*
G37*
G36*
X175755300Y-93733800D02*
G01*
X176110900Y-93733800D01*
X176110900Y-92717800D01*
X175755300Y-92717800D01*
X175755300Y-93733800D01*
G37*
G36*
X174485300Y-93733800D02*
G01*
X174840900Y-93733800D01*
X174840900Y-92717800D01*
X174485300Y-92717800D01*
X174485300Y-93733800D01*
G37*
G36*
X173215300Y-93733800D02*
G01*
X173570900Y-93733800D01*
X173570900Y-92717800D01*
X173215300Y-92717800D01*
X173215300Y-93733800D01*
G37*
G36*
X171945300Y-93733800D02*
G01*
X172300900Y-93733800D01*
X172300900Y-92717800D01*
X171945300Y-92717800D01*
X171945300Y-93733800D01*
G37*
D11*
X176390100Y-89060600D02*
X171666100Y-89060600D01*
X171666100Y-92666600D02*
X176390100Y-92666600D01*
D10*
%TO.C,Q1*%
G36*
X126228100Y-115584600D02*
G01*
X125753100Y-115584600D01*
X125753100Y-116181200D01*
X126228100Y-116181200D01*
X126228100Y-115584600D01*
G37*
G36*
X126678100Y-118084600D02*
G01*
X127178100Y-118084600D01*
X127178100Y-117488000D01*
X126678100Y-117488000D01*
X126678100Y-118084600D01*
G37*
G36*
X124828100Y-118084600D02*
G01*
X125328100Y-118084600D01*
X125328100Y-117488000D01*
X124828100Y-117488000D01*
X124828100Y-118084600D01*
G37*
%TO.C,C5V1*%
G36*
X155466700Y-117397500D02*
G01*
X156216800Y-117397500D01*
X156216800Y-115947400D01*
X155466700Y-115947400D01*
X155466700Y-117397500D01*
G37*
G36*
X154018900Y-117397500D02*
G01*
X154769000Y-117397500D01*
X154769000Y-115947400D01*
X154018900Y-115947400D01*
X154018900Y-117397500D01*
G37*
D12*
X154755100Y-117333600D02*
X155492100Y-117333600D01*
X154730100Y-116013600D02*
X155492100Y-116013600D01*
D10*
%TO.C,C3.3V1*%
G36*
X160055500Y-115949700D02*
G01*
X159305400Y-115949700D01*
X159305400Y-117399800D01*
X160055500Y-117399800D01*
X160055500Y-115949700D01*
G37*
G36*
X161503300Y-115949700D02*
G01*
X160753200Y-115949700D01*
X160753200Y-117399800D01*
X161503300Y-117399800D01*
X161503300Y-115949700D01*
G37*
D12*
X160767100Y-116013600D02*
X160030100Y-116013600D01*
X160792100Y-117333600D02*
X160030100Y-117333600D01*
D10*
%TO.C,RFA1*%
G36*
X145511100Y-85983500D02*
G01*
X145511100Y-86473700D01*
X146611200Y-86473700D01*
X146611200Y-85983500D01*
X145511100Y-85983500D01*
G37*
G36*
X145511100Y-87253500D02*
G01*
X145511100Y-87743700D01*
X146611200Y-87743700D01*
X146611200Y-87253500D01*
X145511100Y-87253500D01*
G37*
G36*
X145511100Y-93603500D02*
G01*
X145511100Y-94093700D01*
X146611200Y-94093700D01*
X146611200Y-93603500D01*
X145511100Y-93603500D01*
G37*
G36*
X145511100Y-94873500D02*
G01*
X145511100Y-95363700D01*
X146611200Y-95363700D01*
X146611200Y-94873500D01*
X145511100Y-94873500D01*
G37*
G36*
X140411000Y-94873500D02*
G01*
X140411000Y-95363700D01*
X141511100Y-95363700D01*
X141511100Y-94873500D01*
X140411000Y-94873500D01*
G37*
G36*
X140411000Y-93603500D02*
G01*
X140411000Y-94093700D01*
X141511100Y-94093700D01*
X141511100Y-93603500D01*
X140411000Y-93603500D01*
G37*
G36*
X140411000Y-92333500D02*
G01*
X140411000Y-92823700D01*
X141511100Y-92823700D01*
X141511100Y-92333500D01*
X140411000Y-92333500D01*
G37*
G36*
X140411000Y-91063500D02*
G01*
X140411000Y-91553700D01*
X141511100Y-91553700D01*
X141511100Y-91063500D01*
X140411000Y-91063500D01*
G37*
G36*
X145511100Y-88523500D02*
G01*
X145511100Y-89013700D01*
X146611200Y-89013700D01*
X146611200Y-88523500D01*
X145511100Y-88523500D01*
G37*
G36*
X145511100Y-89793500D02*
G01*
X145511100Y-90283700D01*
X146611200Y-90283700D01*
X146611200Y-89793500D01*
X145511100Y-89793500D01*
G37*
G36*
X145511100Y-91063500D02*
G01*
X145511100Y-91553700D01*
X146611200Y-91553700D01*
X146611200Y-91063500D01*
X145511100Y-91063500D01*
G37*
G36*
X145511100Y-92333500D02*
G01*
X145511100Y-92823700D01*
X146611200Y-92823700D01*
X146611200Y-92333500D01*
X145511100Y-92333500D01*
G37*
G36*
X140411000Y-89793500D02*
G01*
X140411000Y-90283700D01*
X141511100Y-90283700D01*
X141511100Y-89793500D01*
X140411000Y-89793500D01*
G37*
G36*
X140411000Y-88523500D02*
G01*
X140411000Y-89013700D01*
X141511100Y-89013700D01*
X141511100Y-88523500D01*
X140411000Y-88523500D01*
G37*
G36*
X140411000Y-87253500D02*
G01*
X140411000Y-87743700D01*
X141511100Y-87743700D01*
X141511100Y-87253500D01*
X140411000Y-87253500D01*
G37*
G36*
X140411000Y-85983500D02*
G01*
X140411000Y-86473700D01*
X141511100Y-86473700D01*
X141511100Y-85983500D01*
X140411000Y-85983500D01*
G37*
D14*
X142111100Y-95613600D02*
X141611100Y-95613600D01*
X145411100Y-95613600D02*
X142111100Y-95613600D01*
X142111100Y-95613600D02*
X142111100Y-85733600D01*
X145411100Y-85733600D02*
X145411100Y-95613600D01*
X142111100Y-85733600D02*
X145411100Y-85733600D01*
X141611100Y-85733600D02*
X142111100Y-85733600D01*
X141611100Y-95613600D02*
X141611100Y-85733600D01*
D10*
%TO.C,CFCAPA1*%
G36*
X145841300Y-85143500D02*
G01*
X146341400Y-85143500D01*
X146341400Y-84193500D01*
X145841300Y-84193500D01*
X145841300Y-85143500D01*
G37*
G36*
X144672900Y-85143500D02*
G01*
X145173000Y-85143500D01*
X145173000Y-84193500D01*
X144672900Y-84193500D01*
X144672900Y-85143500D01*
G37*
D12*
X145155100Y-85092600D02*
X145867100Y-85092600D01*
X145155100Y-84241600D02*
X145867100Y-84241600D01*
D10*
%TO.C,CDC2*%
G36*
X147741200Y-88903800D02*
G01*
X147741200Y-89403900D01*
X148691200Y-89403900D01*
X148691200Y-88903800D01*
X147741200Y-88903800D01*
G37*
G36*
X147741200Y-87735400D02*
G01*
X147741200Y-88235500D01*
X148691200Y-88235500D01*
X148691200Y-87735400D01*
X147741200Y-87735400D01*
G37*
D12*
X147792100Y-88217600D02*
X147792100Y-88929600D01*
X148643100Y-88217600D02*
X148643100Y-88929600D01*
D10*
%TO.C,CDECA1*%
G36*
X147741200Y-95103800D02*
G01*
X147741200Y-95603900D01*
X148691200Y-95603900D01*
X148691200Y-95103800D01*
X147741200Y-95103800D01*
G37*
G36*
X147741200Y-93935400D02*
G01*
X147741200Y-94435500D01*
X148691200Y-94435500D01*
X148691200Y-93935400D01*
X147741200Y-93935400D01*
G37*
D12*
X147792100Y-94417600D02*
X147792100Y-95129600D01*
X148643100Y-94417600D02*
X148643100Y-95129600D01*
D10*
%TO.C,CAGNDA1*%
G36*
X148681000Y-91343400D02*
G01*
X148681000Y-90843300D01*
X147731000Y-90843300D01*
X147731000Y-91343400D01*
X148681000Y-91343400D01*
G37*
G36*
X148681000Y-92511800D02*
G01*
X148681000Y-92011700D01*
X147731000Y-92011700D01*
X147731000Y-92511800D01*
X148681000Y-92511800D01*
G37*
D12*
X148630100Y-92029600D02*
X148630100Y-91317600D01*
X147779100Y-92029600D02*
X147779100Y-91317600D01*
D10*
%TO.C,CRES1A1*%
G36*
X137380900Y-94103700D02*
G01*
X136880800Y-94103700D01*
X136880800Y-95053700D01*
X137380900Y-95053700D01*
X137380900Y-94103700D01*
G37*
G36*
X138549300Y-94103700D02*
G01*
X138049200Y-94103700D01*
X138049200Y-95053700D01*
X138549300Y-95053700D01*
X138549300Y-94103700D01*
G37*
D12*
X138067100Y-94154600D02*
X137355100Y-94154600D01*
X138067100Y-95005600D02*
X137355100Y-95005600D01*
D10*
%TO.C,CDIV1A1*%
G36*
X138041300Y-98043500D02*
G01*
X138541400Y-98043500D01*
X138541400Y-97093500D01*
X138041300Y-97093500D01*
X138041300Y-98043500D01*
G37*
G36*
X136872900Y-98043500D02*
G01*
X137373000Y-98043500D01*
X137373000Y-97093500D01*
X136872900Y-97093500D01*
X136872900Y-98043500D01*
G37*
D12*
X137355100Y-97992600D02*
X138067100Y-97992600D01*
X137355100Y-97141600D02*
X138067100Y-97141600D01*
D10*
%TO.C,CDIV2A1*%
G36*
X141041300Y-98043500D02*
G01*
X141541400Y-98043500D01*
X141541400Y-97093500D01*
X141041300Y-97093500D01*
X141041300Y-98043500D01*
G37*
G36*
X139872900Y-98043500D02*
G01*
X140373000Y-98043500D01*
X140373000Y-97093500D01*
X139872900Y-97093500D01*
X139872900Y-98043500D01*
G37*
D12*
X140355100Y-97992600D02*
X141067100Y-97992600D01*
X140355100Y-97141600D02*
X141067100Y-97141600D01*
D10*
%TO.C,RAA1*%
G36*
X137887200Y-85329200D02*
G01*
X137887200Y-86079300D01*
X139337300Y-86079300D01*
X139337300Y-85329200D01*
X137887200Y-85329200D01*
G37*
G36*
X137887200Y-83881400D02*
G01*
X137887200Y-84631500D01*
X139337300Y-84631500D01*
X139337300Y-83881400D01*
X137887200Y-83881400D01*
G37*
D12*
X137951100Y-84617600D02*
X137951100Y-85354600D01*
X139271100Y-84592600D02*
X139271100Y-85354600D01*
D10*
%TO.C,CBLKA1*%
G36*
X150181000Y-92243400D02*
G01*
X150181000Y-91743300D01*
X149231000Y-91743300D01*
X149231000Y-92243400D01*
X150181000Y-92243400D01*
G37*
G36*
X150181000Y-93411800D02*
G01*
X150181000Y-92911700D01*
X149231000Y-92911700D01*
X149231000Y-93411800D01*
X150181000Y-93411800D01*
G37*
D12*
X150130100Y-92929600D02*
X150130100Y-92217600D01*
X149279100Y-92929600D02*
X149279100Y-92217600D01*
D10*
%TO.C,CE2*%
G36*
X152727100Y-93819600D02*
G01*
X152727100Y-93311600D01*
X150695100Y-93311600D01*
X150695100Y-93819600D01*
X152727100Y-93819600D01*
G37*
D11*
X151711100Y-93438600D02*
X151711100Y-92549600D01*
X150695100Y-94835600D02*
X151711100Y-94835600D01*
X150695100Y-94327600D02*
X150695100Y-94835600D01*
X152727100Y-94327600D02*
X150695100Y-94327600D01*
X152727100Y-94835600D02*
X152727100Y-94327600D01*
X151711100Y-94835600D02*
X152727100Y-94835600D01*
X151711100Y-95597600D02*
X151711100Y-94835600D01*
D15*
%TO.C,RTC1*%
X152811100Y-88873600D02*
X150411100Y-88873600D01*
X152811100Y-85273600D02*
X152811100Y-88873600D01*
X150411100Y-85273600D02*
X152811100Y-85273600D01*
X150411100Y-88873600D02*
X150411100Y-85273600D01*
D10*
%TO.C,JPA1*%
G36*
X125727100Y-81427600D02*
G01*
X126235100Y-81427600D01*
X126235100Y-80919600D01*
X125727100Y-80919600D01*
X125727100Y-81427600D01*
G37*
G36*
X123187100Y-81427600D02*
G01*
X123695100Y-81427600D01*
X123695100Y-80919600D01*
X123187100Y-80919600D01*
X123187100Y-81427600D01*
G37*
%TO.C,RFB1*%
G36*
X127611100Y-89683500D02*
G01*
X127611100Y-90173700D01*
X128711200Y-90173700D01*
X128711200Y-89683500D01*
X127611100Y-89683500D01*
G37*
G36*
X127611100Y-90953500D02*
G01*
X127611100Y-91443700D01*
X128711200Y-91443700D01*
X128711200Y-90953500D01*
X127611100Y-90953500D01*
G37*
G36*
X127611100Y-97303500D02*
G01*
X127611100Y-97793700D01*
X128711200Y-97793700D01*
X128711200Y-97303500D01*
X127611100Y-97303500D01*
G37*
G36*
X127611100Y-98573500D02*
G01*
X127611100Y-99063700D01*
X128711200Y-99063700D01*
X128711200Y-98573500D01*
X127611100Y-98573500D01*
G37*
G36*
X122511000Y-98573500D02*
G01*
X122511000Y-99063700D01*
X123611100Y-99063700D01*
X123611100Y-98573500D01*
X122511000Y-98573500D01*
G37*
G36*
X122511000Y-97303500D02*
G01*
X122511000Y-97793700D01*
X123611100Y-97793700D01*
X123611100Y-97303500D01*
X122511000Y-97303500D01*
G37*
G36*
X122511000Y-96033500D02*
G01*
X122511000Y-96523700D01*
X123611100Y-96523700D01*
X123611100Y-96033500D01*
X122511000Y-96033500D01*
G37*
G36*
X122511000Y-94763500D02*
G01*
X122511000Y-95253700D01*
X123611100Y-95253700D01*
X123611100Y-94763500D01*
X122511000Y-94763500D01*
G37*
G36*
X127611100Y-92223500D02*
G01*
X127611100Y-92713700D01*
X128711200Y-92713700D01*
X128711200Y-92223500D01*
X127611100Y-92223500D01*
G37*
G36*
X127611100Y-93493500D02*
G01*
X127611100Y-93983700D01*
X128711200Y-93983700D01*
X128711200Y-93493500D01*
X127611100Y-93493500D01*
G37*
G36*
X127611100Y-94763500D02*
G01*
X127611100Y-95253700D01*
X128711200Y-95253700D01*
X128711200Y-94763500D01*
X127611100Y-94763500D01*
G37*
G36*
X127611100Y-96033500D02*
G01*
X127611100Y-96523700D01*
X128711200Y-96523700D01*
X128711200Y-96033500D01*
X127611100Y-96033500D01*
G37*
G36*
X122511000Y-93493500D02*
G01*
X122511000Y-93983700D01*
X123611100Y-93983700D01*
X123611100Y-93493500D01*
X122511000Y-93493500D01*
G37*
G36*
X122511000Y-92223500D02*
G01*
X122511000Y-92713700D01*
X123611100Y-92713700D01*
X123611100Y-92223500D01*
X122511000Y-92223500D01*
G37*
G36*
X122511000Y-90953500D02*
G01*
X122511000Y-91443700D01*
X123611100Y-91443700D01*
X123611100Y-90953500D01*
X122511000Y-90953500D01*
G37*
G36*
X122511000Y-89683500D02*
G01*
X122511000Y-90173700D01*
X123611100Y-90173700D01*
X123611100Y-89683500D01*
X122511000Y-89683500D01*
G37*
D14*
X124211100Y-99313600D02*
X123711100Y-99313600D01*
X127511100Y-99313600D02*
X124211100Y-99313600D01*
X124211100Y-99313600D02*
X124211100Y-89433600D01*
X127511100Y-89433600D02*
X127511100Y-99313600D01*
X124211100Y-89433600D02*
X127511100Y-89433600D01*
X123711100Y-89433600D02*
X124211100Y-89433600D01*
X123711100Y-99313600D02*
X123711100Y-89433600D01*
D10*
%TO.C,CFCAPB1*%
G36*
X129941200Y-92603800D02*
G01*
X129941200Y-93103900D01*
X130891200Y-93103900D01*
X130891200Y-92603800D01*
X129941200Y-92603800D01*
G37*
G36*
X129941200Y-91435400D02*
G01*
X129941200Y-91935500D01*
X130891200Y-91935500D01*
X130891200Y-91435400D01*
X129941200Y-91435400D01*
G37*
D12*
X129992100Y-91917600D02*
X129992100Y-92629600D01*
X130843100Y-91917600D02*
X130843100Y-92629600D01*
D10*
%TO.C,CDCB1*%
G36*
X131541200Y-92603800D02*
G01*
X131541200Y-93103900D01*
X132491200Y-93103900D01*
X132491200Y-92603800D01*
X131541200Y-92603800D01*
G37*
G36*
X131541200Y-91435400D02*
G01*
X131541200Y-91935500D01*
X132491200Y-91935500D01*
X132491200Y-91435400D01*
X131541200Y-91435400D01*
G37*
D12*
X131592100Y-91917600D02*
X131592100Y-92629600D01*
X132443100Y-91917600D02*
X132443100Y-92629600D01*
D10*
%TO.C,CDECB1*%
G36*
X130341200Y-99303800D02*
G01*
X130341200Y-99803900D01*
X131291200Y-99803900D01*
X131291200Y-99303800D01*
X130341200Y-99303800D01*
G37*
G36*
X130341200Y-98135400D02*
G01*
X130341200Y-98635500D01*
X131291200Y-98635500D01*
X131291200Y-98135400D01*
X130341200Y-98135400D01*
G37*
D12*
X130392100Y-98617600D02*
X130392100Y-99329600D01*
X131243100Y-98617600D02*
X131243100Y-99329600D01*
D10*
%TO.C,CAGNDB1*%
G36*
X130881000Y-95543400D02*
G01*
X130881000Y-95043300D01*
X129931000Y-95043300D01*
X129931000Y-95543400D01*
X130881000Y-95543400D01*
G37*
G36*
X130881000Y-96711800D02*
G01*
X130881000Y-96211700D01*
X129931000Y-96211700D01*
X129931000Y-96711800D01*
X130881000Y-96711800D01*
G37*
D12*
X130830100Y-96229600D02*
X130830100Y-95517600D01*
X129979100Y-96229600D02*
X129979100Y-95517600D01*
D10*
%TO.C,CRES1B1*%
G36*
X119280900Y-97203700D02*
G01*
X118780800Y-97203700D01*
X118780800Y-98153700D01*
X119280900Y-98153700D01*
X119280900Y-97203700D01*
G37*
G36*
X120449300Y-97203700D02*
G01*
X119949200Y-97203700D01*
X119949200Y-98153700D01*
X120449300Y-98153700D01*
X120449300Y-97203700D01*
G37*
D12*
X119967100Y-97254600D02*
X119255100Y-97254600D01*
X119967100Y-98105600D02*
X119255100Y-98105600D01*
D10*
%TO.C,CDIV1B1*%
G36*
X119941300Y-101143500D02*
G01*
X120441400Y-101143500D01*
X120441400Y-100193500D01*
X119941300Y-100193500D01*
X119941300Y-101143500D01*
G37*
G36*
X118772900Y-101143500D02*
G01*
X119273000Y-101143500D01*
X119273000Y-100193500D01*
X118772900Y-100193500D01*
X118772900Y-101143500D01*
G37*
D12*
X119255100Y-101092600D02*
X119967100Y-101092600D01*
X119255100Y-100241600D02*
X119967100Y-100241600D01*
D10*
%TO.C,CDIV2B1*%
G36*
X123041300Y-101143500D02*
G01*
X123541400Y-101143500D01*
X123541400Y-100193500D01*
X123041300Y-100193500D01*
X123041300Y-101143500D01*
G37*
G36*
X121872900Y-101143500D02*
G01*
X122373000Y-101143500D01*
X122373000Y-100193500D01*
X121872900Y-100193500D01*
X121872900Y-101143500D01*
G37*
D12*
X122355100Y-101092600D02*
X123067100Y-101092600D01*
X122355100Y-100241600D02*
X123067100Y-100241600D01*
D10*
%TO.C,RAB1*%
G36*
X119912600Y-88806800D02*
G01*
X119912600Y-89456800D01*
X121312600Y-89456800D01*
X121312600Y-88806800D01*
X119912600Y-88806800D01*
G37*
G36*
X119912600Y-90280000D02*
G01*
X119912600Y-90930000D01*
X121312600Y-90930000D01*
X121312600Y-90280000D01*
X119912600Y-90280000D01*
G37*
D11*
X119976100Y-89463600D02*
X119976100Y-90283600D01*
X121246100Y-89463600D02*
X121246100Y-90283600D01*
D10*
%TO.C,CBLKB1*%
G36*
X133081000Y-96943400D02*
G01*
X133081000Y-96443300D01*
X132131000Y-96443300D01*
X132131000Y-96943400D01*
X133081000Y-96943400D01*
G37*
G36*
X133081000Y-98111800D02*
G01*
X133081000Y-97611700D01*
X132131000Y-97611700D01*
X132131000Y-98111800D01*
X133081000Y-98111800D01*
G37*
D12*
X133030100Y-97629600D02*
X133030100Y-96917600D01*
X132179100Y-97629600D02*
X132179100Y-96917600D01*
D10*
%TO.C,CE1*%
G36*
X129665100Y-86889600D02*
G01*
X130173100Y-86889600D01*
X130173100Y-84857600D01*
X129665100Y-84857600D01*
X129665100Y-86889600D01*
G37*
D11*
X130046100Y-85873600D02*
X130935100Y-85873600D01*
X128649100Y-84857600D02*
X128649100Y-85873600D01*
X129157100Y-84857600D02*
X128649100Y-84857600D01*
X129157100Y-86889600D02*
X129157100Y-84857600D01*
X128649100Y-86889600D02*
X129157100Y-86889600D01*
X128649100Y-85873600D02*
X128649100Y-86889600D01*
X127887100Y-85873600D02*
X128649100Y-85873600D01*
D10*
%TO.C,JPB1*%
G36*
X120647100Y-81427600D02*
G01*
X121155100Y-81427600D01*
X121155100Y-80919600D01*
X120647100Y-80919600D01*
X120647100Y-81427600D01*
G37*
G36*
X118107100Y-81427600D02*
G01*
X118615100Y-81427600D01*
X118615100Y-80919600D01*
X118107100Y-80919600D01*
X118107100Y-81427600D01*
G37*
%TO.C,JP_PWR1*%
G36*
X119865100Y-115957600D02*
G01*
X119865100Y-115449600D01*
X119357100Y-115449600D01*
X119357100Y-115957600D01*
X119865100Y-115957600D01*
G37*
G36*
X119865100Y-118497600D02*
G01*
X119865100Y-117989600D01*
X119357100Y-117989600D01*
X119357100Y-118497600D01*
X119865100Y-118497600D01*
G37*
%TO.C,CE3*%
G36*
X143895100Y-103427600D02*
G01*
X143895100Y-103935600D01*
X145927100Y-103935600D01*
X145927100Y-103427600D01*
X143895100Y-103427600D01*
G37*
D11*
X144911100Y-103808600D02*
X144911100Y-104697600D01*
X145927100Y-102411600D02*
X144911100Y-102411600D01*
X145927100Y-102919600D02*
X145927100Y-102411600D01*
X143895100Y-102919600D02*
X145927100Y-102919600D01*
X143895100Y-102411600D02*
X143895100Y-102919600D01*
X144911100Y-102411600D02*
X143895100Y-102411600D01*
X144911100Y-101649600D02*
X144911100Y-102411600D01*
D10*
%TO.C,CXB1*%
G36*
X120141200Y-93403800D02*
G01*
X120141200Y-93903900D01*
X121091200Y-93903900D01*
X121091200Y-93403800D01*
X120141200Y-93403800D01*
G37*
G36*
X120141200Y-92235400D02*
G01*
X120141200Y-92735500D01*
X121091200Y-92735500D01*
X121091200Y-92235400D01*
X120141200Y-92235400D01*
G37*
D12*
X120192100Y-92717600D02*
X120192100Y-93429600D01*
X121043100Y-92717600D02*
X121043100Y-93429600D01*
D10*
%TO.C,CRES2B1*%
G36*
X119280900Y-98703700D02*
G01*
X118780800Y-98703700D01*
X118780800Y-99653700D01*
X119280900Y-99653700D01*
X119280900Y-98703700D01*
G37*
G36*
X120449300Y-98703700D02*
G01*
X119949200Y-98703700D01*
X119949200Y-99653700D01*
X120449300Y-99653700D01*
X120449300Y-98703700D01*
G37*
D12*
X119967100Y-98754600D02*
X119255100Y-98754600D01*
X119967100Y-99605600D02*
X119255100Y-99605600D01*
D10*
%TO.C,CRES2A1*%
G36*
X137380900Y-95603700D02*
G01*
X136880800Y-95603700D01*
X136880800Y-96553700D01*
X137380900Y-96553700D01*
X137380900Y-95603700D01*
G37*
G36*
X138549300Y-95603700D02*
G01*
X138049200Y-95603700D01*
X138049200Y-96553700D01*
X138549300Y-96553700D01*
X138549300Y-95603700D01*
G37*
D12*
X138067100Y-95654600D02*
X137355100Y-95654600D01*
X138067100Y-96505600D02*
X137355100Y-96505600D01*
D10*
%TO.C,CVB1*%
G36*
X116911100Y-94423600D02*
G01*
X116911100Y-94773600D01*
X118111100Y-94773600D01*
X118111100Y-94423600D01*
X116911100Y-94423600D01*
G37*
G36*
X116911100Y-89573600D02*
G01*
X116911100Y-89923600D01*
X118111100Y-89923600D01*
X118111100Y-89573600D01*
X116911100Y-89573600D01*
G37*
D12*
X118311100Y-93573600D02*
G75*
G02*
X116711100Y-93573600I-800000J1400000D01*
G01*
X116711100Y-90773600D02*
G75*
G02*
X118311100Y-90773600I800000J-1400000D01*
G01*
D16*
X116611100Y-90023600D02*
X118411100Y-90023600D01*
X118411100Y-94323600D02*
X116611100Y-94323600D01*
D10*
%TO.C,CVA1*%
G36*
X134511100Y-91123600D02*
G01*
X134511100Y-91473600D01*
X135711100Y-91473600D01*
X135711100Y-91123600D01*
X134511100Y-91123600D01*
G37*
G36*
X134511100Y-86273600D02*
G01*
X134511100Y-86623600D01*
X135711100Y-86623600D01*
X135711100Y-86273600D01*
X134511100Y-86273600D01*
G37*
D12*
X135911100Y-90273600D02*
G75*
G02*
X134311100Y-90273600I-800000J1400000D01*
G01*
X134311100Y-87473600D02*
G75*
G02*
X135911100Y-87473600I800000J-1400000D01*
G01*
D16*
X134211100Y-86723600D02*
X136011100Y-86723600D01*
X136011100Y-91023600D02*
X134211100Y-91023600D01*
D10*
%TO.C,VREG1*%
G36*
X157361100Y-118073600D02*
G01*
X157361100Y-118573600D01*
X158011100Y-118573600D01*
X158011100Y-118073600D01*
X157361100Y-118073600D01*
G37*
G36*
X157361100Y-119973600D02*
G01*
X157361100Y-120473600D01*
X158011100Y-120473600D01*
X158011100Y-119973600D01*
X157361100Y-119973600D01*
G37*
G36*
X155011100Y-119973600D02*
G01*
X155011100Y-120473600D01*
X155661100Y-120473600D01*
X155661100Y-119973600D01*
X155011100Y-119973600D01*
G37*
G36*
X155011100Y-119023600D02*
G01*
X155011100Y-119523600D01*
X155661100Y-119523600D01*
X155661100Y-119023600D01*
X155011100Y-119023600D01*
G37*
G36*
X155011100Y-118073600D02*
G01*
X155011100Y-118573600D01*
X155661100Y-118573600D01*
X155661100Y-118073600D01*
X155011100Y-118073600D01*
G37*
D11*
X157321100Y-117851600D02*
X157321100Y-120695600D01*
X155701100Y-120695600D02*
X155701100Y-117851600D01*
D10*
%TO.C,Z5*%
G36*
X129106300Y-109662000D02*
G01*
X129606400Y-109662000D01*
X129606400Y-108712000D01*
X129106300Y-108712000D01*
X129106300Y-109662000D01*
G37*
G36*
X127937900Y-109662000D02*
G01*
X128438000Y-109662000D01*
X128438000Y-108712000D01*
X127937900Y-108712000D01*
X127937900Y-109662000D01*
G37*
D12*
X128420100Y-109611100D02*
X129132100Y-109611100D01*
X128420100Y-108760100D02*
X129132100Y-108760100D01*
D10*
%TO.C,Z6*%
G36*
X131986300Y-106461500D02*
G01*
X132486400Y-106461500D01*
X132486400Y-105511500D01*
X131986300Y-105511500D01*
X131986300Y-106461500D01*
G37*
G36*
X130817900Y-106461500D02*
G01*
X131318000Y-106461500D01*
X131318000Y-105511500D01*
X130817900Y-105511500D01*
X130817900Y-106461500D01*
G37*
D12*
X131300100Y-106410600D02*
X132012100Y-106410600D01*
X131300100Y-105559600D02*
X132012100Y-105559600D01*
D10*
%TO.C,L7*%
G36*
X127871500Y-104728400D02*
G01*
X128371500Y-104728400D01*
X128371500Y-103428400D01*
X127871500Y-103428400D01*
X127871500Y-104728400D01*
G37*
G36*
X126371500Y-104728400D02*
G01*
X126871500Y-104728400D01*
X126871500Y-103428400D01*
X126371500Y-103428400D01*
X126371500Y-104728400D01*
G37*
D12*
X128296500Y-104678400D02*
X126446500Y-104678400D01*
X126446500Y-103478400D02*
X128296500Y-103478400D01*
D10*
%TO.C,L6*%
G36*
X172418100Y-108024400D02*
G01*
X172418100Y-108524400D01*
X173718100Y-108524400D01*
X173718100Y-108024400D01*
X172418100Y-108024400D01*
G37*
G36*
X172418100Y-106524400D02*
G01*
X172418100Y-107024400D01*
X173718100Y-107024400D01*
X173718100Y-106524400D01*
X172418100Y-106524400D01*
G37*
D12*
X172468100Y-108449400D02*
X172468100Y-106599400D01*
X173668100Y-106599400D02*
X173668100Y-108449400D01*
D10*
%TO.C,CXA1*%
G36*
X138141200Y-89003800D02*
G01*
X138141200Y-89503900D01*
X139091200Y-89503900D01*
X139091200Y-89003800D01*
X138141200Y-89003800D01*
G37*
G36*
X138141200Y-87835400D02*
G01*
X138141200Y-88335500D01*
X139091200Y-88335500D01*
X139091200Y-87835400D01*
X138141200Y-87835400D01*
G37*
D12*
X138192100Y-88317600D02*
X138192100Y-89029600D01*
X139043100Y-88317600D02*
X139043100Y-89029600D01*
D10*
%TO.C,R3*%
G36*
X153934200Y-111941800D02*
G01*
X153934200Y-112441900D01*
X154884200Y-112441900D01*
X154884200Y-111941800D01*
X153934200Y-111941800D01*
G37*
G36*
X153934200Y-110773400D02*
G01*
X153934200Y-111273500D01*
X154884200Y-111273500D01*
X154884200Y-110773400D01*
X153934200Y-110773400D01*
G37*
D12*
X153985100Y-111255600D02*
X153985100Y-111967600D01*
X154836100Y-111255600D02*
X154836100Y-111967600D01*
%TD*%
%TO.C,ICSP6*%
D17*
X180985560Y-107692670D02*
X181463564Y-107692670D01*
X181206177Y-107986826D01*
X181316486Y-107986826D01*
X181390025Y-108023596D01*
X181426794Y-108060365D01*
X181463564Y-108133904D01*
X181463564Y-108317752D01*
X181426794Y-108391291D01*
X181390025Y-108428060D01*
X181316486Y-108464830D01*
X181095868Y-108464830D01*
X181022329Y-108428060D01*
X180985560Y-108391291D01*
X181720950Y-108464830D02*
X182125415Y-107950057D01*
X181720950Y-107950057D02*
X182125415Y-108464830D01*
X182382802Y-107766209D02*
X182419571Y-107729440D01*
X182493110Y-107692670D01*
X182676958Y-107692670D01*
X182750497Y-107729440D01*
X182787267Y-107766209D01*
X182824036Y-107839748D01*
X182824036Y-107913287D01*
X182787267Y-108023596D01*
X182346032Y-108464830D01*
X182824036Y-108464830D01*
X183154962Y-108464830D02*
X183154962Y-107692670D01*
X183412348Y-108244213D01*
X183669735Y-107692670D01*
X183669735Y-108464830D01*
%TO.C,MCU1*%
D18*
X167257522Y-94479545D02*
X167340253Y-94507122D01*
X167478139Y-94507122D01*
X167533293Y-94479545D01*
X167560870Y-94451968D01*
X167588448Y-94396814D01*
X167588448Y-94341660D01*
X167560870Y-94286505D01*
X167533293Y-94258928D01*
X167478139Y-94231351D01*
X167367830Y-94203774D01*
X167312676Y-94176197D01*
X167285099Y-94148620D01*
X167257522Y-94093465D01*
X167257522Y-94038311D01*
X167285099Y-93983157D01*
X167312676Y-93955580D01*
X167367830Y-93928002D01*
X167505716Y-93928002D01*
X167588448Y-93955580D01*
X167809065Y-94341660D02*
X168084836Y-94341660D01*
X167753910Y-94507122D02*
X167946950Y-93928002D01*
X168139990Y-94507122D01*
X168333030Y-94507122D02*
X168333030Y-93928002D01*
X168526070Y-94341660D01*
X168719110Y-93928002D01*
X168719110Y-94507122D01*
X168994882Y-94507122D02*
X168994882Y-93928002D01*
X169132768Y-93928002D01*
X169215499Y-93955580D01*
X169270653Y-94010734D01*
X169298230Y-94065888D01*
X169325808Y-94176197D01*
X169325808Y-94258928D01*
X169298230Y-94369237D01*
X169270653Y-94424391D01*
X169215499Y-94479545D01*
X169132768Y-94507122D01*
X168994882Y-94507122D01*
X169546425Y-93983157D02*
X169574002Y-93955580D01*
X169629156Y-93928002D01*
X169767042Y-93928002D01*
X169822196Y-93955580D01*
X169849773Y-93983157D01*
X169877350Y-94038311D01*
X169877350Y-94093465D01*
X169849773Y-94176197D01*
X169518848Y-94507122D01*
X169877350Y-94507122D01*
X170428893Y-94507122D02*
X170097968Y-94507122D01*
X170263430Y-94507122D02*
X170263430Y-93928002D01*
X170208276Y-94010734D01*
X170153122Y-94065888D01*
X170097968Y-94093465D01*
X170980436Y-93955580D02*
X170925282Y-93928002D01*
X170842550Y-93928002D01*
X170759819Y-93955580D01*
X170704665Y-94010734D01*
X170677088Y-94065888D01*
X170649510Y-94176197D01*
X170649510Y-94258928D01*
X170677088Y-94369237D01*
X170704665Y-94424391D01*
X170759819Y-94479545D01*
X170842550Y-94507122D01*
X170897705Y-94507122D01*
X170980436Y-94479545D01*
X171008013Y-94451968D01*
X171008013Y-94258928D01*
X170897705Y-94258928D01*
X171559556Y-94507122D02*
X171228630Y-94507122D01*
X171394093Y-94507122D02*
X171394093Y-93928002D01*
X171338939Y-94010734D01*
X171283785Y-94065888D01*
X171228630Y-94093465D01*
X171890482Y-94176197D02*
X171835328Y-94148620D01*
X171807750Y-94121042D01*
X171780173Y-94065888D01*
X171780173Y-94038311D01*
X171807750Y-93983157D01*
X171835328Y-93955580D01*
X171890482Y-93928002D01*
X172000790Y-93928002D01*
X172055945Y-93955580D01*
X172083522Y-93983157D01*
X172111099Y-94038311D01*
X172111099Y-94065888D01*
X172083522Y-94121042D01*
X172055945Y-94148620D01*
X172000790Y-94176197D01*
X171890482Y-94176197D01*
X171835328Y-94203774D01*
X171807750Y-94231351D01*
X171780173Y-94286505D01*
X171780173Y-94396814D01*
X171807750Y-94451968D01*
X171835328Y-94479545D01*
X171890482Y-94507122D01*
X172000790Y-94507122D01*
X172055945Y-94479545D01*
X172083522Y-94451968D01*
X172111099Y-94396814D01*
X172111099Y-94286505D01*
X172083522Y-94231351D01*
X172055945Y-94203774D01*
X172000790Y-94176197D01*
X172331716Y-94341660D02*
X172607488Y-94341660D01*
X172276562Y-94507122D02*
X172469602Y-93928002D01*
X172662642Y-94507122D01*
X172855682Y-94286505D02*
X173296916Y-94286505D01*
X173545110Y-94341660D02*
X173820882Y-94341660D01*
X173489956Y-94507122D02*
X173682996Y-93928002D01*
X173876036Y-94507122D01*
X174069076Y-93928002D02*
X174069076Y-94396814D01*
X174096653Y-94451968D01*
X174124230Y-94479545D01*
X174179385Y-94507122D01*
X174289693Y-94507122D01*
X174344848Y-94479545D01*
X174372425Y-94451968D01*
X174400002Y-94396814D01*
X174400002Y-93928002D01*
X174593042Y-93928002D02*
X174923968Y-93928002D01*
X174758505Y-94507122D02*
X174758505Y-93928002D01*
%TO.C,C11*%
X161437048Y-110709422D02*
X161106122Y-110709422D01*
X161271585Y-110709422D02*
X161271585Y-110130302D01*
X161216430Y-110213034D01*
X161161276Y-110268188D01*
X161106122Y-110295765D01*
X161933436Y-110323342D02*
X161933436Y-110709422D01*
X161685242Y-110323342D02*
X161685242Y-110626691D01*
X161712819Y-110681845D01*
X161767973Y-110709422D01*
X161850705Y-110709422D01*
X161905859Y-110681845D01*
X161933436Y-110654268D01*
X162402248Y-110406074D02*
X162209208Y-110406074D01*
X162209208Y-110709422D02*
X162209208Y-110130302D01*
X162484979Y-110130302D01*
%TO.C,C5*%
X157120848Y-102845722D02*
X156789922Y-102845722D01*
X156955385Y-102845722D02*
X156955385Y-102266602D01*
X156900230Y-102349334D01*
X156845076Y-102404488D01*
X156789922Y-102432065D01*
X157479350Y-102266602D02*
X157534505Y-102266602D01*
X157589659Y-102294180D01*
X157617236Y-102321757D01*
X157644813Y-102376911D01*
X157672390Y-102487220D01*
X157672390Y-102625105D01*
X157644813Y-102735414D01*
X157617236Y-102790568D01*
X157589659Y-102818145D01*
X157534505Y-102845722D01*
X157479350Y-102845722D01*
X157424196Y-102818145D01*
X157396619Y-102790568D01*
X157369042Y-102735414D01*
X157341465Y-102625105D01*
X157341465Y-102487220D01*
X157369042Y-102376911D01*
X157396619Y-102321757D01*
X157424196Y-102294180D01*
X157479350Y-102266602D01*
X158030893Y-102266602D02*
X158086048Y-102266602D01*
X158141202Y-102294180D01*
X158168779Y-102321757D01*
X158196356Y-102376911D01*
X158223933Y-102487220D01*
X158223933Y-102625105D01*
X158196356Y-102735414D01*
X158168779Y-102790568D01*
X158141202Y-102818145D01*
X158086048Y-102845722D01*
X158030893Y-102845722D01*
X157975739Y-102818145D01*
X157948162Y-102790568D01*
X157920585Y-102735414D01*
X157893008Y-102625105D01*
X157893008Y-102487220D01*
X157920585Y-102376911D01*
X157948162Y-102321757D01*
X157975739Y-102294180D01*
X158030893Y-102266602D01*
X158472128Y-102459642D02*
X158472128Y-102845722D01*
X158472128Y-102514797D02*
X158499705Y-102487220D01*
X158554859Y-102459642D01*
X158637590Y-102459642D01*
X158692745Y-102487220D01*
X158720322Y-102542374D01*
X158720322Y-102845722D01*
X159189133Y-102542374D02*
X158996093Y-102542374D01*
X158996093Y-102845722D02*
X158996093Y-102266602D01*
X159271865Y-102266602D01*
%TO.C,C6*%
X173715648Y-102776222D02*
X173384722Y-102776222D01*
X173550185Y-102776222D02*
X173550185Y-102197102D01*
X173495030Y-102279834D01*
X173439876Y-102334988D01*
X173384722Y-102362565D01*
X174074150Y-102197102D02*
X174129305Y-102197102D01*
X174184459Y-102224680D01*
X174212036Y-102252257D01*
X174239613Y-102307411D01*
X174267190Y-102417720D01*
X174267190Y-102555605D01*
X174239613Y-102665914D01*
X174212036Y-102721068D01*
X174184459Y-102748645D01*
X174129305Y-102776222D01*
X174074150Y-102776222D01*
X174018996Y-102748645D01*
X173991419Y-102721068D01*
X173963842Y-102665914D01*
X173936265Y-102555605D01*
X173936265Y-102417720D01*
X173963842Y-102307411D01*
X173991419Y-102252257D01*
X174018996Y-102224680D01*
X174074150Y-102197102D01*
X174625693Y-102197102D02*
X174680848Y-102197102D01*
X174736002Y-102224680D01*
X174763579Y-102252257D01*
X174791156Y-102307411D01*
X174818733Y-102417720D01*
X174818733Y-102555605D01*
X174791156Y-102665914D01*
X174763579Y-102721068D01*
X174736002Y-102748645D01*
X174680848Y-102776222D01*
X174625693Y-102776222D01*
X174570539Y-102748645D01*
X174542962Y-102721068D01*
X174515385Y-102665914D01*
X174487808Y-102555605D01*
X174487808Y-102417720D01*
X174515385Y-102307411D01*
X174542962Y-102252257D01*
X174570539Y-102224680D01*
X174625693Y-102197102D01*
X175066928Y-102390142D02*
X175066928Y-102776222D01*
X175066928Y-102445297D02*
X175094505Y-102417720D01*
X175149659Y-102390142D01*
X175232390Y-102390142D01*
X175287545Y-102417720D01*
X175315122Y-102472874D01*
X175315122Y-102776222D01*
X175783933Y-102472874D02*
X175590893Y-102472874D01*
X175590893Y-102776222D02*
X175590893Y-102197102D01*
X175866665Y-102197102D01*
%TO.C,C9*%
X168501522Y-109431057D02*
X168529099Y-109403480D01*
X168584253Y-109375902D01*
X168722139Y-109375902D01*
X168777293Y-109403480D01*
X168804870Y-109431057D01*
X168832448Y-109486211D01*
X168832448Y-109541365D01*
X168804870Y-109624097D01*
X168473945Y-109955022D01*
X168832448Y-109955022D01*
X169053065Y-109431057D02*
X169080642Y-109403480D01*
X169135796Y-109375902D01*
X169273682Y-109375902D01*
X169328836Y-109403480D01*
X169356413Y-109431057D01*
X169383990Y-109486211D01*
X169383990Y-109541365D01*
X169356413Y-109624097D01*
X169025488Y-109955022D01*
X169383990Y-109955022D01*
X169632185Y-109568942D02*
X169632185Y-110148062D01*
X169632185Y-109596520D02*
X169687339Y-109568942D01*
X169797648Y-109568942D01*
X169852802Y-109596520D01*
X169880379Y-109624097D01*
X169907956Y-109679251D01*
X169907956Y-109844714D01*
X169880379Y-109899868D01*
X169852802Y-109927445D01*
X169797648Y-109955022D01*
X169687339Y-109955022D01*
X169632185Y-109927445D01*
X170349190Y-109651674D02*
X170156150Y-109651674D01*
X170156150Y-109955022D02*
X170156150Y-109375902D01*
X170431922Y-109375902D01*
%TO.C,C10*%
X169621522Y-109995057D02*
X169649099Y-109967480D01*
X169704253Y-109939902D01*
X169842139Y-109939902D01*
X169897293Y-109967480D01*
X169924870Y-109995057D01*
X169952448Y-110050211D01*
X169952448Y-110105365D01*
X169924870Y-110188097D01*
X169593945Y-110519022D01*
X169952448Y-110519022D01*
X170173065Y-109995057D02*
X170200642Y-109967480D01*
X170255796Y-109939902D01*
X170393682Y-109939902D01*
X170448836Y-109967480D01*
X170476413Y-109995057D01*
X170503990Y-110050211D01*
X170503990Y-110105365D01*
X170476413Y-110188097D01*
X170145488Y-110519022D01*
X170503990Y-110519022D01*
X170752185Y-110132942D02*
X170752185Y-110712062D01*
X170752185Y-110160520D02*
X170807339Y-110132942D01*
X170917648Y-110132942D01*
X170972802Y-110160520D01*
X171000379Y-110188097D01*
X171027956Y-110243251D01*
X171027956Y-110408714D01*
X171000379Y-110463868D01*
X170972802Y-110491445D01*
X170917648Y-110519022D01*
X170807339Y-110519022D01*
X170752185Y-110491445D01*
X171469190Y-110215674D02*
X171276150Y-110215674D01*
X171276150Y-110519022D02*
X171276150Y-109939902D01*
X171551922Y-109939902D01*
%TO.C,RP_SCL1*%
X157582448Y-96761022D02*
X157251522Y-96761022D01*
X157416985Y-96761022D02*
X157416985Y-96181902D01*
X157361830Y-96264634D01*
X157306676Y-96319788D01*
X157251522Y-96347365D01*
X157940950Y-96181902D02*
X157996105Y-96181902D01*
X158051259Y-96209480D01*
X158078836Y-96237057D01*
X158106413Y-96292211D01*
X158133990Y-96402520D01*
X158133990Y-96540405D01*
X158106413Y-96650714D01*
X158078836Y-96705868D01*
X158051259Y-96733445D01*
X157996105Y-96761022D01*
X157940950Y-96761022D01*
X157885796Y-96733445D01*
X157858219Y-96705868D01*
X157830642Y-96650714D01*
X157803065Y-96540405D01*
X157803065Y-96402520D01*
X157830642Y-96292211D01*
X157858219Y-96237057D01*
X157885796Y-96209480D01*
X157940950Y-96181902D01*
X158382185Y-96761022D02*
X158382185Y-96181902D01*
X158437339Y-96540405D02*
X158602802Y-96761022D01*
X158602802Y-96374942D02*
X158382185Y-96595560D01*
%TO.C,RP_SDA1*%
X154757448Y-101033022D02*
X154426522Y-101033022D01*
X154591985Y-101033022D02*
X154591985Y-100453902D01*
X154536830Y-100536634D01*
X154481676Y-100591788D01*
X154426522Y-100619365D01*
X155115950Y-100453902D02*
X155171105Y-100453902D01*
X155226259Y-100481480D01*
X155253836Y-100509057D01*
X155281413Y-100564211D01*
X155308990Y-100674520D01*
X155308990Y-100812405D01*
X155281413Y-100922714D01*
X155253836Y-100977868D01*
X155226259Y-101005445D01*
X155171105Y-101033022D01*
X155115950Y-101033022D01*
X155060796Y-101005445D01*
X155033219Y-100977868D01*
X155005642Y-100922714D01*
X154978065Y-100812405D01*
X154978065Y-100674520D01*
X155005642Y-100564211D01*
X155033219Y-100509057D01*
X155060796Y-100481480D01*
X155115950Y-100453902D01*
X155557185Y-101033022D02*
X155557185Y-100453902D01*
X155612339Y-100812405D02*
X155777802Y-101033022D01*
X155777802Y-100646942D02*
X155557185Y-100867560D01*
%TO.C,C7*%
X127858648Y-108066622D02*
X127527722Y-108066622D01*
X127693185Y-108066622D02*
X127693185Y-107487502D01*
X127638030Y-107570234D01*
X127582876Y-107625388D01*
X127527722Y-107652965D01*
X128217150Y-107487502D02*
X128272305Y-107487502D01*
X128327459Y-107515080D01*
X128355036Y-107542657D01*
X128382613Y-107597811D01*
X128410190Y-107708120D01*
X128410190Y-107846005D01*
X128382613Y-107956314D01*
X128355036Y-108011468D01*
X128327459Y-108039045D01*
X128272305Y-108066622D01*
X128217150Y-108066622D01*
X128161996Y-108039045D01*
X128134419Y-108011468D01*
X128106842Y-107956314D01*
X128079265Y-107846005D01*
X128079265Y-107708120D01*
X128106842Y-107597811D01*
X128134419Y-107542657D01*
X128161996Y-107515080D01*
X128217150Y-107487502D01*
X128658385Y-107680542D02*
X128658385Y-108066622D01*
X128658385Y-107735697D02*
X128685962Y-107708120D01*
X128741116Y-107680542D01*
X128823848Y-107680542D01*
X128879002Y-107708120D01*
X128906579Y-107763274D01*
X128906579Y-108066622D01*
X129375390Y-107763274D02*
X129182350Y-107763274D01*
X129182350Y-108066622D02*
X129182350Y-107487502D01*
X129458122Y-107487502D01*
%TO.C,C1*%
X164410648Y-112185622D02*
X164079722Y-112185622D01*
X164245185Y-112185622D02*
X164245185Y-111606502D01*
X164190030Y-111689234D01*
X164134876Y-111744388D01*
X164079722Y-111771965D01*
X164769150Y-111606502D02*
X164824305Y-111606502D01*
X164879459Y-111634080D01*
X164907036Y-111661657D01*
X164934613Y-111716811D01*
X164962190Y-111827120D01*
X164962190Y-111965005D01*
X164934613Y-112075314D01*
X164907036Y-112130468D01*
X164879459Y-112158045D01*
X164824305Y-112185622D01*
X164769150Y-112185622D01*
X164713996Y-112158045D01*
X164686419Y-112130468D01*
X164658842Y-112075314D01*
X164631265Y-111965005D01*
X164631265Y-111827120D01*
X164658842Y-111716811D01*
X164686419Y-111661657D01*
X164713996Y-111634080D01*
X164769150Y-111606502D01*
X165320693Y-111606502D02*
X165375848Y-111606502D01*
X165431002Y-111634080D01*
X165458579Y-111661657D01*
X165486156Y-111716811D01*
X165513733Y-111827120D01*
X165513733Y-111965005D01*
X165486156Y-112075314D01*
X165458579Y-112130468D01*
X165431002Y-112158045D01*
X165375848Y-112185622D01*
X165320693Y-112185622D01*
X165265539Y-112158045D01*
X165237962Y-112130468D01*
X165210385Y-112075314D01*
X165182808Y-111965005D01*
X165182808Y-111827120D01*
X165210385Y-111716811D01*
X165237962Y-111661657D01*
X165265539Y-111634080D01*
X165320693Y-111606502D01*
X165761928Y-111799542D02*
X165761928Y-112185622D01*
X165761928Y-111854697D02*
X165789505Y-111827120D01*
X165844659Y-111799542D01*
X165927390Y-111799542D01*
X165982545Y-111827120D01*
X166010122Y-111882274D01*
X166010122Y-112185622D01*
X166478933Y-111882274D02*
X166285893Y-111882274D01*
X166285893Y-112185622D02*
X166285893Y-111606502D01*
X166561665Y-111606502D01*
%TO.C,R4*%
X136683448Y-118205022D02*
X136352522Y-118205022D01*
X136517985Y-118205022D02*
X136517985Y-117625902D01*
X136462830Y-117708634D01*
X136407676Y-117763788D01*
X136352522Y-117791365D01*
X137041950Y-117625902D02*
X137097105Y-117625902D01*
X137152259Y-117653480D01*
X137179836Y-117681057D01*
X137207413Y-117736211D01*
X137234990Y-117846520D01*
X137234990Y-117984405D01*
X137207413Y-118094714D01*
X137179836Y-118149868D01*
X137152259Y-118177445D01*
X137097105Y-118205022D01*
X137041950Y-118205022D01*
X136986796Y-118177445D01*
X136959219Y-118149868D01*
X136931642Y-118094714D01*
X136904065Y-117984405D01*
X136904065Y-117846520D01*
X136931642Y-117736211D01*
X136959219Y-117681057D01*
X136986796Y-117653480D01*
X137041950Y-117625902D01*
X137483185Y-118205022D02*
X137483185Y-117625902D01*
X137538339Y-117984405D02*
X137703802Y-118205022D01*
X137703802Y-117818942D02*
X137483185Y-118039560D01*
%TO.C,C2*%
X166167448Y-93782022D02*
X165836522Y-93782022D01*
X166001985Y-93782022D02*
X166001985Y-93202902D01*
X165946830Y-93285634D01*
X165891676Y-93340788D01*
X165836522Y-93368365D01*
X166525950Y-93202902D02*
X166581105Y-93202902D01*
X166636259Y-93230480D01*
X166663836Y-93258057D01*
X166691413Y-93313211D01*
X166718990Y-93423520D01*
X166718990Y-93561405D01*
X166691413Y-93671714D01*
X166663836Y-93726868D01*
X166636259Y-93754445D01*
X166581105Y-93782022D01*
X166525950Y-93782022D01*
X166470796Y-93754445D01*
X166443219Y-93726868D01*
X166415642Y-93671714D01*
X166388065Y-93561405D01*
X166388065Y-93423520D01*
X166415642Y-93313211D01*
X166443219Y-93258057D01*
X166470796Y-93230480D01*
X166525950Y-93202902D01*
X167077493Y-93202902D02*
X167132648Y-93202902D01*
X167187802Y-93230480D01*
X167215379Y-93258057D01*
X167242956Y-93313211D01*
X167270533Y-93423520D01*
X167270533Y-93561405D01*
X167242956Y-93671714D01*
X167215379Y-93726868D01*
X167187802Y-93754445D01*
X167132648Y-93782022D01*
X167077493Y-93782022D01*
X167022339Y-93754445D01*
X166994762Y-93726868D01*
X166967185Y-93671714D01*
X166939608Y-93561405D01*
X166939608Y-93423520D01*
X166967185Y-93313211D01*
X166994762Y-93258057D01*
X167022339Y-93230480D01*
X167077493Y-93202902D01*
X167518728Y-93395942D02*
X167518728Y-93782022D01*
X167518728Y-93451097D02*
X167546305Y-93423520D01*
X167601459Y-93395942D01*
X167684190Y-93395942D01*
X167739345Y-93423520D01*
X167766922Y-93478674D01*
X167766922Y-93782022D01*
X168235733Y-93478674D02*
X168042693Y-93478674D01*
X168042693Y-93782022D02*
X168042693Y-93202902D01*
X168318465Y-93202902D01*
%TO.C,C3*%
X166774448Y-89623022D02*
X166443522Y-89623022D01*
X166608985Y-89623022D02*
X166608985Y-89043902D01*
X166553830Y-89126634D01*
X166498676Y-89181788D01*
X166443522Y-89209365D01*
X167132950Y-89043902D02*
X167188105Y-89043902D01*
X167243259Y-89071480D01*
X167270836Y-89099057D01*
X167298413Y-89154211D01*
X167325990Y-89264520D01*
X167325990Y-89402405D01*
X167298413Y-89512714D01*
X167270836Y-89567868D01*
X167243259Y-89595445D01*
X167188105Y-89623022D01*
X167132950Y-89623022D01*
X167077796Y-89595445D01*
X167050219Y-89567868D01*
X167022642Y-89512714D01*
X166995065Y-89402405D01*
X166995065Y-89264520D01*
X167022642Y-89154211D01*
X167050219Y-89099057D01*
X167077796Y-89071480D01*
X167132950Y-89043902D01*
X167684493Y-89043902D02*
X167739648Y-89043902D01*
X167794802Y-89071480D01*
X167822379Y-89099057D01*
X167849956Y-89154211D01*
X167877533Y-89264520D01*
X167877533Y-89402405D01*
X167849956Y-89512714D01*
X167822379Y-89567868D01*
X167794802Y-89595445D01*
X167739648Y-89623022D01*
X167684493Y-89623022D01*
X167629339Y-89595445D01*
X167601762Y-89567868D01*
X167574185Y-89512714D01*
X167546608Y-89402405D01*
X167546608Y-89264520D01*
X167574185Y-89154211D01*
X167601762Y-89099057D01*
X167629339Y-89071480D01*
X167684493Y-89043902D01*
X168125728Y-89236942D02*
X168125728Y-89623022D01*
X168125728Y-89292097D02*
X168153305Y-89264520D01*
X168208459Y-89236942D01*
X168291190Y-89236942D01*
X168346345Y-89264520D01*
X168373922Y-89319674D01*
X168373922Y-89623022D01*
X168842733Y-89319674D02*
X168649693Y-89319674D01*
X168649693Y-89623022D02*
X168649693Y-89043902D01*
X168925465Y-89043902D01*
%TO.C,CREF1*%
X168050293Y-84801942D02*
X168050293Y-85188022D01*
X167912408Y-84581325D02*
X167774522Y-84994982D01*
X168133025Y-84994982D01*
X168353642Y-85132868D02*
X168381219Y-85160445D01*
X168353642Y-85188022D01*
X168326065Y-85160445D01*
X168353642Y-85132868D01*
X168353642Y-85188022D01*
X168574259Y-84608902D02*
X168960339Y-84608902D01*
X168712145Y-85188022D01*
X169429150Y-84801942D02*
X169429150Y-85188022D01*
X169180956Y-84801942D02*
X169180956Y-85105291D01*
X169208533Y-85160445D01*
X169263688Y-85188022D01*
X169346419Y-85188022D01*
X169401573Y-85160445D01*
X169429150Y-85132868D01*
X169897962Y-84884674D02*
X169704922Y-84884674D01*
X169704922Y-85188022D02*
X169704922Y-84608902D01*
X169980693Y-84608902D01*
%TO.C,R2*%
X155923945Y-109672902D02*
X156282448Y-109672902D01*
X156089408Y-109893520D01*
X156172139Y-109893520D01*
X156227293Y-109921097D01*
X156254870Y-109948674D01*
X156282448Y-110003828D01*
X156282448Y-110141714D01*
X156254870Y-110196868D01*
X156227293Y-110224445D01*
X156172139Y-110252022D01*
X156006676Y-110252022D01*
X155951522Y-110224445D01*
X155923945Y-110196868D01*
X156475488Y-109672902D02*
X156833990Y-109672902D01*
X156640950Y-109893520D01*
X156723682Y-109893520D01*
X156778836Y-109921097D01*
X156806413Y-109948674D01*
X156833990Y-110003828D01*
X156833990Y-110141714D01*
X156806413Y-110196868D01*
X156778836Y-110224445D01*
X156723682Y-110252022D01*
X156558219Y-110252022D01*
X156503065Y-110224445D01*
X156475488Y-110196868D01*
X157192493Y-109672902D02*
X157247648Y-109672902D01*
X157302802Y-109700480D01*
X157330379Y-109728057D01*
X157357956Y-109783211D01*
X157385533Y-109893520D01*
X157385533Y-110031405D01*
X157357956Y-110141714D01*
X157330379Y-110196868D01*
X157302802Y-110224445D01*
X157247648Y-110252022D01*
X157192493Y-110252022D01*
X157137339Y-110224445D01*
X157109762Y-110196868D01*
X157082185Y-110141714D01*
X157054608Y-110031405D01*
X157054608Y-109893520D01*
X157082185Y-109783211D01*
X157109762Y-109728057D01*
X157137339Y-109700480D01*
X157192493Y-109672902D01*
%TO.C,C8*%
X158282448Y-114428022D02*
X157951522Y-114428022D01*
X158116985Y-114428022D02*
X158116985Y-113848902D01*
X158061830Y-113931634D01*
X158006676Y-113986788D01*
X157951522Y-114014365D01*
X158640950Y-113848902D02*
X158696105Y-113848902D01*
X158751259Y-113876480D01*
X158778836Y-113904057D01*
X158806413Y-113959211D01*
X158833990Y-114069520D01*
X158833990Y-114207405D01*
X158806413Y-114317714D01*
X158778836Y-114372868D01*
X158751259Y-114400445D01*
X158696105Y-114428022D01*
X158640950Y-114428022D01*
X158585796Y-114400445D01*
X158558219Y-114372868D01*
X158530642Y-114317714D01*
X158503065Y-114207405D01*
X158503065Y-114069520D01*
X158530642Y-113959211D01*
X158558219Y-113904057D01*
X158585796Y-113876480D01*
X158640950Y-113848902D01*
X159082185Y-114041942D02*
X159082185Y-114428022D01*
X159082185Y-114097097D02*
X159109762Y-114069520D01*
X159164916Y-114041942D01*
X159247648Y-114041942D01*
X159302802Y-114069520D01*
X159330379Y-114124674D01*
X159330379Y-114428022D01*
X159799190Y-114124674D02*
X159606150Y-114124674D01*
X159606150Y-114428022D02*
X159606150Y-113848902D01*
X159881922Y-113848902D01*
%TO.C,R1*%
X143179448Y-114733022D02*
X142848522Y-114733022D01*
X143013985Y-114733022D02*
X143013985Y-114153902D01*
X142958830Y-114236634D01*
X142903676Y-114291788D01*
X142848522Y-114319365D01*
X143537950Y-114153902D02*
X143593105Y-114153902D01*
X143648259Y-114181480D01*
X143675836Y-114209057D01*
X143703413Y-114264211D01*
X143730990Y-114374520D01*
X143730990Y-114512405D01*
X143703413Y-114622714D01*
X143675836Y-114677868D01*
X143648259Y-114705445D01*
X143593105Y-114733022D01*
X143537950Y-114733022D01*
X143482796Y-114705445D01*
X143455219Y-114677868D01*
X143427642Y-114622714D01*
X143400065Y-114512405D01*
X143400065Y-114374520D01*
X143427642Y-114264211D01*
X143455219Y-114209057D01*
X143482796Y-114181480D01*
X143537950Y-114153902D01*
X144089493Y-114153902D02*
X144144648Y-114153902D01*
X144199802Y-114181480D01*
X144227379Y-114209057D01*
X144254956Y-114264211D01*
X144282533Y-114374520D01*
X144282533Y-114512405D01*
X144254956Y-114622714D01*
X144227379Y-114677868D01*
X144199802Y-114705445D01*
X144144648Y-114733022D01*
X144089493Y-114733022D01*
X144034339Y-114705445D01*
X144006762Y-114677868D01*
X143979185Y-114622714D01*
X143951608Y-114512405D01*
X143951608Y-114374520D01*
X143979185Y-114264211D01*
X144006762Y-114209057D01*
X144034339Y-114181480D01*
X144089493Y-114153902D01*
%TO.C,RP_INT1*%
X157159448Y-90452022D02*
X156828522Y-90452022D01*
X156993985Y-90452022D02*
X156993985Y-89872902D01*
X156938830Y-89955634D01*
X156883676Y-90010788D01*
X156828522Y-90038365D01*
X157517950Y-89872902D02*
X157573105Y-89872902D01*
X157628259Y-89900480D01*
X157655836Y-89928057D01*
X157683413Y-89983211D01*
X157710990Y-90093520D01*
X157710990Y-90231405D01*
X157683413Y-90341714D01*
X157655836Y-90396868D01*
X157628259Y-90424445D01*
X157573105Y-90452022D01*
X157517950Y-90452022D01*
X157462796Y-90424445D01*
X157435219Y-90396868D01*
X157407642Y-90341714D01*
X157380065Y-90231405D01*
X157380065Y-90093520D01*
X157407642Y-89983211D01*
X157435219Y-89928057D01*
X157462796Y-89900480D01*
X157517950Y-89872902D01*
X157959185Y-90452022D02*
X157959185Y-89872902D01*
X158014339Y-90231405D02*
X158179802Y-90452022D01*
X158179802Y-90065942D02*
X157959185Y-90286560D01*
%TO.C,USB1*%
X119066402Y-111211600D02*
X119535214Y-111211600D01*
X119590368Y-111184023D01*
X119617945Y-111156446D01*
X119645522Y-111101291D01*
X119645522Y-110990983D01*
X119617945Y-110935829D01*
X119590368Y-110908251D01*
X119535214Y-110880674D01*
X119066402Y-110880674D01*
X119617945Y-110632480D02*
X119645522Y-110549749D01*
X119645522Y-110411863D01*
X119617945Y-110356709D01*
X119590368Y-110329131D01*
X119535214Y-110301554D01*
X119480060Y-110301554D01*
X119424905Y-110329131D01*
X119397328Y-110356709D01*
X119369751Y-110411863D01*
X119342174Y-110522171D01*
X119314597Y-110577326D01*
X119287020Y-110604903D01*
X119231865Y-110632480D01*
X119176711Y-110632480D01*
X119121557Y-110604903D01*
X119093980Y-110577326D01*
X119066402Y-110522171D01*
X119066402Y-110384286D01*
X119093980Y-110301554D01*
X119342174Y-109860320D02*
X119369751Y-109777589D01*
X119397328Y-109750011D01*
X119452482Y-109722434D01*
X119535214Y-109722434D01*
X119590368Y-109750011D01*
X119617945Y-109777589D01*
X119645522Y-109832743D01*
X119645522Y-110053360D01*
X119066402Y-110053360D01*
X119066402Y-109860320D01*
X119093980Y-109805166D01*
X119121557Y-109777589D01*
X119176711Y-109750011D01*
X119231865Y-109750011D01*
X119287020Y-109777589D01*
X119314597Y-109805166D01*
X119342174Y-109860320D01*
X119342174Y-110053360D01*
X119424905Y-109474240D02*
X119424905Y-109033006D01*
X119645522Y-108757234D02*
X119066402Y-108757234D01*
X119480060Y-108564194D01*
X119066402Y-108371154D01*
X119645522Y-108371154D01*
X119645522Y-108095383D02*
X119066402Y-108095383D01*
X119645522Y-107819611D02*
X119066402Y-107819611D01*
X119645522Y-107488686D01*
X119066402Y-107488686D01*
X119645522Y-107212914D02*
X119066402Y-107212914D01*
X119342174Y-106744103D02*
X119369751Y-106661371D01*
X119397328Y-106633794D01*
X119452482Y-106606217D01*
X119535214Y-106606217D01*
X119590368Y-106633794D01*
X119617945Y-106661371D01*
X119645522Y-106716526D01*
X119645522Y-106937143D01*
X119066402Y-106937143D01*
X119066402Y-106744103D01*
X119093980Y-106688949D01*
X119121557Y-106661371D01*
X119176711Y-106633794D01*
X119231865Y-106633794D01*
X119287020Y-106661371D01*
X119314597Y-106688949D01*
X119342174Y-106744103D01*
X119342174Y-106937143D01*
X119424905Y-106358023D02*
X119424905Y-105916789D01*
X119066402Y-105365246D02*
X119066402Y-105641017D01*
X119342174Y-105668594D01*
X119314597Y-105641017D01*
X119287020Y-105585863D01*
X119287020Y-105447977D01*
X119314597Y-105392823D01*
X119342174Y-105365246D01*
X119397328Y-105337669D01*
X119535214Y-105337669D01*
X119590368Y-105365246D01*
X119617945Y-105392823D01*
X119645522Y-105447977D01*
X119645522Y-105585863D01*
X119617945Y-105641017D01*
X119590368Y-105668594D01*
X119645522Y-105089474D02*
X119066402Y-105089474D01*
X119066402Y-104868857D01*
X119093980Y-104813703D01*
X119121557Y-104786126D01*
X119176711Y-104758549D01*
X119259442Y-104758549D01*
X119314597Y-104786126D01*
X119342174Y-104813703D01*
X119369751Y-104868857D01*
X119369751Y-105089474D01*
X119645522Y-104510354D02*
X119066402Y-104510354D01*
X119645522Y-104234583D02*
X119066402Y-104234583D01*
X119645522Y-103903657D01*
X119066402Y-103903657D01*
%TO.C,VDIV2*%
X163818448Y-124221022D02*
X163487522Y-124221022D01*
X163652985Y-124221022D02*
X163652985Y-123641902D01*
X163597830Y-123724634D01*
X163542676Y-123779788D01*
X163487522Y-123807365D01*
X164066642Y-124165868D02*
X164094219Y-124193445D01*
X164066642Y-124221022D01*
X164039065Y-124193445D01*
X164066642Y-124165868D01*
X164066642Y-124221022D01*
X164425145Y-123890097D02*
X164369990Y-123862520D01*
X164342413Y-123834942D01*
X164314836Y-123779788D01*
X164314836Y-123752211D01*
X164342413Y-123697057D01*
X164369990Y-123669480D01*
X164425145Y-123641902D01*
X164535453Y-123641902D01*
X164590608Y-123669480D01*
X164618185Y-123697057D01*
X164645762Y-123752211D01*
X164645762Y-123779788D01*
X164618185Y-123834942D01*
X164590608Y-123862520D01*
X164535453Y-123890097D01*
X164425145Y-123890097D01*
X164369990Y-123917674D01*
X164342413Y-123945251D01*
X164314836Y-124000405D01*
X164314836Y-124110714D01*
X164342413Y-124165868D01*
X164369990Y-124193445D01*
X164425145Y-124221022D01*
X164535453Y-124221022D01*
X164590608Y-124193445D01*
X164618185Y-124165868D01*
X164645762Y-124110714D01*
X164645762Y-124000405D01*
X164618185Y-123945251D01*
X164590608Y-123917674D01*
X164535453Y-123890097D01*
X164893956Y-124221022D02*
X164893956Y-123641902D01*
X165086996Y-124055560D01*
X165280036Y-123641902D01*
X165280036Y-124221022D01*
%TO.C,VDIV1*%
X161845870Y-128696902D02*
X161570099Y-128696902D01*
X161542522Y-128972674D01*
X161570099Y-128945097D01*
X161625253Y-128917520D01*
X161763139Y-128917520D01*
X161818293Y-128945097D01*
X161845870Y-128972674D01*
X161873448Y-129027828D01*
X161873448Y-129165714D01*
X161845870Y-129220868D01*
X161818293Y-129248445D01*
X161763139Y-129276022D01*
X161625253Y-129276022D01*
X161570099Y-129248445D01*
X161542522Y-129220868D01*
X162231950Y-128696902D02*
X162287105Y-128696902D01*
X162342259Y-128724480D01*
X162369836Y-128752057D01*
X162397413Y-128807211D01*
X162424990Y-128917520D01*
X162424990Y-129055405D01*
X162397413Y-129165714D01*
X162369836Y-129220868D01*
X162342259Y-129248445D01*
X162287105Y-129276022D01*
X162231950Y-129276022D01*
X162176796Y-129248445D01*
X162149219Y-129220868D01*
X162121642Y-129165714D01*
X162094065Y-129055405D01*
X162094065Y-128917520D01*
X162121642Y-128807211D01*
X162149219Y-128752057D01*
X162176796Y-128724480D01*
X162231950Y-128696902D01*
X162783493Y-128696902D02*
X162838648Y-128696902D01*
X162893802Y-128724480D01*
X162921379Y-128752057D01*
X162948956Y-128807211D01*
X162976533Y-128917520D01*
X162976533Y-129055405D01*
X162948956Y-129165714D01*
X162921379Y-129220868D01*
X162893802Y-129248445D01*
X162838648Y-129276022D01*
X162783493Y-129276022D01*
X162728339Y-129248445D01*
X162700762Y-129220868D01*
X162673185Y-129165714D01*
X162645608Y-129055405D01*
X162645608Y-128917520D01*
X162673185Y-128807211D01*
X162700762Y-128752057D01*
X162728339Y-128724480D01*
X162783493Y-128696902D01*
X163224728Y-129276022D02*
X163224728Y-128696902D01*
X163555653Y-129276022D02*
X163307459Y-128945097D01*
X163555653Y-128696902D02*
X163224728Y-129027828D01*
%TO.C,C5V1*%
X153223522Y-117072251D02*
X153223522Y-117403177D01*
X153223522Y-117237714D02*
X152644402Y-117237714D01*
X152727134Y-117292869D01*
X152782288Y-117348023D01*
X152809865Y-117403177D01*
X152644402Y-116713749D02*
X152644402Y-116658594D01*
X152671980Y-116603440D01*
X152699557Y-116575863D01*
X152754711Y-116548286D01*
X152865020Y-116520709D01*
X153002905Y-116520709D01*
X153113214Y-116548286D01*
X153168368Y-116575863D01*
X153195945Y-116603440D01*
X153223522Y-116658594D01*
X153223522Y-116713749D01*
X153195945Y-116768903D01*
X153168368Y-116796480D01*
X153113214Y-116824057D01*
X153002905Y-116851634D01*
X152865020Y-116851634D01*
X152754711Y-116824057D01*
X152699557Y-116796480D01*
X152671980Y-116768903D01*
X152644402Y-116713749D01*
X152837442Y-116024320D02*
X153223522Y-116024320D01*
X152837442Y-116272514D02*
X153140791Y-116272514D01*
X153195945Y-116244937D01*
X153223522Y-116189783D01*
X153223522Y-116107051D01*
X153195945Y-116051897D01*
X153168368Y-116024320D01*
X152920174Y-115555509D02*
X152920174Y-115748549D01*
X153223522Y-115748549D02*
X152644402Y-115748549D01*
X152644402Y-115472777D01*
%TO.C,C3.3V1*%
X162143522Y-114632251D02*
X162143522Y-114963177D01*
X162143522Y-114797714D02*
X161564402Y-114797714D01*
X161647134Y-114852869D01*
X161702288Y-114908023D01*
X161729865Y-114963177D01*
X161564402Y-114273749D02*
X161564402Y-114218594D01*
X161591980Y-114163440D01*
X161619557Y-114135863D01*
X161674711Y-114108286D01*
X161785020Y-114080709D01*
X161922905Y-114080709D01*
X162033214Y-114108286D01*
X162088368Y-114135863D01*
X162115945Y-114163440D01*
X162143522Y-114218594D01*
X162143522Y-114273749D01*
X162115945Y-114328903D01*
X162088368Y-114356480D01*
X162033214Y-114384057D01*
X161922905Y-114411634D01*
X161785020Y-114411634D01*
X161674711Y-114384057D01*
X161619557Y-114356480D01*
X161591980Y-114328903D01*
X161564402Y-114273749D01*
X161757442Y-113584320D02*
X162143522Y-113584320D01*
X161757442Y-113832514D02*
X162060791Y-113832514D01*
X162115945Y-113804937D01*
X162143522Y-113749783D01*
X162143522Y-113667051D01*
X162115945Y-113611897D01*
X162088368Y-113584320D01*
X161840174Y-113115509D02*
X161840174Y-113308549D01*
X162143522Y-113308549D02*
X161564402Y-113308549D01*
X161564402Y-113032777D01*
%TO.C,RFA1*%
D19*
X142624557Y-87348600D02*
X142624557Y-87026866D01*
X143130138Y-86888981D02*
X143130138Y-87348600D01*
X142164938Y-87348600D01*
X142164938Y-86888981D01*
X143130138Y-86475323D02*
X142164938Y-86475323D01*
X142854366Y-86153590D01*
X142164938Y-85831857D01*
X143130138Y-85831857D01*
X142486671Y-84958581D02*
X143130138Y-84958581D01*
X142118976Y-85188390D02*
X142808404Y-85418200D01*
X142808404Y-84820695D01*
X142164938Y-84269152D02*
X142164938Y-84177228D01*
X142210900Y-84085304D01*
X142256861Y-84039342D01*
X142348785Y-83993381D01*
X142532633Y-83947419D01*
X142762442Y-83947419D01*
X142946290Y-83993381D01*
X143038214Y-84039342D01*
X143084176Y-84085304D01*
X143130138Y-84177228D01*
X143130138Y-84269152D01*
X143084176Y-84361076D01*
X143038214Y-84407038D01*
X142946290Y-84453000D01*
X142762442Y-84498961D01*
X142532633Y-84498961D01*
X142348785Y-84453000D01*
X142256861Y-84407038D01*
X142210900Y-84361076D01*
X142164938Y-84269152D01*
X143130138Y-83487800D02*
X143130138Y-83303952D01*
X143084176Y-83212028D01*
X143038214Y-83166066D01*
X142900328Y-83074142D01*
X142716480Y-83028181D01*
X142348785Y-83028181D01*
X142256861Y-83074142D01*
X142210900Y-83120104D01*
X142164938Y-83212028D01*
X142164938Y-83395876D01*
X142210900Y-83487800D01*
X142256861Y-83533761D01*
X142348785Y-83579723D01*
X142578595Y-83579723D01*
X142670519Y-83533761D01*
X142716480Y-83487800D01*
X142762442Y-83395876D01*
X142762442Y-83212028D01*
X142716480Y-83120104D01*
X142670519Y-83074142D01*
X142578595Y-83028181D01*
X142164938Y-82154904D02*
X142164938Y-82614523D01*
X142624557Y-82660485D01*
X142578595Y-82614523D01*
X142532633Y-82522600D01*
X142532633Y-82292790D01*
X142578595Y-82200866D01*
X142624557Y-82154904D01*
X142716480Y-82108942D01*
X142946290Y-82108942D01*
X143038214Y-82154904D01*
X143084176Y-82200866D01*
X143130138Y-82292790D01*
X143130138Y-82522600D01*
X143084176Y-82614523D01*
X143038214Y-82660485D01*
%TO.C,CFCAPA1*%
D18*
X147393448Y-85378022D02*
X147062522Y-85378022D01*
X147227985Y-85378022D02*
X147227985Y-84798902D01*
X147172830Y-84881634D01*
X147117676Y-84936788D01*
X147062522Y-84964365D01*
X147751950Y-84798902D02*
X147807105Y-84798902D01*
X147862259Y-84826480D01*
X147889836Y-84854057D01*
X147917413Y-84909211D01*
X147944990Y-85019520D01*
X147944990Y-85157405D01*
X147917413Y-85267714D01*
X147889836Y-85322868D01*
X147862259Y-85350445D01*
X147807105Y-85378022D01*
X147751950Y-85378022D01*
X147696796Y-85350445D01*
X147669219Y-85322868D01*
X147641642Y-85267714D01*
X147614065Y-85157405D01*
X147614065Y-85019520D01*
X147641642Y-84909211D01*
X147669219Y-84854057D01*
X147696796Y-84826480D01*
X147751950Y-84798902D01*
X148193185Y-84991942D02*
X148193185Y-85378022D01*
X148193185Y-85047097D02*
X148220762Y-85019520D01*
X148275916Y-84991942D01*
X148358648Y-84991942D01*
X148413802Y-85019520D01*
X148441379Y-85074674D01*
X148441379Y-85378022D01*
X148910190Y-85074674D02*
X148717150Y-85074674D01*
X148717150Y-85378022D02*
X148717150Y-84798902D01*
X148992922Y-84798902D01*
%TO.C,CDC2*%
X148951522Y-86913251D02*
X148951522Y-87244177D01*
X148951522Y-87078714D02*
X148372402Y-87078714D01*
X148455134Y-87133869D01*
X148510288Y-87189023D01*
X148537865Y-87244177D01*
X148372402Y-86554749D02*
X148372402Y-86499594D01*
X148399980Y-86444440D01*
X148427557Y-86416863D01*
X148482711Y-86389286D01*
X148593020Y-86361709D01*
X148730905Y-86361709D01*
X148841214Y-86389286D01*
X148896368Y-86416863D01*
X148923945Y-86444440D01*
X148951522Y-86499594D01*
X148951522Y-86554749D01*
X148923945Y-86609903D01*
X148896368Y-86637480D01*
X148841214Y-86665057D01*
X148730905Y-86692634D01*
X148593020Y-86692634D01*
X148482711Y-86665057D01*
X148427557Y-86637480D01*
X148399980Y-86609903D01*
X148372402Y-86554749D01*
X148565442Y-86113514D02*
X148951522Y-86113514D01*
X148620597Y-86113514D02*
X148593020Y-86085937D01*
X148565442Y-86030783D01*
X148565442Y-85948051D01*
X148593020Y-85892897D01*
X148648174Y-85865320D01*
X148951522Y-85865320D01*
X148648174Y-85396509D02*
X148648174Y-85589549D01*
X148951522Y-85589549D02*
X148372402Y-85589549D01*
X148372402Y-85313777D01*
%TO.C,CDECA1*%
X146593448Y-97778022D02*
X146262522Y-97778022D01*
X146427985Y-97778022D02*
X146427985Y-97198902D01*
X146372830Y-97281634D01*
X146317676Y-97336788D01*
X146262522Y-97364365D01*
X146951950Y-97198902D02*
X147007105Y-97198902D01*
X147062259Y-97226480D01*
X147089836Y-97254057D01*
X147117413Y-97309211D01*
X147144990Y-97419520D01*
X147144990Y-97557405D01*
X147117413Y-97667714D01*
X147089836Y-97722868D01*
X147062259Y-97750445D01*
X147007105Y-97778022D01*
X146951950Y-97778022D01*
X146896796Y-97750445D01*
X146869219Y-97722868D01*
X146841642Y-97667714D01*
X146814065Y-97557405D01*
X146814065Y-97419520D01*
X146841642Y-97309211D01*
X146869219Y-97254057D01*
X146896796Y-97226480D01*
X146951950Y-97198902D01*
X147503493Y-97198902D02*
X147558648Y-97198902D01*
X147613802Y-97226480D01*
X147641379Y-97254057D01*
X147668956Y-97309211D01*
X147696533Y-97419520D01*
X147696533Y-97557405D01*
X147668956Y-97667714D01*
X147641379Y-97722868D01*
X147613802Y-97750445D01*
X147558648Y-97778022D01*
X147503493Y-97778022D01*
X147448339Y-97750445D01*
X147420762Y-97722868D01*
X147393185Y-97667714D01*
X147365608Y-97557405D01*
X147365608Y-97419520D01*
X147393185Y-97309211D01*
X147420762Y-97254057D01*
X147448339Y-97226480D01*
X147503493Y-97198902D01*
X147944728Y-97391942D02*
X147944728Y-97778022D01*
X147944728Y-97447097D02*
X147972305Y-97419520D01*
X148027459Y-97391942D01*
X148110190Y-97391942D01*
X148165345Y-97419520D01*
X148192922Y-97474674D01*
X148192922Y-97778022D01*
X148661733Y-97474674D02*
X148468693Y-97474674D01*
X148468693Y-97778022D02*
X148468693Y-97198902D01*
X148744465Y-97198902D01*
%TO.C,CAGNDA1*%
X151971448Y-97914022D02*
X151640522Y-97914022D01*
X151805985Y-97914022D02*
X151805985Y-97334902D01*
X151750830Y-97417634D01*
X151695676Y-97472788D01*
X151640522Y-97500365D01*
X152467836Y-97527942D02*
X152467836Y-97914022D01*
X152219642Y-97527942D02*
X152219642Y-97831291D01*
X152247219Y-97886445D01*
X152302373Y-97914022D01*
X152385105Y-97914022D01*
X152440259Y-97886445D01*
X152467836Y-97858868D01*
X152936648Y-97610674D02*
X152743608Y-97610674D01*
X152743608Y-97914022D02*
X152743608Y-97334902D01*
X153019379Y-97334902D01*
%TO.C,CRES1A1*%
X138952448Y-93206022D02*
X138621522Y-93206022D01*
X138786985Y-93206022D02*
X138786985Y-92626902D01*
X138731830Y-92709634D01*
X138676676Y-92764788D01*
X138621522Y-92792365D01*
X139200642Y-93150868D02*
X139228219Y-93178445D01*
X139200642Y-93206022D01*
X139173065Y-93178445D01*
X139200642Y-93150868D01*
X139200642Y-93206022D01*
X139448836Y-92682057D02*
X139476413Y-92654480D01*
X139531568Y-92626902D01*
X139669453Y-92626902D01*
X139724608Y-92654480D01*
X139752185Y-92682057D01*
X139779762Y-92737211D01*
X139779762Y-92792365D01*
X139752185Y-92875097D01*
X139421259Y-93206022D01*
X139779762Y-93206022D01*
X140027956Y-92819942D02*
X140027956Y-93206022D01*
X140027956Y-92875097D02*
X140055533Y-92847520D01*
X140110688Y-92819942D01*
X140193419Y-92819942D01*
X140248573Y-92847520D01*
X140276150Y-92902674D01*
X140276150Y-93206022D01*
X140744962Y-92902674D02*
X140551922Y-92902674D01*
X140551922Y-93206022D02*
X140551922Y-92626902D01*
X140827693Y-92626902D01*
%TO.C,CDIV1A1*%
X136281522Y-99362057D02*
X136309099Y-99334480D01*
X136364253Y-99306902D01*
X136502139Y-99306902D01*
X136557293Y-99334480D01*
X136584870Y-99362057D01*
X136612448Y-99417211D01*
X136612448Y-99472365D01*
X136584870Y-99555097D01*
X136253945Y-99886022D01*
X136612448Y-99886022D01*
X136833065Y-99362057D02*
X136860642Y-99334480D01*
X136915796Y-99306902D01*
X137053682Y-99306902D01*
X137108836Y-99334480D01*
X137136413Y-99362057D01*
X137163990Y-99417211D01*
X137163990Y-99472365D01*
X137136413Y-99555097D01*
X136805488Y-99886022D01*
X137163990Y-99886022D01*
X137412185Y-99499942D02*
X137412185Y-100079062D01*
X137412185Y-99527520D02*
X137467339Y-99499942D01*
X137577648Y-99499942D01*
X137632802Y-99527520D01*
X137660379Y-99555097D01*
X137687956Y-99610251D01*
X137687956Y-99775714D01*
X137660379Y-99830868D01*
X137632802Y-99858445D01*
X137577648Y-99886022D01*
X137467339Y-99886022D01*
X137412185Y-99858445D01*
X138129190Y-99582674D02*
X137936150Y-99582674D01*
X137936150Y-99886022D02*
X137936150Y-99306902D01*
X138211922Y-99306902D01*
%TO.C,CDIV2A1*%
X140312448Y-99986022D02*
X139981522Y-99986022D01*
X140146985Y-99986022D02*
X140146985Y-99406902D01*
X140091830Y-99489634D01*
X140036676Y-99544788D01*
X139981522Y-99572365D01*
X140560642Y-99930868D02*
X140588219Y-99958445D01*
X140560642Y-99986022D01*
X140533065Y-99958445D01*
X140560642Y-99930868D01*
X140560642Y-99986022D01*
X141112185Y-99406902D02*
X140836413Y-99406902D01*
X140808836Y-99682674D01*
X140836413Y-99655097D01*
X140891568Y-99627520D01*
X141029453Y-99627520D01*
X141084608Y-99655097D01*
X141112185Y-99682674D01*
X141139762Y-99737828D01*
X141139762Y-99875714D01*
X141112185Y-99930868D01*
X141084608Y-99958445D01*
X141029453Y-99986022D01*
X140891568Y-99986022D01*
X140836413Y-99958445D01*
X140808836Y-99930868D01*
X141387956Y-99599942D02*
X141387956Y-99986022D01*
X141387956Y-99655097D02*
X141415533Y-99627520D01*
X141470688Y-99599942D01*
X141553419Y-99599942D01*
X141608573Y-99627520D01*
X141636150Y-99682674D01*
X141636150Y-99986022D01*
X142104962Y-99682674D02*
X141911922Y-99682674D01*
X141911922Y-99986022D02*
X141911922Y-99406902D01*
X142187693Y-99406902D01*
%TO.C,RAA1*%
X138927557Y-84244177D02*
X138899980Y-84216600D01*
X138872402Y-84161446D01*
X138872402Y-84023560D01*
X138899980Y-83968406D01*
X138927557Y-83940829D01*
X138982711Y-83913251D01*
X139037865Y-83913251D01*
X139120597Y-83940829D01*
X139451522Y-84271754D01*
X139451522Y-83913251D01*
X138927557Y-83692634D02*
X138899980Y-83665057D01*
X138872402Y-83609903D01*
X138872402Y-83472017D01*
X138899980Y-83416863D01*
X138927557Y-83389286D01*
X138982711Y-83361709D01*
X139037865Y-83361709D01*
X139120597Y-83389286D01*
X139451522Y-83720211D01*
X139451522Y-83361709D01*
%TO.C,CBLKA1*%
X149893448Y-91178022D02*
X149562522Y-91178022D01*
X149727985Y-91178022D02*
X149727985Y-90598902D01*
X149672830Y-90681634D01*
X149617676Y-90736788D01*
X149562522Y-90764365D01*
X150251950Y-90598902D02*
X150307105Y-90598902D01*
X150362259Y-90626480D01*
X150389836Y-90654057D01*
X150417413Y-90709211D01*
X150444990Y-90819520D01*
X150444990Y-90957405D01*
X150417413Y-91067714D01*
X150389836Y-91122868D01*
X150362259Y-91150445D01*
X150307105Y-91178022D01*
X150251950Y-91178022D01*
X150196796Y-91150445D01*
X150169219Y-91122868D01*
X150141642Y-91067714D01*
X150114065Y-90957405D01*
X150114065Y-90819520D01*
X150141642Y-90709211D01*
X150169219Y-90654057D01*
X150196796Y-90626480D01*
X150251950Y-90598902D01*
X150803493Y-90598902D02*
X150858648Y-90598902D01*
X150913802Y-90626480D01*
X150941379Y-90654057D01*
X150968956Y-90709211D01*
X150996533Y-90819520D01*
X150996533Y-90957405D01*
X150968956Y-91067714D01*
X150941379Y-91122868D01*
X150913802Y-91150445D01*
X150858648Y-91178022D01*
X150803493Y-91178022D01*
X150748339Y-91150445D01*
X150720762Y-91122868D01*
X150693185Y-91067714D01*
X150665608Y-90957405D01*
X150665608Y-90819520D01*
X150693185Y-90709211D01*
X150720762Y-90654057D01*
X150748339Y-90626480D01*
X150803493Y-90598902D01*
X151244728Y-90791942D02*
X151244728Y-91178022D01*
X151244728Y-90847097D02*
X151272305Y-90819520D01*
X151327459Y-90791942D01*
X151410190Y-90791942D01*
X151465345Y-90819520D01*
X151492922Y-90874674D01*
X151492922Y-91178022D01*
X151961733Y-90874674D02*
X151768693Y-90874674D01*
X151768693Y-91178022D02*
X151768693Y-90598902D01*
X152044465Y-90598902D01*
%TO.C,CE2*%
D20*
X157649977Y-93587022D02*
X157319051Y-93587022D01*
X157484514Y-93587022D02*
X157484514Y-93007902D01*
X157429359Y-93090634D01*
X157374205Y-93145788D01*
X157319051Y-93173365D01*
X158173942Y-93007902D02*
X157898171Y-93007902D01*
X157870594Y-93283674D01*
X157898171Y-93256097D01*
X157953325Y-93228520D01*
X158091211Y-93228520D01*
X158146365Y-93256097D01*
X158173942Y-93283674D01*
X158201519Y-93338828D01*
X158201519Y-93476714D01*
X158173942Y-93531868D01*
X158146365Y-93559445D01*
X158091211Y-93587022D01*
X157953325Y-93587022D01*
X157898171Y-93559445D01*
X157870594Y-93531868D01*
X158560022Y-93007902D02*
X158615177Y-93007902D01*
X158670331Y-93035480D01*
X158697908Y-93063057D01*
X158725485Y-93118211D01*
X158753062Y-93228520D01*
X158753062Y-93366405D01*
X158725485Y-93476714D01*
X158697908Y-93531868D01*
X158670331Y-93559445D01*
X158615177Y-93587022D01*
X158560022Y-93587022D01*
X158504868Y-93559445D01*
X158477291Y-93531868D01*
X158449714Y-93476714D01*
X158422137Y-93366405D01*
X158422137Y-93228520D01*
X158449714Y-93118211D01*
X158477291Y-93063057D01*
X158504868Y-93035480D01*
X158560022Y-93007902D01*
X159249451Y-93200942D02*
X159249451Y-93587022D01*
X159001257Y-93200942D02*
X159001257Y-93504291D01*
X159028834Y-93559445D01*
X159083988Y-93587022D01*
X159166719Y-93587022D01*
X159221874Y-93559445D01*
X159249451Y-93531868D01*
X159718262Y-93283674D02*
X159525222Y-93283674D01*
X159525222Y-93587022D02*
X159525222Y-93007902D01*
X159800994Y-93007902D01*
%TO.C,RTC1*%
D21*
X151335328Y-84560543D02*
X151445637Y-84266387D01*
X151555945Y-84560543D01*
X151206635Y-84137693D02*
X151592715Y-84009000D01*
X151206635Y-83880307D01*
X151592715Y-83586151D02*
X151390482Y-83586151D01*
X151353713Y-83604535D01*
X151335328Y-83641305D01*
X151335328Y-83714844D01*
X151353713Y-83751613D01*
X151574330Y-83586151D02*
X151592715Y-83622920D01*
X151592715Y-83714844D01*
X151574330Y-83751613D01*
X151537560Y-83769998D01*
X151500791Y-83769998D01*
X151464021Y-83751613D01*
X151445637Y-83714844D01*
X151445637Y-83622920D01*
X151427252Y-83586151D01*
X151592715Y-83347149D02*
X151574330Y-83383918D01*
X151537560Y-83402303D01*
X151206635Y-83402303D01*
X151335328Y-83034608D02*
X151592715Y-83034608D01*
X151335328Y-83200071D02*
X151537560Y-83200071D01*
X151574330Y-83181686D01*
X151592715Y-83144916D01*
X151592715Y-83089762D01*
X151574330Y-83052992D01*
X151555945Y-83034608D01*
X151574330Y-82703682D02*
X151592715Y-82740451D01*
X151592715Y-82813991D01*
X151574330Y-82850760D01*
X151537560Y-82869145D01*
X151390482Y-82869145D01*
X151353713Y-82850760D01*
X151335328Y-82813991D01*
X151335328Y-82740451D01*
X151353713Y-82703682D01*
X151390482Y-82685297D01*
X151427252Y-82685297D01*
X151464021Y-82869145D01*
%TO.C,RFB1*%
D19*
X124524557Y-90548600D02*
X124524557Y-90226866D01*
X125030138Y-90088981D02*
X125030138Y-90548600D01*
X124064938Y-90548600D01*
X124064938Y-90088981D01*
X125030138Y-89675323D02*
X124064938Y-89675323D01*
X124754366Y-89353590D01*
X124064938Y-89031857D01*
X125030138Y-89031857D01*
X124386671Y-88158581D02*
X125030138Y-88158581D01*
X124018976Y-88388390D02*
X124708404Y-88618200D01*
X124708404Y-88020695D01*
X124064938Y-87469152D02*
X124064938Y-87377228D01*
X124110900Y-87285304D01*
X124156861Y-87239342D01*
X124248785Y-87193381D01*
X124432633Y-87147419D01*
X124662442Y-87147419D01*
X124846290Y-87193381D01*
X124938214Y-87239342D01*
X124984176Y-87285304D01*
X125030138Y-87377228D01*
X125030138Y-87469152D01*
X124984176Y-87561076D01*
X124938214Y-87607038D01*
X124846290Y-87653000D01*
X124662442Y-87698961D01*
X124432633Y-87698961D01*
X124248785Y-87653000D01*
X124156861Y-87607038D01*
X124110900Y-87561076D01*
X124064938Y-87469152D01*
X125030138Y-86687800D02*
X125030138Y-86503952D01*
X124984176Y-86412028D01*
X124938214Y-86366066D01*
X124800328Y-86274142D01*
X124616480Y-86228181D01*
X124248785Y-86228181D01*
X124156861Y-86274142D01*
X124110900Y-86320104D01*
X124064938Y-86412028D01*
X124064938Y-86595876D01*
X124110900Y-86687800D01*
X124156861Y-86733761D01*
X124248785Y-86779723D01*
X124478595Y-86779723D01*
X124570519Y-86733761D01*
X124616480Y-86687800D01*
X124662442Y-86595876D01*
X124662442Y-86412028D01*
X124616480Y-86320104D01*
X124570519Y-86274142D01*
X124478595Y-86228181D01*
X124064938Y-85354904D02*
X124064938Y-85814523D01*
X124524557Y-85860485D01*
X124478595Y-85814523D01*
X124432633Y-85722600D01*
X124432633Y-85492790D01*
X124478595Y-85400866D01*
X124524557Y-85354904D01*
X124616480Y-85308942D01*
X124846290Y-85308942D01*
X124938214Y-85354904D01*
X124984176Y-85400866D01*
X125030138Y-85492790D01*
X125030138Y-85722600D01*
X124984176Y-85814523D01*
X124938214Y-85860485D01*
%TO.C,CFCAPB1*%
D18*
X130351522Y-88013251D02*
X130351522Y-88344177D01*
X130351522Y-88178714D02*
X129772402Y-88178714D01*
X129855134Y-88233869D01*
X129910288Y-88289023D01*
X129937865Y-88344177D01*
X129772402Y-87654749D02*
X129772402Y-87599594D01*
X129799980Y-87544440D01*
X129827557Y-87516863D01*
X129882711Y-87489286D01*
X129993020Y-87461709D01*
X130130905Y-87461709D01*
X130241214Y-87489286D01*
X130296368Y-87516863D01*
X130323945Y-87544440D01*
X130351522Y-87599594D01*
X130351522Y-87654749D01*
X130323945Y-87709903D01*
X130296368Y-87737480D01*
X130241214Y-87765057D01*
X130130905Y-87792634D01*
X129993020Y-87792634D01*
X129882711Y-87765057D01*
X129827557Y-87737480D01*
X129799980Y-87709903D01*
X129772402Y-87654749D01*
X129965442Y-87213514D02*
X130351522Y-87213514D01*
X130020597Y-87213514D02*
X129993020Y-87185937D01*
X129965442Y-87130783D01*
X129965442Y-87048051D01*
X129993020Y-86992897D01*
X130048174Y-86965320D01*
X130351522Y-86965320D01*
X130048174Y-86496509D02*
X130048174Y-86689549D01*
X130351522Y-86689549D02*
X129772402Y-86689549D01*
X129772402Y-86413777D01*
%TO.C,CDCB1*%
X132051522Y-88113251D02*
X132051522Y-88444177D01*
X132051522Y-88278714D02*
X131472402Y-88278714D01*
X131555134Y-88333869D01*
X131610288Y-88389023D01*
X131637865Y-88444177D01*
X131472402Y-87754749D02*
X131472402Y-87699594D01*
X131499980Y-87644440D01*
X131527557Y-87616863D01*
X131582711Y-87589286D01*
X131693020Y-87561709D01*
X131830905Y-87561709D01*
X131941214Y-87589286D01*
X131996368Y-87616863D01*
X132023945Y-87644440D01*
X132051522Y-87699594D01*
X132051522Y-87754749D01*
X132023945Y-87809903D01*
X131996368Y-87837480D01*
X131941214Y-87865057D01*
X131830905Y-87892634D01*
X131693020Y-87892634D01*
X131582711Y-87865057D01*
X131527557Y-87837480D01*
X131499980Y-87809903D01*
X131472402Y-87754749D01*
X131665442Y-87313514D02*
X132051522Y-87313514D01*
X131720597Y-87313514D02*
X131693020Y-87285937D01*
X131665442Y-87230783D01*
X131665442Y-87148051D01*
X131693020Y-87092897D01*
X131748174Y-87065320D01*
X132051522Y-87065320D01*
X131748174Y-86596509D02*
X131748174Y-86789549D01*
X132051522Y-86789549D02*
X131472402Y-86789549D01*
X131472402Y-86513777D01*
%TO.C,CDECB1*%
X129393448Y-101778022D02*
X129062522Y-101778022D01*
X129227985Y-101778022D02*
X129227985Y-101198902D01*
X129172830Y-101281634D01*
X129117676Y-101336788D01*
X129062522Y-101364365D01*
X129751950Y-101198902D02*
X129807105Y-101198902D01*
X129862259Y-101226480D01*
X129889836Y-101254057D01*
X129917413Y-101309211D01*
X129944990Y-101419520D01*
X129944990Y-101557405D01*
X129917413Y-101667714D01*
X129889836Y-101722868D01*
X129862259Y-101750445D01*
X129807105Y-101778022D01*
X129751950Y-101778022D01*
X129696796Y-101750445D01*
X129669219Y-101722868D01*
X129641642Y-101667714D01*
X129614065Y-101557405D01*
X129614065Y-101419520D01*
X129641642Y-101309211D01*
X129669219Y-101254057D01*
X129696796Y-101226480D01*
X129751950Y-101198902D01*
X130303493Y-101198902D02*
X130358648Y-101198902D01*
X130413802Y-101226480D01*
X130441379Y-101254057D01*
X130468956Y-101309211D01*
X130496533Y-101419520D01*
X130496533Y-101557405D01*
X130468956Y-101667714D01*
X130441379Y-101722868D01*
X130413802Y-101750445D01*
X130358648Y-101778022D01*
X130303493Y-101778022D01*
X130248339Y-101750445D01*
X130220762Y-101722868D01*
X130193185Y-101667714D01*
X130165608Y-101557405D01*
X130165608Y-101419520D01*
X130193185Y-101309211D01*
X130220762Y-101254057D01*
X130248339Y-101226480D01*
X130303493Y-101198902D01*
X130744728Y-101391942D02*
X130744728Y-101778022D01*
X130744728Y-101447097D02*
X130772305Y-101419520D01*
X130827459Y-101391942D01*
X130910190Y-101391942D01*
X130965345Y-101419520D01*
X130992922Y-101474674D01*
X130992922Y-101778022D01*
X131461733Y-101474674D02*
X131268693Y-101474674D01*
X131268693Y-101778022D02*
X131268693Y-101198902D01*
X131544465Y-101198902D01*
%TO.C,CAGNDB1*%
X133271448Y-94514022D02*
X132940522Y-94514022D01*
X133105985Y-94514022D02*
X133105985Y-93934902D01*
X133050830Y-94017634D01*
X132995676Y-94072788D01*
X132940522Y-94100365D01*
X133767836Y-94127942D02*
X133767836Y-94514022D01*
X133519642Y-94127942D02*
X133519642Y-94431291D01*
X133547219Y-94486445D01*
X133602373Y-94514022D01*
X133685105Y-94514022D01*
X133740259Y-94486445D01*
X133767836Y-94458868D01*
X134236648Y-94210674D02*
X134043608Y-94210674D01*
X134043608Y-94514022D02*
X134043608Y-93934902D01*
X134319379Y-93934902D01*
%TO.C,CRES1B1*%
X118552448Y-97506022D02*
X118221522Y-97506022D01*
X118386985Y-97506022D02*
X118386985Y-96926902D01*
X118331830Y-97009634D01*
X118276676Y-97064788D01*
X118221522Y-97092365D01*
X118800642Y-97119942D02*
X118800642Y-97506022D01*
X118800642Y-97175097D02*
X118828219Y-97147520D01*
X118883373Y-97119942D01*
X118966105Y-97119942D01*
X119021259Y-97147520D01*
X119048836Y-97202674D01*
X119048836Y-97506022D01*
X119517648Y-97202674D02*
X119324608Y-97202674D01*
X119324608Y-97506022D02*
X119324608Y-96926902D01*
X119600379Y-96926902D01*
%TO.C,CDIV1B1*%
X116281522Y-101162057D02*
X116309099Y-101134480D01*
X116364253Y-101106902D01*
X116502139Y-101106902D01*
X116557293Y-101134480D01*
X116584870Y-101162057D01*
X116612448Y-101217211D01*
X116612448Y-101272365D01*
X116584870Y-101355097D01*
X116253945Y-101686022D01*
X116612448Y-101686022D01*
X116833065Y-101162057D02*
X116860642Y-101134480D01*
X116915796Y-101106902D01*
X117053682Y-101106902D01*
X117108836Y-101134480D01*
X117136413Y-101162057D01*
X117163990Y-101217211D01*
X117163990Y-101272365D01*
X117136413Y-101355097D01*
X116805488Y-101686022D01*
X117163990Y-101686022D01*
X117412185Y-101299942D02*
X117412185Y-101879062D01*
X117412185Y-101327520D02*
X117467339Y-101299942D01*
X117577648Y-101299942D01*
X117632802Y-101327520D01*
X117660379Y-101355097D01*
X117687956Y-101410251D01*
X117687956Y-101575714D01*
X117660379Y-101630868D01*
X117632802Y-101658445D01*
X117577648Y-101686022D01*
X117467339Y-101686022D01*
X117412185Y-101658445D01*
X118129190Y-101382674D02*
X117936150Y-101382674D01*
X117936150Y-101686022D02*
X117936150Y-101106902D01*
X118211922Y-101106902D01*
%TO.C,CDIV2B1*%
X124612448Y-101386022D02*
X124281522Y-101386022D01*
X124446985Y-101386022D02*
X124446985Y-100806902D01*
X124391830Y-100889634D01*
X124336676Y-100944788D01*
X124281522Y-100972365D01*
X124860642Y-101330868D02*
X124888219Y-101358445D01*
X124860642Y-101386022D01*
X124833065Y-101358445D01*
X124860642Y-101330868D01*
X124860642Y-101386022D01*
X125412185Y-100806902D02*
X125136413Y-100806902D01*
X125108836Y-101082674D01*
X125136413Y-101055097D01*
X125191568Y-101027520D01*
X125329453Y-101027520D01*
X125384608Y-101055097D01*
X125412185Y-101082674D01*
X125439762Y-101137828D01*
X125439762Y-101275714D01*
X125412185Y-101330868D01*
X125384608Y-101358445D01*
X125329453Y-101386022D01*
X125191568Y-101386022D01*
X125136413Y-101358445D01*
X125108836Y-101330868D01*
X125687956Y-100999942D02*
X125687956Y-101386022D01*
X125687956Y-101055097D02*
X125715533Y-101027520D01*
X125770688Y-100999942D01*
X125853419Y-100999942D01*
X125908573Y-101027520D01*
X125936150Y-101082674D01*
X125936150Y-101386022D01*
X126404962Y-101082674D02*
X126211922Y-101082674D01*
X126211922Y-101386022D02*
X126211922Y-100806902D01*
X126487693Y-100806902D01*
%TO.C,RAB1*%
X120262522Y-87354057D02*
X120290099Y-87326480D01*
X120345253Y-87298902D01*
X120483139Y-87298902D01*
X120538293Y-87326480D01*
X120565870Y-87354057D01*
X120593448Y-87409211D01*
X120593448Y-87464365D01*
X120565870Y-87547097D01*
X120234945Y-87878022D01*
X120593448Y-87878022D01*
X120814065Y-87354057D02*
X120841642Y-87326480D01*
X120896796Y-87298902D01*
X121034682Y-87298902D01*
X121089836Y-87326480D01*
X121117413Y-87354057D01*
X121144990Y-87409211D01*
X121144990Y-87464365D01*
X121117413Y-87547097D01*
X120786488Y-87878022D01*
X121144990Y-87878022D01*
%TO.C,CBLKB1*%
X132293448Y-100278022D02*
X131962522Y-100278022D01*
X132127985Y-100278022D02*
X132127985Y-99698902D01*
X132072830Y-99781634D01*
X132017676Y-99836788D01*
X131962522Y-99864365D01*
X132651950Y-99698902D02*
X132707105Y-99698902D01*
X132762259Y-99726480D01*
X132789836Y-99754057D01*
X132817413Y-99809211D01*
X132844990Y-99919520D01*
X132844990Y-100057405D01*
X132817413Y-100167714D01*
X132789836Y-100222868D01*
X132762259Y-100250445D01*
X132707105Y-100278022D01*
X132651950Y-100278022D01*
X132596796Y-100250445D01*
X132569219Y-100222868D01*
X132541642Y-100167714D01*
X132514065Y-100057405D01*
X132514065Y-99919520D01*
X132541642Y-99809211D01*
X132569219Y-99754057D01*
X132596796Y-99726480D01*
X132651950Y-99698902D01*
X133203493Y-99698902D02*
X133258648Y-99698902D01*
X133313802Y-99726480D01*
X133341379Y-99754057D01*
X133368956Y-99809211D01*
X133396533Y-99919520D01*
X133396533Y-100057405D01*
X133368956Y-100167714D01*
X133341379Y-100222868D01*
X133313802Y-100250445D01*
X133258648Y-100278022D01*
X133203493Y-100278022D01*
X133148339Y-100250445D01*
X133120762Y-100222868D01*
X133093185Y-100167714D01*
X133065608Y-100057405D01*
X133065608Y-99919520D01*
X133093185Y-99809211D01*
X133120762Y-99754057D01*
X133148339Y-99726480D01*
X133203493Y-99698902D01*
X133644728Y-99891942D02*
X133644728Y-100278022D01*
X133644728Y-99947097D02*
X133672305Y-99919520D01*
X133727459Y-99891942D01*
X133810190Y-99891942D01*
X133865345Y-99919520D01*
X133892922Y-99974674D01*
X133892922Y-100278022D01*
X134361733Y-99974674D02*
X134168693Y-99974674D01*
X134168693Y-100278022D02*
X134168693Y-99698902D01*
X134444465Y-99698902D01*
%TO.C,CE1*%
D20*
X124829977Y-87705022D02*
X124499051Y-87705022D01*
X124664514Y-87705022D02*
X124664514Y-87125902D01*
X124609359Y-87208634D01*
X124554205Y-87263788D01*
X124499051Y-87291365D01*
X125353942Y-87125902D02*
X125078171Y-87125902D01*
X125050594Y-87401674D01*
X125078171Y-87374097D01*
X125133325Y-87346520D01*
X125271211Y-87346520D01*
X125326365Y-87374097D01*
X125353942Y-87401674D01*
X125381519Y-87456828D01*
X125381519Y-87594714D01*
X125353942Y-87649868D01*
X125326365Y-87677445D01*
X125271211Y-87705022D01*
X125133325Y-87705022D01*
X125078171Y-87677445D01*
X125050594Y-87649868D01*
X125740022Y-87125902D02*
X125795177Y-87125902D01*
X125850331Y-87153480D01*
X125877908Y-87181057D01*
X125905485Y-87236211D01*
X125933062Y-87346520D01*
X125933062Y-87484405D01*
X125905485Y-87594714D01*
X125877908Y-87649868D01*
X125850331Y-87677445D01*
X125795177Y-87705022D01*
X125740022Y-87705022D01*
X125684868Y-87677445D01*
X125657291Y-87649868D01*
X125629714Y-87594714D01*
X125602137Y-87484405D01*
X125602137Y-87346520D01*
X125629714Y-87236211D01*
X125657291Y-87181057D01*
X125684868Y-87153480D01*
X125740022Y-87125902D01*
X126429451Y-87318942D02*
X126429451Y-87705022D01*
X126181257Y-87318942D02*
X126181257Y-87622291D01*
X126208834Y-87677445D01*
X126263988Y-87705022D01*
X126346719Y-87705022D01*
X126401874Y-87677445D01*
X126429451Y-87649868D01*
X126898262Y-87401674D02*
X126705222Y-87401674D01*
X126705222Y-87705022D02*
X126705222Y-87125902D01*
X126980994Y-87125902D01*
%TO.C,CE3*%
X140229977Y-104805022D02*
X139899051Y-104805022D01*
X140064514Y-104805022D02*
X140064514Y-104225902D01*
X140009359Y-104308634D01*
X139954205Y-104363788D01*
X139899051Y-104391365D01*
X140753942Y-104225902D02*
X140478171Y-104225902D01*
X140450594Y-104501674D01*
X140478171Y-104474097D01*
X140533325Y-104446520D01*
X140671211Y-104446520D01*
X140726365Y-104474097D01*
X140753942Y-104501674D01*
X140781519Y-104556828D01*
X140781519Y-104694714D01*
X140753942Y-104749868D01*
X140726365Y-104777445D01*
X140671211Y-104805022D01*
X140533325Y-104805022D01*
X140478171Y-104777445D01*
X140450594Y-104749868D01*
X141140022Y-104225902D02*
X141195177Y-104225902D01*
X141250331Y-104253480D01*
X141277908Y-104281057D01*
X141305485Y-104336211D01*
X141333062Y-104446520D01*
X141333062Y-104584405D01*
X141305485Y-104694714D01*
X141277908Y-104749868D01*
X141250331Y-104777445D01*
X141195177Y-104805022D01*
X141140022Y-104805022D01*
X141084868Y-104777445D01*
X141057291Y-104749868D01*
X141029714Y-104694714D01*
X141002137Y-104584405D01*
X141002137Y-104446520D01*
X141029714Y-104336211D01*
X141057291Y-104281057D01*
X141084868Y-104253480D01*
X141140022Y-104225902D01*
X141829451Y-104418942D02*
X141829451Y-104805022D01*
X141581257Y-104418942D02*
X141581257Y-104722291D01*
X141608834Y-104777445D01*
X141663988Y-104805022D01*
X141746719Y-104805022D01*
X141801874Y-104777445D01*
X141829451Y-104749868D01*
X142298262Y-104501674D02*
X142105222Y-104501674D01*
X142105222Y-104805022D02*
X142105222Y-104225902D01*
X142380994Y-104225902D01*
%TO.C,CXB1*%
D18*
X119393448Y-95978022D02*
X119062522Y-95978022D01*
X119227985Y-95978022D02*
X119227985Y-95398902D01*
X119172830Y-95481634D01*
X119117676Y-95536788D01*
X119062522Y-95564365D01*
X119751950Y-95398902D02*
X119807105Y-95398902D01*
X119862259Y-95426480D01*
X119889836Y-95454057D01*
X119917413Y-95509211D01*
X119944990Y-95619520D01*
X119944990Y-95757405D01*
X119917413Y-95867714D01*
X119889836Y-95922868D01*
X119862259Y-95950445D01*
X119807105Y-95978022D01*
X119751950Y-95978022D01*
X119696796Y-95950445D01*
X119669219Y-95922868D01*
X119641642Y-95867714D01*
X119614065Y-95757405D01*
X119614065Y-95619520D01*
X119641642Y-95509211D01*
X119669219Y-95454057D01*
X119696796Y-95426480D01*
X119751950Y-95398902D01*
X120303493Y-95398902D02*
X120358648Y-95398902D01*
X120413802Y-95426480D01*
X120441379Y-95454057D01*
X120468956Y-95509211D01*
X120496533Y-95619520D01*
X120496533Y-95757405D01*
X120468956Y-95867714D01*
X120441379Y-95922868D01*
X120413802Y-95950445D01*
X120358648Y-95978022D01*
X120303493Y-95978022D01*
X120248339Y-95950445D01*
X120220762Y-95922868D01*
X120193185Y-95867714D01*
X120165608Y-95757405D01*
X120165608Y-95619520D01*
X120193185Y-95509211D01*
X120220762Y-95454057D01*
X120248339Y-95426480D01*
X120303493Y-95398902D01*
X120744728Y-95591942D02*
X120744728Y-95978022D01*
X120744728Y-95647097D02*
X120772305Y-95619520D01*
X120827459Y-95591942D01*
X120910190Y-95591942D01*
X120965345Y-95619520D01*
X120992922Y-95674674D01*
X120992922Y-95978022D01*
X121461733Y-95674674D02*
X121268693Y-95674674D01*
X121268693Y-95978022D02*
X121268693Y-95398902D01*
X121544465Y-95398902D01*
%TO.C,CRES2B1*%
X118471448Y-99214022D02*
X118140522Y-99214022D01*
X118305985Y-99214022D02*
X118305985Y-98634902D01*
X118250830Y-98717634D01*
X118195676Y-98772788D01*
X118140522Y-98800365D01*
X118829950Y-98634902D02*
X118885105Y-98634902D01*
X118940259Y-98662480D01*
X118967836Y-98690057D01*
X118995413Y-98745211D01*
X119022990Y-98855520D01*
X119022990Y-98993405D01*
X118995413Y-99103714D01*
X118967836Y-99158868D01*
X118940259Y-99186445D01*
X118885105Y-99214022D01*
X118829950Y-99214022D01*
X118774796Y-99186445D01*
X118747219Y-99158868D01*
X118719642Y-99103714D01*
X118692065Y-98993405D01*
X118692065Y-98855520D01*
X118719642Y-98745211D01*
X118747219Y-98690057D01*
X118774796Y-98662480D01*
X118829950Y-98634902D01*
X119381493Y-98634902D02*
X119436648Y-98634902D01*
X119491802Y-98662480D01*
X119519379Y-98690057D01*
X119546956Y-98745211D01*
X119574533Y-98855520D01*
X119574533Y-98993405D01*
X119546956Y-99103714D01*
X119519379Y-99158868D01*
X119491802Y-99186445D01*
X119436648Y-99214022D01*
X119381493Y-99214022D01*
X119326339Y-99186445D01*
X119298762Y-99158868D01*
X119271185Y-99103714D01*
X119243608Y-98993405D01*
X119243608Y-98855520D01*
X119271185Y-98745211D01*
X119298762Y-98690057D01*
X119326339Y-98662480D01*
X119381493Y-98634902D01*
X119822728Y-98827942D02*
X119822728Y-99407062D01*
X119822728Y-98855520D02*
X119877882Y-98827942D01*
X119988190Y-98827942D01*
X120043345Y-98855520D01*
X120070922Y-98883097D01*
X120098499Y-98938251D01*
X120098499Y-99103714D01*
X120070922Y-99158868D01*
X120043345Y-99186445D01*
X119988190Y-99214022D01*
X119877882Y-99214022D01*
X119822728Y-99186445D01*
X120539733Y-98910674D02*
X120346693Y-98910674D01*
X120346693Y-99214022D02*
X120346693Y-98634902D01*
X120622465Y-98634902D01*
%TO.C,CRES2A1*%
X135551522Y-94013251D02*
X135551522Y-94344177D01*
X135551522Y-94178714D02*
X134972402Y-94178714D01*
X135055134Y-94233869D01*
X135110288Y-94289023D01*
X135137865Y-94344177D01*
X134972402Y-93654749D02*
X134972402Y-93599594D01*
X134999980Y-93544440D01*
X135027557Y-93516863D01*
X135082711Y-93489286D01*
X135193020Y-93461709D01*
X135330905Y-93461709D01*
X135441214Y-93489286D01*
X135496368Y-93516863D01*
X135523945Y-93544440D01*
X135551522Y-93599594D01*
X135551522Y-93654749D01*
X135523945Y-93709903D01*
X135496368Y-93737480D01*
X135441214Y-93765057D01*
X135330905Y-93792634D01*
X135193020Y-93792634D01*
X135082711Y-93765057D01*
X135027557Y-93737480D01*
X134999980Y-93709903D01*
X134972402Y-93654749D01*
X134972402Y-93103206D02*
X134972402Y-93048051D01*
X134999980Y-92992897D01*
X135027557Y-92965320D01*
X135082711Y-92937743D01*
X135193020Y-92910166D01*
X135330905Y-92910166D01*
X135441214Y-92937743D01*
X135496368Y-92965320D01*
X135523945Y-92992897D01*
X135551522Y-93048051D01*
X135551522Y-93103206D01*
X135523945Y-93158360D01*
X135496368Y-93185937D01*
X135441214Y-93213514D01*
X135330905Y-93241091D01*
X135193020Y-93241091D01*
X135082711Y-93213514D01*
X135027557Y-93185937D01*
X134999980Y-93158360D01*
X134972402Y-93103206D01*
X135165442Y-92661971D02*
X135744562Y-92661971D01*
X135193020Y-92661971D02*
X135165442Y-92606817D01*
X135165442Y-92496509D01*
X135193020Y-92441354D01*
X135220597Y-92413777D01*
X135275751Y-92386200D01*
X135441214Y-92386200D01*
X135496368Y-92413777D01*
X135523945Y-92441354D01*
X135551522Y-92496509D01*
X135551522Y-92606817D01*
X135523945Y-92661971D01*
X135248174Y-91944966D02*
X135248174Y-92138006D01*
X135551522Y-92138006D02*
X134972402Y-92138006D01*
X134972402Y-91862234D01*
%TO.C,CVB1*%
X115814402Y-89169829D02*
X115814402Y-89445600D01*
X116090174Y-89473177D01*
X116062597Y-89445600D01*
X116035020Y-89390446D01*
X116035020Y-89252560D01*
X116062597Y-89197406D01*
X116090174Y-89169829D01*
X116145328Y-89142251D01*
X116283214Y-89142251D01*
X116338368Y-89169829D01*
X116365945Y-89197406D01*
X116393522Y-89252560D01*
X116393522Y-89390446D01*
X116365945Y-89445600D01*
X116338368Y-89473177D01*
X115814402Y-88783749D02*
X115814402Y-88728594D01*
X115841980Y-88673440D01*
X115869557Y-88645863D01*
X115924711Y-88618286D01*
X116035020Y-88590709D01*
X116172905Y-88590709D01*
X116283214Y-88618286D01*
X116338368Y-88645863D01*
X116365945Y-88673440D01*
X116393522Y-88728594D01*
X116393522Y-88783749D01*
X116365945Y-88838903D01*
X116338368Y-88866480D01*
X116283214Y-88894057D01*
X116172905Y-88921634D01*
X116035020Y-88921634D01*
X115924711Y-88894057D01*
X115869557Y-88866480D01*
X115841980Y-88838903D01*
X115814402Y-88783749D01*
X116007442Y-88342514D02*
X116586562Y-88342514D01*
X116035020Y-88342514D02*
X116007442Y-88287360D01*
X116007442Y-88177051D01*
X116035020Y-88121897D01*
X116062597Y-88094320D01*
X116117751Y-88066743D01*
X116283214Y-88066743D01*
X116338368Y-88094320D01*
X116365945Y-88121897D01*
X116393522Y-88177051D01*
X116393522Y-88287360D01*
X116365945Y-88342514D01*
X116090174Y-87625509D02*
X116090174Y-87818549D01*
X116393522Y-87818549D02*
X115814402Y-87818549D01*
X115814402Y-87542777D01*
%TO.C,CVA1*%
X133514402Y-86069829D02*
X133514402Y-86345600D01*
X133790174Y-86373177D01*
X133762597Y-86345600D01*
X133735020Y-86290446D01*
X133735020Y-86152560D01*
X133762597Y-86097406D01*
X133790174Y-86069829D01*
X133845328Y-86042251D01*
X133983214Y-86042251D01*
X134038368Y-86069829D01*
X134065945Y-86097406D01*
X134093522Y-86152560D01*
X134093522Y-86290446D01*
X134065945Y-86345600D01*
X134038368Y-86373177D01*
X133514402Y-85683749D02*
X133514402Y-85628594D01*
X133541980Y-85573440D01*
X133569557Y-85545863D01*
X133624711Y-85518286D01*
X133735020Y-85490709D01*
X133872905Y-85490709D01*
X133983214Y-85518286D01*
X134038368Y-85545863D01*
X134065945Y-85573440D01*
X134093522Y-85628594D01*
X134093522Y-85683749D01*
X134065945Y-85738903D01*
X134038368Y-85766480D01*
X133983214Y-85794057D01*
X133872905Y-85821634D01*
X133735020Y-85821634D01*
X133624711Y-85794057D01*
X133569557Y-85766480D01*
X133541980Y-85738903D01*
X133514402Y-85683749D01*
X133707442Y-85242514D02*
X134286562Y-85242514D01*
X133735020Y-85242514D02*
X133707442Y-85187360D01*
X133707442Y-85077051D01*
X133735020Y-85021897D01*
X133762597Y-84994320D01*
X133817751Y-84966743D01*
X133983214Y-84966743D01*
X134038368Y-84994320D01*
X134065945Y-85021897D01*
X134093522Y-85077051D01*
X134093522Y-85187360D01*
X134065945Y-85242514D01*
X133790174Y-84525509D02*
X133790174Y-84718549D01*
X134093522Y-84718549D02*
X133514402Y-84718549D01*
X133514402Y-84442777D01*
%TO.C,VREG1*%
X158554522Y-117024829D02*
X158554522Y-117300600D01*
X157975402Y-117300600D01*
X158554522Y-116831789D02*
X157975402Y-116831789D01*
X158389060Y-116638749D01*
X157975402Y-116445709D01*
X158554522Y-116445709D01*
X157975402Y-116225091D02*
X157975402Y-115866589D01*
X158196020Y-116059629D01*
X158196020Y-115976897D01*
X158223597Y-115921743D01*
X158251174Y-115894166D01*
X158306328Y-115866589D01*
X158444214Y-115866589D01*
X158499368Y-115894166D01*
X158526945Y-115921743D01*
X158554522Y-115976897D01*
X158554522Y-116142360D01*
X158526945Y-116197514D01*
X158499368Y-116225091D01*
X157975402Y-115370200D02*
X157975402Y-115480509D01*
X158002980Y-115535663D01*
X158030557Y-115563240D01*
X158113288Y-115618394D01*
X158223597Y-115645971D01*
X158444214Y-115645971D01*
X158499368Y-115618394D01*
X158526945Y-115590817D01*
X158554522Y-115535663D01*
X158554522Y-115425354D01*
X158526945Y-115370200D01*
X158499368Y-115342623D01*
X158444214Y-115315046D01*
X158306328Y-115315046D01*
X158251174Y-115342623D01*
X158223597Y-115370200D01*
X158196020Y-115425354D01*
X158196020Y-115535663D01*
X158223597Y-115590817D01*
X158251174Y-115618394D01*
X158306328Y-115645971D01*
X157975402Y-115122006D02*
X157975402Y-114735926D01*
X158554522Y-114984120D01*
X158554522Y-114211960D02*
X158554522Y-114542886D01*
X158554522Y-114377423D02*
X157975402Y-114377423D01*
X158058134Y-114432577D01*
X158113288Y-114487731D01*
X158140865Y-114542886D01*
%TO.C,CXA1*%
X137251522Y-86613251D02*
X137251522Y-86944177D01*
X137251522Y-86778714D02*
X136672402Y-86778714D01*
X136755134Y-86833869D01*
X136810288Y-86889023D01*
X136837865Y-86944177D01*
X136672402Y-86254749D02*
X136672402Y-86199594D01*
X136699980Y-86144440D01*
X136727557Y-86116863D01*
X136782711Y-86089286D01*
X136893020Y-86061709D01*
X137030905Y-86061709D01*
X137141214Y-86089286D01*
X137196368Y-86116863D01*
X137223945Y-86144440D01*
X137251522Y-86199594D01*
X137251522Y-86254749D01*
X137223945Y-86309903D01*
X137196368Y-86337480D01*
X137141214Y-86365057D01*
X137030905Y-86392634D01*
X136893020Y-86392634D01*
X136782711Y-86365057D01*
X136727557Y-86337480D01*
X136699980Y-86309903D01*
X136672402Y-86254749D01*
X136672402Y-85703206D02*
X136672402Y-85648051D01*
X136699980Y-85592897D01*
X136727557Y-85565320D01*
X136782711Y-85537743D01*
X136893020Y-85510166D01*
X137030905Y-85510166D01*
X137141214Y-85537743D01*
X137196368Y-85565320D01*
X137223945Y-85592897D01*
X137251522Y-85648051D01*
X137251522Y-85703206D01*
X137223945Y-85758360D01*
X137196368Y-85785937D01*
X137141214Y-85813514D01*
X137030905Y-85841091D01*
X136893020Y-85841091D01*
X136782711Y-85813514D01*
X136727557Y-85785937D01*
X136699980Y-85758360D01*
X136672402Y-85703206D01*
X136865442Y-85261971D02*
X137251522Y-85261971D01*
X136920597Y-85261971D02*
X136893020Y-85234394D01*
X136865442Y-85179240D01*
X136865442Y-85096509D01*
X136893020Y-85041354D01*
X136948174Y-85013777D01*
X137251522Y-85013777D01*
X136948174Y-84544966D02*
X136948174Y-84738006D01*
X137251522Y-84738006D02*
X136672402Y-84738006D01*
X136672402Y-84462234D01*
%TO.C,R3*%
X152631448Y-112185022D02*
X152300522Y-112185022D01*
X152465985Y-112185022D02*
X152465985Y-111605902D01*
X152410830Y-111688634D01*
X152355676Y-111743788D01*
X152300522Y-111771365D01*
X152989950Y-111605902D02*
X153045105Y-111605902D01*
X153100259Y-111633480D01*
X153127836Y-111661057D01*
X153155413Y-111716211D01*
X153182990Y-111826520D01*
X153182990Y-111964405D01*
X153155413Y-112074714D01*
X153127836Y-112129868D01*
X153100259Y-112157445D01*
X153045105Y-112185022D01*
X152989950Y-112185022D01*
X152934796Y-112157445D01*
X152907219Y-112129868D01*
X152879642Y-112074714D01*
X152852065Y-111964405D01*
X152852065Y-111826520D01*
X152879642Y-111716211D01*
X152907219Y-111661057D01*
X152934796Y-111633480D01*
X152989950Y-111605902D01*
X153431185Y-112185022D02*
X153431185Y-111605902D01*
X153762110Y-112185022D02*
X153513916Y-111854097D01*
X153762110Y-111605902D02*
X153431185Y-111936828D01*
%TD*%
M02*
