M48
; DRILL file {KiCad 5.1.6-c6e7f7d~87~ubuntu20.04.1} date Fri Jul 24 19:51:33 2020
; FORMAT={-:-/ absolute / metric / decimal}
; #@! TF.CreationDate,2020-07-24T19:51:33+01:00
; #@! TF.GenerationSoftware,Kicad,Pcbnew,5.1.6-c6e7f7d~87~ubuntu20.04.1
; #@! TF.FileFunction,Plated,1,2,PTH
FMAT,2
METRIC
T1C0.600
T2C0.813
T3C0.850
T4C1.016
T5C1.200
T6C2.300
%
G90
G05
T1
X115.45Y-88.456
X115.51Y-101.451
X117.45Y-92.156
X121.959Y-129.304
X123.25Y-85.856
X125.636Y-109.233
X125.814Y-105.931
X125.907Y-102.027
X126.211Y-88.774
X127.211Y-111.849
X128.45Y-87.856
X128.636Y-100.149
X130.111Y-102.874
X132.007Y-109.001
X132.246Y-129.304
X132.746Y-118.204
X134.65Y-105.756
X135.007Y-99.727
X135.15Y-88.856
X135.407Y-109.001
X137.25Y-105.756
X138.407Y-109.001
X139.261Y-129.329
X140.808Y-84.127
X140.946Y-125.004
X143.386Y-116.124
X144.774Y-97.66
X145.25Y-105.756
X147.087Y-101.286
X147.308Y-112.801
X147.411Y-98.274
X147.75Y-105.756
X148.207Y-109.001
X148.911Y-104.674
X149.111Y-86.174
X149.308Y-84.627
X149.934Y-116.319
X150.75Y-104.656
X151.15Y-100.056
X151.208Y-108.693
X152.257Y-82.525
X152.611Y-123.074
X152.879Y-113.23
X152.908Y-106.993
X153.15Y-102.356
X154.007Y-84.627
X154.011Y-92.774
X154.135Y-121.619
X154.4Y-109.409
X154.408Y-105.493
X154.597Y-98.822
X155.411Y-100.174
X155.736Y-104.107
X155.958Y-127.247
X156.111Y-94.574
X156.159Y-121.647
X156.35Y-114.023
X157.711Y-115.376
X157.858Y-124.647
X160.011Y-109.374
X160.211Y-101.674
X161.328Y-97.847
X161.769Y-102.716
X162.453Y-130.087
X163.411Y-84.574
X163.522Y-92.046
X164.379Y-102.23
X164.711Y-90.974
X164.832Y-85.227
X165.104Y-98.955
X165.165Y-100.714
X165.646Y-112.744
X166.343Y-92.489
X166.373Y-83.274
X167.067Y-119.811
X167.498Y-113.996
X168.511Y-96.774
X168.679Y-110.23
X169.24Y-114.014
X169.972Y-94.748
X170.004Y-102.73
X170.111Y-97.192
X170.193Y-88.884
X170.193Y-92.984
X170.911Y-85.974
X171.166Y-112.017
X171.611Y-116.176
X171.996Y-121.641
X172.1Y-96.526
X172.123Y-85.065
X172.25Y-119.101
X172.369Y-90.845
X173.732Y-84.134
X173.82Y-91.737
X174.119Y-126.404
X174.579Y-97.412
X175.479Y-100.112
X176.43Y-97.571
X177.33Y-89.556
X177.376Y-108.179
X177.929Y-121.451
X178.092Y-119.101
X178.135Y-92.684
X178.473Y-111.134
X178.473Y-112.404
X178.473Y-113.674
X178.473Y-114.944
X178.473Y-116.214
X179.743Y-111.134
X179.743Y-112.404
X179.743Y-113.674
X179.743Y-114.944
X179.743Y-116.214
T2
X151.711Y-93.058
X151.711Y-95.09
X144.911Y-102.158
X144.911Y-104.19
X128.395Y-85.874
X130.427Y-85.874
T3
X159.931Y-80.874
X162.471Y-80.874
X165.011Y-80.874
X167.551Y-80.874
X170.091Y-80.874
X172.631Y-80.874
X175.171Y-80.874
X177.711Y-80.874
X142.151Y-129.134
X144.691Y-129.134
X147.231Y-129.134
X149.771Y-129.134
X152.311Y-129.134
X154.851Y-129.134
X157.391Y-129.134
X159.931Y-129.134
X165.011Y-129.134
X167.551Y-129.134
X170.091Y-129.134
X172.631Y-129.134
X175.171Y-129.134
X177.711Y-129.134
X133.007Y-80.874
X135.547Y-80.874
X138.087Y-80.874
X140.627Y-80.874
X143.167Y-80.874
X145.707Y-80.874
X148.247Y-80.874
X150.787Y-80.874
X153.327Y-80.874
X155.867Y-80.874
T4
X118.361Y-81.174
X120.901Y-81.174
X177.838Y-101.194
X177.838Y-103.734
X177.838Y-106.274
X180.378Y-101.194
X180.378Y-103.734
X180.378Y-106.274
X119.611Y-115.704
X119.611Y-118.244
X123.441Y-81.174
X125.981Y-81.174
T5
X120.625Y-122.677
X120.625Y-125.177
X124.625Y-122.677
X124.625Y-125.177
X128.625Y-122.677
X128.625Y-125.177
T6
X116.375Y-123.927
X132.875Y-123.927
T0
M30
