%TF.GenerationSoftware,KiCad,Pcbnew,5.1.6-c6e7f7d~87~ubuntu20.04.1*%
%TF.CreationDate,2020-07-24T19:51:26+01:00*%
%TF.ProjectId,ETAG_GEN3,45544147-5f47-4454-9e33-2e6b69636164,rev?*%
%TF.SameCoordinates,Original*%
%TF.FileFunction,Paste,Bot*%
%TF.FilePolarity,Positive*%
%FSLAX46Y46*%
G04 Gerber Fmt 4.6, Leading zero omitted, Abs format (unit mm)*
G04 Created by KiCad (PCBNEW 5.1.6-c6e7f7d~87~ubuntu20.04.1) date 2020-07-24 19:51:26*
%MOMM*%
%LPD*%
G01*
G04 APERTURE LIST*
G04 APERTURE END LIST*
%TO.C,SD1*%
G36*
G01*
X137819100Y-89637600D02*
X137819100Y-88017600D01*
G75*
G02*
X137909100Y-87927600I90000J0D01*
G01*
X140329100Y-87927600D01*
G75*
G02*
X140419100Y-88017600I0J-90000D01*
G01*
X140419100Y-89637600D01*
G75*
G02*
X140329100Y-89727600I-90000J0D01*
G01*
X137909100Y-89727600D01*
G75*
G02*
X137819100Y-89637600I0J90000D01*
G01*
G37*
G36*
G01*
X139469900Y-111783374D02*
X139469900Y-111271826D01*
G75*
G02*
X139513326Y-111228400I43426J0D01*
G01*
X142324874Y-111228400D01*
G75*
G02*
X142368300Y-111271826I0J-43426D01*
G01*
X142368300Y-111783374D01*
G75*
G02*
X142324874Y-111826800I-43426J0D01*
G01*
X139513326Y-111826800D01*
G75*
G02*
X139469900Y-111783374I0J43426D01*
G01*
G37*
G36*
G01*
X139479100Y-91613600D02*
X139479100Y-90641600D01*
G75*
G02*
X139533100Y-90587600I54000J0D01*
G01*
X142305100Y-90587600D01*
G75*
G02*
X142359100Y-90641600I0J-54000D01*
G01*
X142359100Y-91613600D01*
G75*
G02*
X142305100Y-91667600I-54000J0D01*
G01*
X139533100Y-91667600D01*
G75*
G02*
X139479100Y-91613600I0J54000D01*
G01*
G37*
G36*
G01*
X139479100Y-99113600D02*
X139479100Y-98141600D01*
G75*
G02*
X139533100Y-98087600I54000J0D01*
G01*
X142305100Y-98087600D01*
G75*
G02*
X142359100Y-98141600I0J-54000D01*
G01*
X142359100Y-99113600D01*
G75*
G02*
X142305100Y-99167600I-54000J0D01*
G01*
X139533100Y-99167600D01*
G75*
G02*
X139479100Y-99113600I0J54000D01*
G01*
G37*
G36*
G01*
X139479100Y-94113600D02*
X139479100Y-93141600D01*
G75*
G02*
X139533100Y-93087600I54000J0D01*
G01*
X142305100Y-93087600D01*
G75*
G02*
X142359100Y-93141600I0J-54000D01*
G01*
X142359100Y-94113600D01*
G75*
G02*
X142305100Y-94167600I-54000J0D01*
G01*
X139533100Y-94167600D01*
G75*
G02*
X139479100Y-94113600I0J54000D01*
G01*
G37*
G36*
G01*
X139479100Y-101613600D02*
X139479100Y-100641600D01*
G75*
G02*
X139533100Y-100587600I54000J0D01*
G01*
X142305100Y-100587600D01*
G75*
G02*
X142359100Y-100641600I0J-54000D01*
G01*
X142359100Y-101613600D01*
G75*
G02*
X142305100Y-101667600I-54000J0D01*
G01*
X139533100Y-101667600D01*
G75*
G02*
X139479100Y-101613600I0J54000D01*
G01*
G37*
G36*
G01*
X139479100Y-96613600D02*
X139479100Y-95641600D01*
G75*
G02*
X139533100Y-95587600I54000J0D01*
G01*
X142305100Y-95587600D01*
G75*
G02*
X142359100Y-95641600I0J-54000D01*
G01*
X142359100Y-96613600D01*
G75*
G02*
X142305100Y-96667600I-54000J0D01*
G01*
X139533100Y-96667600D01*
G75*
G02*
X139479100Y-96613600I0J54000D01*
G01*
G37*
G36*
G01*
X139479100Y-104113600D02*
X139479100Y-103141600D01*
G75*
G02*
X139533100Y-103087600I54000J0D01*
G01*
X142305100Y-103087600D01*
G75*
G02*
X142359100Y-103141600I0J-54000D01*
G01*
X142359100Y-104113600D01*
G75*
G02*
X142305100Y-104167600I-54000J0D01*
G01*
X139533100Y-104167600D01*
G75*
G02*
X139479100Y-104113600I0J54000D01*
G01*
G37*
G36*
G01*
X139479100Y-106613600D02*
X139479100Y-105641600D01*
G75*
G02*
X139533100Y-105587600I54000J0D01*
G01*
X142305100Y-105587600D01*
G75*
G02*
X142359100Y-105641600I0J-54000D01*
G01*
X142359100Y-106613600D01*
G75*
G02*
X142305100Y-106667600I-54000J0D01*
G01*
X139533100Y-106667600D01*
G75*
G02*
X139479100Y-106613600I0J54000D01*
G01*
G37*
G36*
G01*
X139479100Y-109113600D02*
X139479100Y-108141600D01*
G75*
G02*
X139533100Y-108087600I54000J0D01*
G01*
X142305100Y-108087600D01*
G75*
G02*
X142359100Y-108141600I0J-54000D01*
G01*
X142359100Y-109113600D01*
G75*
G02*
X142305100Y-109167600I-54000J0D01*
G01*
X139533100Y-109167600D01*
G75*
G02*
X139479100Y-109113600I0J54000D01*
G01*
G37*
G36*
G01*
X139469900Y-110483374D02*
X139469900Y-109971826D01*
G75*
G02*
X139513326Y-109928400I43426J0D01*
G01*
X142324874Y-109928400D01*
G75*
G02*
X142368300Y-109971826I0J-43426D01*
G01*
X142368300Y-110483374D01*
G75*
G02*
X142324874Y-110526800I-43426J0D01*
G01*
X139513326Y-110526800D01*
G75*
G02*
X139469900Y-110483374I0J43426D01*
G01*
G37*
G36*
G01*
X139469900Y-112983374D02*
X139469900Y-112471826D01*
G75*
G02*
X139513326Y-112428400I43426J0D01*
G01*
X142324874Y-112428400D01*
G75*
G02*
X142368300Y-112471826I0J-43426D01*
G01*
X142368300Y-112983374D01*
G75*
G02*
X142324874Y-113026800I-43426J0D01*
G01*
X139513326Y-113026800D01*
G75*
G02*
X139469900Y-112983374I0J43426D01*
G01*
G37*
G36*
G01*
X137719100Y-115237600D02*
X137719100Y-113617600D01*
G75*
G02*
X137809100Y-113527600I90000J0D01*
G01*
X140229100Y-113527600D01*
G75*
G02*
X140319100Y-113617600I0J-90000D01*
G01*
X140319100Y-115237600D01*
G75*
G02*
X140229100Y-115327600I-90000J0D01*
G01*
X137809100Y-115327600D01*
G75*
G02*
X137719100Y-115237600I0J90000D01*
G01*
G37*
G36*
G01*
X115649100Y-87237600D02*
X115649100Y-85617600D01*
G75*
G02*
X115739100Y-85527600I90000J0D01*
G01*
X118159100Y-85527600D01*
G75*
G02*
X118249100Y-85617600I0J-90000D01*
G01*
X118249100Y-87237600D01*
G75*
G02*
X118159100Y-87327600I-90000J0D01*
G01*
X115739100Y-87327600D01*
G75*
G02*
X115649100Y-87237600I0J90000D01*
G01*
G37*
G36*
G01*
X115649100Y-115137600D02*
X115649100Y-113517600D01*
G75*
G02*
X115739100Y-113427600I90000J0D01*
G01*
X118159100Y-113427600D01*
G75*
G02*
X118249100Y-113517600I0J-90000D01*
G01*
X118249100Y-115137600D01*
G75*
G02*
X118159100Y-115227600I-90000J0D01*
G01*
X115739100Y-115227600D01*
G75*
G02*
X115649100Y-115137600I0J90000D01*
G01*
G37*
%TD*%
%TO.C,BAT1*%
G36*
G01*
X156879100Y-89927400D02*
X156879100Y-86719800D01*
G75*
G02*
X157057300Y-86541600I178200J0D01*
G01*
X160264900Y-86541600D01*
G75*
G02*
X160443100Y-86719800I0J-178200D01*
G01*
X160443100Y-89927400D01*
G75*
G02*
X160264900Y-90105600I-178200J0D01*
G01*
X157057300Y-90105600D01*
G75*
G02*
X156879100Y-89927400I0J178200D01*
G01*
G37*
G36*
G01*
X163956100Y-89798100D02*
X163956100Y-86849100D01*
G75*
G02*
X164086600Y-86718600I130500J0D01*
G01*
X166435600Y-86718600D01*
G75*
G02*
X166566100Y-86849100I0J-130500D01*
G01*
X166566100Y-89798100D01*
G75*
G02*
X166435600Y-89928600I-130500J0D01*
G01*
X164086600Y-89928600D01*
G75*
G02*
X163956100Y-89798100I0J130500D01*
G01*
G37*
G36*
G01*
X150756100Y-89798100D02*
X150756100Y-86849100D01*
G75*
G02*
X150886600Y-86718600I130500J0D01*
G01*
X153235600Y-86718600D01*
G75*
G02*
X153366100Y-86849100I0J-130500D01*
G01*
X153366100Y-89798100D01*
G75*
G02*
X153235600Y-89928600I-130500J0D01*
G01*
X150886600Y-89928600D01*
G75*
G02*
X150756100Y-89798100I0J130500D01*
G01*
G37*
%TD*%
M02*
