%TF.GenerationSoftware,KiCad,Pcbnew,5.1.6-c6e7f7d~87~ubuntu20.04.1*%
%TF.CreationDate,2020-07-24T19:51:26+01:00*%
%TF.ProjectId,ETAG_GEN3,45544147-5f47-4454-9e33-2e6b69636164,rev?*%
%TF.SameCoordinates,Original*%
%TF.FileFunction,Other,Fab,Bot*%
%FSLAX46Y46*%
G04 Gerber Fmt 4.6, Leading zero omitted, Abs format (unit mm)*
G04 Created by KiCad (PCBNEW 5.1.6-c6e7f7d~87~ubuntu20.04.1) date 2020-07-24 19:51:26*
%MOMM*%
%LPD*%
G01*
G04 APERTURE LIST*
%ADD10C,0.127000*%
%ADD11C,0.200000*%
G04 APERTURE END LIST*
D10*
%TO.C,SD1*%
X115273100Y-88273601D02*
G75*
G02*
X115219100Y-112927600I-51184049J-12214950D01*
G01*
X114919100Y-87227600D02*
X114919100Y-113981600D01*
X137519100Y-87327600D02*
X114919100Y-87227600D01*
X137519100Y-89927600D02*
X137519100Y-87327600D01*
X140019100Y-89927600D02*
X137519100Y-89927600D01*
X140019100Y-113727600D02*
X140019100Y-89927600D01*
X114919100Y-113981600D02*
X140019100Y-113727600D01*
D11*
%TO.C,BAT1*%
X160698800Y-86888600D02*
G75*
G03*
X160210900Y-86400700I-487900J0D01*
G01*
X157111300Y-86400700D02*
X160210900Y-86400700D01*
X159723000Y-87175600D02*
X157599200Y-87175600D01*
X159723000Y-87175600D02*
G75*
G02*
X160182200Y-87634800I0J-459200D01*
G01*
X160182200Y-89959500D02*
X160182200Y-87634800D01*
X160182200Y-89988200D02*
G75*
G03*
X160383100Y-90189100I200900J0D01*
G01*
X160469200Y-90189100D02*
X160383100Y-90189100D01*
X160469200Y-90189100D02*
G75*
G03*
X160698800Y-89959500I0J229600D01*
G01*
X160698800Y-86888600D02*
X160698800Y-89959500D01*
X166094893Y-88381000D02*
G75*
G03*
X166094893Y-88381000I-832793J0D01*
G01*
X163913200Y-86716400D02*
X163913200Y-90016900D01*
X166611000Y-86630300D02*
X163195700Y-86630300D01*
X166611000Y-90074300D02*
X166611000Y-86630300D01*
X163798400Y-90648300D02*
G75*
G03*
X163855800Y-90476100I-229600J172200D01*
G01*
X163855800Y-90131700D02*
X163855800Y-90476100D01*
X163425300Y-90217800D02*
G75*
G02*
X163769700Y-90074300I344400J-341531D01*
G01*
X166611000Y-90074300D02*
X163769700Y-90074300D01*
X156623400Y-86888600D02*
G75*
G02*
X157111300Y-86400700I487900J0D01*
G01*
X157599200Y-87175600D02*
G75*
G03*
X157140000Y-87634800I0J-459200D01*
G01*
X157140000Y-89959500D02*
X157140000Y-87634800D01*
X157140000Y-89988200D02*
G75*
G02*
X156939100Y-90189100I-200900J0D01*
G01*
X156853000Y-90189100D02*
X156939100Y-90189100D01*
X156853000Y-90189100D02*
G75*
G02*
X156623400Y-89959500I0J229600D01*
G01*
X156623400Y-86888600D02*
X156623400Y-89959500D01*
X152892893Y-88381000D02*
G75*
G03*
X152892893Y-88381000I-832793J0D01*
G01*
X153409000Y-86716400D02*
X153409000Y-90016900D01*
X150711200Y-86630300D02*
X154126500Y-86630300D01*
X150711200Y-90074300D02*
X150711200Y-86630300D01*
X153523800Y-90648300D02*
G75*
G02*
X153466400Y-90476100I229600J172200D01*
G01*
X153466400Y-90131700D02*
X153466400Y-90476100D01*
X153896900Y-90217800D02*
G75*
G03*
X153552500Y-90074300I-344400J-341531D01*
G01*
X150711200Y-90074300D02*
X153552500Y-90074300D01*
%TD*%
M02*
