%TF.GenerationSoftware,KiCad,Pcbnew,5.1.6-c6e7f7d~87~ubuntu20.04.1*%
%TF.CreationDate,2020-07-24T19:51:26+01:00*%
%TF.ProjectId,ETAG_GEN3,45544147-5f47-4454-9e33-2e6b69636164,rev?*%
%TF.SameCoordinates,Original*%
%TF.FileFunction,Other,ECO2*%
%FSLAX46Y46*%
G04 Gerber Fmt 4.6, Leading zero omitted, Abs format (unit mm)*
G04 Created by KiCad (PCBNEW 5.1.6-c6e7f7d~87~ubuntu20.04.1) date 2020-07-24 19:51:26*
%MOMM*%
%LPD*%
G01*
G04 APERTURE LIST*
%ADD10C,0.150000*%
%ADD11C,0.100000*%
G04 APERTURE END LIST*
D10*
X210297619Y-101630952D02*
X210297619Y-101154761D01*
X209821428Y-101107142D01*
X209869047Y-101154761D01*
X209916666Y-101250000D01*
X209916666Y-101488095D01*
X209869047Y-101583333D01*
X209821428Y-101630952D01*
X209726190Y-101678571D01*
X209488095Y-101678571D01*
X209392857Y-101630952D01*
X209345238Y-101583333D01*
X209297619Y-101488095D01*
X209297619Y-101250000D01*
X209345238Y-101154761D01*
X209392857Y-101107142D01*
X210297619Y-102011904D02*
X210297619Y-102630952D01*
X209916666Y-102297619D01*
X209916666Y-102440476D01*
X209869047Y-102535714D01*
X209821428Y-102583333D01*
X209726190Y-102630952D01*
X209488095Y-102630952D01*
X209392857Y-102583333D01*
X209345238Y-102535714D01*
X209297619Y-102440476D01*
X209297619Y-102154761D01*
X209345238Y-102059523D01*
X209392857Y-102011904D01*
X209392857Y-103059523D02*
X209345238Y-103107142D01*
X209297619Y-103059523D01*
X209345238Y-103011904D01*
X209392857Y-103059523D01*
X209297619Y-103059523D01*
X210297619Y-104011904D02*
X210297619Y-103535714D01*
X209821428Y-103488095D01*
X209869047Y-103535714D01*
X209916666Y-103630952D01*
X209916666Y-103869047D01*
X209869047Y-103964285D01*
X209821428Y-104011904D01*
X209726190Y-104059523D01*
X209488095Y-104059523D01*
X209392857Y-104011904D01*
X209345238Y-103964285D01*
X209297619Y-103869047D01*
X209297619Y-103630952D01*
X209345238Y-103535714D01*
X209392857Y-103488095D01*
X210297619Y-104678571D02*
X210297619Y-104773809D01*
X210250000Y-104869047D01*
X210202380Y-104916666D01*
X210107142Y-104964285D01*
X209916666Y-105011904D01*
X209678571Y-105011904D01*
X209488095Y-104964285D01*
X209392857Y-104916666D01*
X209345238Y-104869047D01*
X209297619Y-104773809D01*
X209297619Y-104678571D01*
X209345238Y-104583333D01*
X209392857Y-104535714D01*
X209488095Y-104488095D01*
X209678571Y-104440476D01*
X209916666Y-104440476D01*
X210107142Y-104488095D01*
X210202380Y-104535714D01*
X210250000Y-104583333D01*
X210297619Y-104678571D01*
X210297619Y-105630952D02*
X210297619Y-105726190D01*
X210250000Y-105821428D01*
X210202380Y-105869047D01*
X210107142Y-105916666D01*
X209916666Y-105964285D01*
X209678571Y-105964285D01*
X209488095Y-105916666D01*
X209392857Y-105869047D01*
X209345238Y-105821428D01*
X209297619Y-105726190D01*
X209297619Y-105630952D01*
X209345238Y-105535714D01*
X209392857Y-105488095D01*
X209488095Y-105440476D01*
X209678571Y-105392857D01*
X209916666Y-105392857D01*
X210107142Y-105440476D01*
X210202380Y-105488095D01*
X210250000Y-105535714D01*
X210297619Y-105630952D01*
X209297619Y-107154761D02*
X209964285Y-107154761D01*
X209869047Y-107154761D02*
X209916666Y-107202380D01*
X209964285Y-107297619D01*
X209964285Y-107440476D01*
X209916666Y-107535714D01*
X209821428Y-107583333D01*
X209297619Y-107583333D01*
X209821428Y-107583333D02*
X209916666Y-107630952D01*
X209964285Y-107726190D01*
X209964285Y-107869047D01*
X209916666Y-107964285D01*
X209821428Y-108011904D01*
X209297619Y-108011904D01*
X209297619Y-108488095D02*
X209964285Y-108488095D01*
X209869047Y-108488095D02*
X209916666Y-108535714D01*
X209964285Y-108630952D01*
X209964285Y-108773809D01*
X209916666Y-108869047D01*
X209821428Y-108916666D01*
X209297619Y-108916666D01*
X209821428Y-108916666D02*
X209916666Y-108964285D01*
X209964285Y-109059523D01*
X209964285Y-109202380D01*
X209916666Y-109297619D01*
X209821428Y-109345238D01*
X209297619Y-109345238D01*
D11*
X208500000Y-78500000D02*
X208500000Y-132000000D01*
X185000000Y-78500000D02*
X209086421Y-78500000D01*
X185000000Y-132000000D02*
X209086421Y-132000000D01*
X208500000Y-132000000D02*
X207913579Y-130873496D01*
X208500000Y-132000000D02*
X209086421Y-130873496D01*
X208500000Y-78500000D02*
X207913579Y-79626504D01*
X208500000Y-78500000D02*
X209086421Y-79626504D01*
D10*
X144809523Y-64202380D02*
X145476190Y-64202380D01*
X145047619Y-65202380D01*
X146047619Y-64202380D02*
X146142857Y-64202380D01*
X146238095Y-64250000D01*
X146285714Y-64297619D01*
X146333333Y-64392857D01*
X146380952Y-64583333D01*
X146380952Y-64821428D01*
X146333333Y-65011904D01*
X146285714Y-65107142D01*
X146238095Y-65154761D01*
X146142857Y-65202380D01*
X146047619Y-65202380D01*
X145952380Y-65154761D01*
X145904761Y-65107142D01*
X145857142Y-65011904D01*
X145809523Y-64821428D01*
X145809523Y-64583333D01*
X145857142Y-64392857D01*
X145904761Y-64297619D01*
X145952380Y-64250000D01*
X146047619Y-64202380D01*
X146809523Y-65107142D02*
X146857142Y-65154761D01*
X146809523Y-65202380D01*
X146761904Y-65154761D01*
X146809523Y-65107142D01*
X146809523Y-65202380D01*
X147476190Y-64202380D02*
X147571428Y-64202380D01*
X147666666Y-64250000D01*
X147714285Y-64297619D01*
X147761904Y-64392857D01*
X147809523Y-64583333D01*
X147809523Y-64821428D01*
X147761904Y-65011904D01*
X147714285Y-65107142D01*
X147666666Y-65154761D01*
X147571428Y-65202380D01*
X147476190Y-65202380D01*
X147380952Y-65154761D01*
X147333333Y-65107142D01*
X147285714Y-65011904D01*
X147238095Y-64821428D01*
X147238095Y-64583333D01*
X147285714Y-64392857D01*
X147333333Y-64297619D01*
X147380952Y-64250000D01*
X147476190Y-64202380D01*
X148428571Y-64202380D02*
X148523809Y-64202380D01*
X148619047Y-64250000D01*
X148666666Y-64297619D01*
X148714285Y-64392857D01*
X148761904Y-64583333D01*
X148761904Y-64821428D01*
X148714285Y-65011904D01*
X148666666Y-65107142D01*
X148619047Y-65154761D01*
X148523809Y-65202380D01*
X148428571Y-65202380D01*
X148333333Y-65154761D01*
X148285714Y-65107142D01*
X148238095Y-65011904D01*
X148190476Y-64821428D01*
X148190476Y-64583333D01*
X148238095Y-64392857D01*
X148285714Y-64297619D01*
X148333333Y-64250000D01*
X148428571Y-64202380D01*
X149380952Y-64202380D02*
X149476190Y-64202380D01*
X149571428Y-64250000D01*
X149619047Y-64297619D01*
X149666666Y-64392857D01*
X149714285Y-64583333D01*
X149714285Y-64821428D01*
X149666666Y-65011904D01*
X149619047Y-65107142D01*
X149571428Y-65154761D01*
X149476190Y-65202380D01*
X149380952Y-65202380D01*
X149285714Y-65154761D01*
X149238095Y-65107142D01*
X149190476Y-65011904D01*
X149142857Y-64821428D01*
X149142857Y-64583333D01*
X149190476Y-64392857D01*
X149238095Y-64297619D01*
X149285714Y-64250000D01*
X149380952Y-64202380D01*
X150904761Y-65202380D02*
X150904761Y-64535714D01*
X150904761Y-64630952D02*
X150952380Y-64583333D01*
X151047619Y-64535714D01*
X151190476Y-64535714D01*
X151285714Y-64583333D01*
X151333333Y-64678571D01*
X151333333Y-65202380D01*
X151333333Y-64678571D02*
X151380952Y-64583333D01*
X151476190Y-64535714D01*
X151619047Y-64535714D01*
X151714285Y-64583333D01*
X151761904Y-64678571D01*
X151761904Y-65202380D01*
X152238095Y-65202380D02*
X152238095Y-64535714D01*
X152238095Y-64630952D02*
X152285714Y-64583333D01*
X152380952Y-64535714D01*
X152523809Y-64535714D01*
X152619047Y-64583333D01*
X152666666Y-64678571D01*
X152666666Y-65202380D01*
X152666666Y-64678571D02*
X152714285Y-64583333D01*
X152809523Y-64535714D01*
X152952380Y-64535714D01*
X153047619Y-64583333D01*
X153095238Y-64678571D01*
X153095238Y-65202380D01*
D11*
X114000000Y-66000000D02*
X184000000Y-66000000D01*
X114000000Y-76000000D02*
X114000000Y-65413579D01*
X184000000Y-76000000D02*
X184000000Y-65413579D01*
X184000000Y-66000000D02*
X182873496Y-66586421D01*
X184000000Y-66000000D02*
X182873496Y-65413579D01*
X114000000Y-66000000D02*
X115126504Y-66586421D01*
X114000000Y-66000000D02*
X115126504Y-65413579D01*
M02*
